<?xml version="1.0" encoding="UTF-8" standalone="no"?>
<!DOCTYPE svg PUBLIC "-//W3C//DTD SVG 1.1//EN" "http://www.w3.org/Graphics/SVG/1.1/DTD/svg11.dtd">
<svg width="100%" height="100%" viewBox="0 0 167 46" version="1.1" xmlns="http://www.w3.org/2000/svg" xmlns:xlink="http://www.w3.org/1999/xlink" xml:space="preserve" xmlns:serif="http://www.serif.com/" style="fill-rule:evenodd;clip-rule:evenodd;stroke-linejoin:round;stroke-miterlimit:2;">
    <g transform="matrix(1,0,0,1,-1.82812,-5.26172)">
        <g transform="matrix(1,0,0,1,-360,-26)">
            <g>
                <g transform="matrix(1,0,0,1,360.813,59.04)">
                    <g transform="matrix(1,0,0,1,63.385,0)">
                        <g transform="matrix(1,0,0,1,-16.27,-22.678)">
                            <path d="M17.352,33.983C17.9,34.954 18.942,35.546 20.057,35.519C21.114,35.626 22.075,34.855 22.2,33.8C22.2,31.233 16.666,33.031 16.666,29.475C16.666,27.675 18.322,26.788 19.858,26.788C21.205,26.664 22.503,27.357 23.149,28.546L22.058,29.192C21.663,28.347 20.789,27.826 19.858,27.879C18.986,27.879 17.877,28.405 17.877,29.379C17.877,31.898 23.405,29.938 23.405,33.716C23.405,35.634 21.805,36.605 20.03,36.605C18.525,36.712 17.079,35.98 16.273,34.705L17.352,33.983Z" style="fill:rgb(100,100,99);fill-rule:nonzero;"/>
                        </g>
                        <g transform="matrix(1,0,0,1,-35.197,-22.678)">
                            <path d="M52.1,34.611C51.189,35.868 49.728,36.615 48.175,36.615C45.517,36.615 43.329,34.427 43.329,31.769C43.329,31.739 43.329,31.71 43.33,31.68C43.325,31.595 43.323,31.511 43.323,31.426C43.323,28.883 45.416,26.79 47.959,26.79C47.971,26.79 47.983,26.79 47.995,26.79C48.042,26.788 48.089,26.788 48.137,26.788C50.465,26.788 52.382,28.704 52.382,31.033C52.382,31.073 52.381,31.114 52.38,31.154L52.38,32L44.541,32C44.541,32.011 44.541,32.022 44.541,32.033C44.541,33.943 46.112,35.514 48.022,35.514C48.04,35.514 48.058,35.514 48.076,35.514C49.33,35.521 50.508,34.899 51.208,33.858L52.1,34.611ZM51.171,30.911C51.113,29.193 49.655,27.826 47.937,27.878C46.215,27.899 44.758,29.202 44.544,30.911L51.171,30.911Z" style="fill:rgb(100,100,99);fill-rule:nonzero;"/>
                        </g>
                        <g transform="matrix(1,0,0,1,-58.984,-22.678)">
                            <path d="M85.684,34.993C84.849,36.031 83.58,36.628 82.248,36.61C82.189,36.612 82.129,36.613 82.07,36.613C79.473,36.613 77.337,34.477 77.337,31.88C77.337,31.82 77.338,31.76 77.34,31.7C77.338,31.64 77.337,31.58 77.337,31.521C77.337,28.923 79.474,26.786 82.072,26.786C82.13,26.786 82.189,26.787 82.248,26.789C83.586,26.793 84.858,27.385 85.723,28.406L84.752,29.133C84.135,28.376 83.221,27.919 82.245,27.88C82.216,27.879 82.188,27.879 82.159,27.879C80.174,27.879 78.539,29.513 78.539,31.499C78.539,31.566 78.541,31.633 78.545,31.7C78.541,31.767 78.539,31.834 78.539,31.901C78.539,33.885 80.172,35.518 82.156,35.518C82.186,35.518 82.215,35.518 82.245,35.517C83.233,35.489 84.156,35.013 84.752,34.225L85.684,34.993Z" style="fill:rgb(100,100,99);fill-rule:nonzero;"/>
                        </g>
                        <g transform="matrix(1,0,0,1,-80.254,-23.245)">
                            <path d="M115.742,34.309C115.742,34.994 115.842,36.449 115.842,36.933L114.642,36.933C114.621,36.248 114.6,35.478 114.561,35.298L114.501,35.298C113.885,36.481 112.643,37.213 111.309,37.177C108.399,37.177 107.753,35.196 107.753,33.155L107.753,27.6L108.953,27.6L108.953,33.094C108.953,34.594 109.377,36.085 111.297,36.085C113.097,36.085 114.528,34.832 114.528,32.268L114.528,27.6L115.728,27.6L115.742,34.309Z" style="fill:rgb(100,100,99);fill-rule:nonzero;"/>
                        </g>
                        <g transform="matrix(1,0,0,1,-103.076,-22.678)">
                            <path d="M140.482,29.66C140.482,28.972 140.382,27.517 140.382,27.033L141.582,27.033C141.6,27.721 141.621,28.488 141.663,28.668C142.211,27.527 143.367,26.796 144.633,26.789C144.872,26.793 145.109,26.827 145.339,26.889L145.198,28.089C145.048,28.039 144.89,28.012 144.732,28.011C142.632,28.011 141.681,29.466 141.681,31.284L141.681,36.361L140.481,36.361L140.482,29.66Z" style="fill:rgb(100,100,99);fill-rule:nonzero;"/>
                        </g>
                        <g transform="matrix(1,0,0,1,-113.511,-22.678)">
                            <path d="M164.071,34.611C163.16,35.867 161.699,36.612 160.147,36.612C157.488,36.612 155.299,34.423 155.299,31.764C155.299,31.736 155.3,31.708 155.3,31.68C155.295,31.596 155.293,31.513 155.293,31.429C155.293,28.884 157.387,26.79 159.932,26.79C159.944,26.79 159.956,26.79 159.968,26.79C160.015,26.788 160.062,26.788 160.11,26.788C162.438,26.788 164.355,28.704 164.355,31.033C164.355,31.073 164.354,31.114 164.353,31.154L164.353,32L156.514,32C156.514,32.011 156.514,32.022 156.514,32.033C156.514,33.943 158.085,35.514 159.995,35.514C160.013,35.514 160.031,35.514 160.049,35.514C161.303,35.521 162.48,34.898 163.181,33.858L164.071,34.611ZM163.139,30.911C163.082,29.194 161.625,27.827 159.908,27.878C158.186,27.898 156.727,29.202 156.515,30.911L163.139,30.911Z" style="fill:rgb(100,100,99);fill-rule:nonzero;"/>
                        </g>
                        <g transform="matrix(1,0,0,1,-181.845,-13.11)">
                            <path d="M260.514,13.11C257.477,13.119 254.644,14.669 253,17.222C254.661,20.247 254.661,23.921 253,26.946C254.649,29.514 257.499,31.07 260.551,31.07C265.475,31.07 269.526,27.019 269.526,22.095C269.526,17.171 265.475,13.12 260.551,13.12C260.548,13.12 260.544,13.12 260.541,13.12L260.514,13.11Z" style="fill:rgb(194,23,28);fill-rule:nonzero;"/>
                        </g>
                        <g transform="matrix(1,0,0,1,-192.673,-23.441)">
                            <path d="M274.648,35.818L274.648,37.234L268.48,37.234L268.48,35.581L272.057,32.124C272.567,31.75 272.909,31.189 273.007,30.564C272.991,29.898 272.438,29.359 271.772,29.359C271.737,29.359 271.702,29.361 271.667,29.364C270.942,29.337 270.315,29.891 270.251,30.614L268.613,30.482C268.703,29.022 269.93,27.868 271.393,27.868C271.484,27.868 271.576,27.873 271.667,27.882C273.329,27.882 274.646,28.727 274.646,30.497C274.6,31.564 274.08,32.556 273.23,33.202L270.381,35.841L274.648,35.818Z" style="fill:white;fill-rule:nonzero;"/>
                        </g>
                        <g transform="matrix(1,0,0,1,-140.271,-13.11)">
                            <path d="M202.538,13.11C202.537,13.11 202.536,13.11 202.535,13.11C197.611,13.11 193.56,17.161 193.56,22.085C193.56,27.009 197.611,31.06 202.535,31.06C207.455,31.06 211.505,27.014 211.51,22.094C211.51,22.091 211.51,22.088 211.51,22.085C211.51,17.163 207.46,13.112 202.538,13.11Z" style="fill:rgb(194,23,28);fill-rule:nonzero;"/>
                        </g>
                        <g transform="matrix(1,0,0,1,-130.005,-10.463)">
                            <path d="M198.649,14.96L195.971,24.17L194.408,24.17L192.277,17.158L192.25,17.158L190.116,24.17L188.607,24.17L185.89,14.96L187.684,14.96L189.415,21.594L189.439,21.594L191.507,14.96L193.121,14.96L195.15,21.594L195.177,21.594L196.983,14.96L198.649,14.96Z" style="fill:white;fill-rule:nonzero;"/>
                        </g>
                    </g>
                    <g transform="matrix(0.932665,0,0,0.932665,2.2475,12.2953)">
                        <g>
                            <g transform="matrix(10,0,0,10,0,0)">
                                <path d="M0.15,-0.29L0.15,-0L0.09,-0L0.09,-0.711L0.332,-0.711C0.406,-0.711 0.464,-0.692 0.507,-0.654C0.55,-0.617 0.571,-0.565 0.571,-0.499C0.571,-0.432 0.551,-0.38 0.51,-0.344C0.468,-0.308 0.409,-0.29 0.331,-0.29L0.15,-0.29ZM0.15,-0.34L0.332,-0.34C0.39,-0.34 0.435,-0.354 0.465,-0.382C0.496,-0.41 0.511,-0.448 0.511,-0.498C0.511,-0.547 0.496,-0.586 0.466,-0.615C0.435,-0.644 0.392,-0.659 0.336,-0.66L0.15,-0.66L0.15,-0.34Z" style="fill:rgb(100,100,99);fill-rule:nonzero;"/>
                            </g>
                            <g transform="matrix(10,0,0,10,6.15723,0)">
                                <path d="M0.615,-0.317C0.615,-0.251 0.604,-0.194 0.581,-0.145C0.559,-0.095 0.526,-0.057 0.484,-0.03C0.442,-0.004 0.394,0.01 0.339,0.01C0.256,0.01 0.189,-0.02 0.138,-0.079C0.087,-0.139 0.061,-0.219 0.061,-0.32L0.061,-0.393C0.061,-0.458 0.073,-0.515 0.095,-0.565C0.118,-0.615 0.151,-0.654 0.193,-0.68C0.235,-0.707 0.283,-0.721 0.338,-0.721C0.393,-0.721 0.441,-0.708 0.483,-0.681C0.524,-0.655 0.557,-0.618 0.58,-0.569C0.602,-0.521 0.614,-0.465 0.615,-0.402L0.615,-0.317ZM0.555,-0.394C0.555,-0.48 0.536,-0.547 0.497,-0.595C0.458,-0.644 0.405,-0.668 0.338,-0.668C0.272,-0.668 0.219,-0.644 0.18,-0.595C0.141,-0.546 0.121,-0.478 0.121,-0.391L0.121,-0.317C0.121,-0.233 0.141,-0.166 0.18,-0.116C0.219,-0.067 0.272,-0.042 0.339,-0.042C0.407,-0.042 0.46,-0.067 0.498,-0.115C0.536,-0.164 0.555,-0.232 0.555,-0.319L0.555,-0.394Z" style="fill:rgb(100,100,99);fill-rule:nonzero;"/>
                            </g>
                            <g transform="matrix(10,0,0,10,12.9248,0)">
                                <path d="M0.221,-0.192L0.243,-0.082L0.27,-0.187L0.424,-0.711L0.479,-0.711L0.631,-0.187L0.657,-0.081L0.681,-0.192L0.809,-0.711L0.871,-0.711L0.688,-0L0.631,-0L0.47,-0.556L0.452,-0.626L0.434,-0.556L0.269,-0L0.211,-0L0.03,-0.711L0.091,-0.711L0.221,-0.192Z" style="fill:rgb(100,100,99);fill-rule:nonzero;"/>
                            </g>
                            <g transform="matrix(10,0,0,10,21.8896,0)">
                                <path d="M0.482,-0.341L0.15,-0.341L0.15,-0.051L0.532,-0.051L0.532,-0L0.09,-0L0.09,-0.711L0.53,-0.711L0.53,-0.66L0.15,-0.66L0.15,-0.392L0.482,-0.392L0.482,-0.341Z" style="fill:rgb(100,100,99);fill-rule:nonzero;"/>
                            </g>
                            <g transform="matrix(10,0,0,10,27.5781,0)">
                                <path d="M0.355,-0.296L0.149,-0.296L0.149,-0L0.088,-0L0.088,-0.711L0.319,-0.711C0.395,-0.711 0.454,-0.693 0.497,-0.656C0.54,-0.619 0.561,-0.568 0.561,-0.501C0.561,-0.456 0.548,-0.416 0.521,-0.381C0.494,-0.346 0.458,-0.322 0.414,-0.309L0.591,-0.006L0.591,-0L0.527,-0L0.355,-0.296ZM0.149,-0.347L0.333,-0.347C0.383,-0.347 0.424,-0.361 0.455,-0.39C0.485,-0.419 0.5,-0.456 0.5,-0.501C0.5,-0.552 0.485,-0.59 0.453,-0.618C0.421,-0.646 0.376,-0.66 0.318,-0.66L0.149,-0.66L0.149,-0.347Z" style="fill:rgb(100,100,99);fill-rule:nonzero;"/>
                            </g>
                            <g transform="matrix(10,0,0,10,33.9258,0)">
                                <path d="M0.482,-0.341L0.15,-0.341L0.15,-0.051L0.532,-0.051L0.532,-0L0.09,-0L0.09,-0.711L0.53,-0.711L0.53,-0.66L0.15,-0.66L0.15,-0.392L0.482,-0.392L0.482,-0.341Z" style="fill:rgb(100,100,99);fill-rule:nonzero;"/>
                            </g>
                            <g transform="matrix(10,0,0,10,39.6143,0)">
                                <path d="M0.09,-0L0.09,-0.711L0.289,-0.711C0.347,-0.711 0.399,-0.698 0.445,-0.671C0.492,-0.645 0.528,-0.607 0.553,-0.557C0.579,-0.508 0.592,-0.451 0.592,-0.388L0.592,-0.323C0.592,-0.259 0.579,-0.203 0.554,-0.154C0.528,-0.105 0.492,-0.067 0.445,-0.04C0.398,-0.013 0.345,-0 0.284,-0L0.09,-0ZM0.15,-0.66L0.15,-0.051L0.285,-0.051C0.36,-0.051 0.42,-0.076 0.465,-0.125C0.51,-0.175 0.533,-0.242 0.533,-0.327L0.533,-0.389C0.533,-0.471 0.51,-0.536 0.466,-0.585C0.421,-0.635 0.362,-0.659 0.29,-0.66L0.15,-0.66Z" style="fill:rgb(100,100,99);fill-rule:nonzero;"/>
                            </g>
                            <g transform="matrix(10,0,0,10,48.5938,0)">
                                <path d="M0.09,-0L0.09,-0.711L0.3,-0.711C0.376,-0.711 0.434,-0.695 0.473,-0.664C0.513,-0.632 0.532,-0.586 0.532,-0.525C0.532,-0.488 0.522,-0.456 0.502,-0.429C0.482,-0.402 0.455,-0.382 0.42,-0.371C0.461,-0.361 0.495,-0.341 0.52,-0.31C0.545,-0.278 0.558,-0.242 0.558,-0.2C0.558,-0.137 0.537,-0.088 0.497,-0.053C0.456,-0.018 0.4,-0 0.328,-0L0.09,-0ZM0.15,-0.342L0.15,-0.051L0.33,-0.051C0.382,-0.051 0.422,-0.064 0.452,-0.09C0.483,-0.116 0.498,-0.153 0.498,-0.199C0.498,-0.243 0.483,-0.278 0.454,-0.303C0.426,-0.329 0.386,-0.342 0.335,-0.342L0.15,-0.342ZM0.15,-0.392L0.314,-0.392C0.364,-0.393 0.403,-0.405 0.43,-0.427C0.458,-0.45 0.472,-0.483 0.472,-0.526C0.472,-0.572 0.457,-0.606 0.429,-0.627C0.4,-0.649 0.357,-0.66 0.3,-0.66L0.15,-0.66L0.15,-0.392Z" style="fill:rgb(100,100,99);fill-rule:nonzero;"/>
                            </g>
                            <g transform="matrix(10,0,0,10,54.4531,0)">
                                <path d="M0.298,-0.323L0.516,-0.711L0.585,-0.711L0.328,-0.268L0.328,-0L0.268,-0L0.268,-0.268L0.012,-0.711L0.083,-0.711L0.298,-0.323Z" style="fill:rgb(100,100,99);fill-rule:nonzero;"/>
                            </g>
                        </g>
                    </g>
                </g>
                <g transform="matrix(1,0,0,1,360,50)">
                    <g>
                        <g transform="matrix(26,0,0,26,0,0)">
                            <path d="M0.581,-0.218C0.574,-0.145 0.549,-0.088 0.505,-0.049C0.462,-0.01 0.403,0.01 0.328,0.01C0.277,0.01 0.233,-0.003 0.194,-0.029C0.155,-0.054 0.125,-0.09 0.103,-0.137C0.082,-0.184 0.071,-0.238 0.07,-0.299L0.07,-0.409C0.07,-0.469 0.081,-0.523 0.102,-0.571C0.123,-0.619 0.153,-0.656 0.193,-0.682C0.232,-0.708 0.277,-0.721 0.328,-0.721C0.402,-0.721 0.461,-0.701 0.505,-0.662C0.549,-0.623 0.574,-0.567 0.581,-0.494L0.555,-0.494C0.547,-0.56 0.524,-0.609 0.486,-0.643C0.448,-0.677 0.395,-0.694 0.328,-0.694C0.259,-0.694 0.203,-0.668 0.16,-0.616C0.118,-0.564 0.097,-0.494 0.097,-0.407L0.097,-0.302C0.097,-0.246 0.106,-0.197 0.125,-0.154C0.144,-0.11 0.171,-0.077 0.206,-0.053C0.242,-0.029 0.282,-0.017 0.328,-0.017C0.396,-0.017 0.449,-0.033 0.487,-0.067C0.525,-0.1 0.548,-0.151 0.555,-0.218L0.581,-0.218Z" style="fill:rgb(194,23,28);fill-rule:nonzero;"/>
                        </g>
                        <g transform="matrix(26,0,0,26,16.8467,0)">
                            <path d="M0.125,-0.026L0.489,-0.026L0.489,-0L0.098,-0L0.098,-0.711L0.125,-0.711L0.125,-0.026Z" style="fill:rgb(194,23,28);fill-rule:nonzero;"/>
                        </g>
                        <g transform="matrix(26,0,0,26,29.4404,0)">
                            <path d="M0.601,-0.302C0.601,-0.241 0.59,-0.186 0.568,-0.139C0.546,-0.092 0.515,-0.055 0.474,-0.029C0.433,-0.003 0.387,0.01 0.333,0.01C0.253,0.01 0.189,-0.019 0.139,-0.076C0.09,-0.133 0.065,-0.209 0.065,-0.306L0.065,-0.409C0.065,-0.47 0.076,-0.524 0.098,-0.572C0.12,-0.619 0.151,-0.656 0.192,-0.682C0.233,-0.708 0.28,-0.721 0.333,-0.721C0.386,-0.721 0.433,-0.708 0.473,-0.682C0.514,-0.656 0.546,-0.619 0.568,-0.572C0.59,-0.524 0.601,-0.47 0.601,-0.409L0.601,-0.302ZM0.575,-0.41C0.575,-0.496 0.553,-0.565 0.509,-0.616C0.466,-0.668 0.407,-0.694 0.333,-0.694C0.259,-0.694 0.201,-0.669 0.157,-0.617C0.114,-0.565 0.092,-0.495 0.092,-0.406L0.092,-0.302C0.092,-0.246 0.102,-0.196 0.121,-0.152C0.141,-0.109 0.169,-0.075 0.206,-0.052C0.242,-0.028 0.285,-0.017 0.333,-0.017C0.408,-0.017 0.466,-0.042 0.51,-0.094C0.553,-0.146 0.575,-0.217 0.575,-0.306L0.575,-0.41Z" style="fill:rgb(194,23,28);fill-rule:nonzero;"/>
                        </g>
                        <g transform="matrix(26,0,0,26,46.7568,0)">
                            <path d="M0.576,-0.711L0.576,-0.229C0.576,-0.154 0.554,-0.096 0.511,-0.053C0.467,-0.011 0.408,0.01 0.333,0.01C0.259,0.01 0.2,-0.011 0.156,-0.053C0.113,-0.096 0.091,-0.154 0.09,-0.228L0.09,-0.711L0.117,-0.711L0.117,-0.23C0.117,-0.165 0.136,-0.113 0.176,-0.074C0.216,-0.036 0.268,-0.017 0.333,-0.017C0.399,-0.017 0.451,-0.036 0.491,-0.074C0.53,-0.113 0.55,-0.165 0.55,-0.231L0.55,-0.711L0.576,-0.711Z" style="fill:rgb(194,23,28);fill-rule:nonzero;"/>
                        </g>
                        <g transform="matrix(26,0,0,26,64.0859,0)">
                            <path d="M0.098,-0L0.098,-0.711L0.294,-0.711C0.349,-0.711 0.399,-0.698 0.444,-0.672C0.488,-0.646 0.523,-0.609 0.549,-0.562C0.574,-0.515 0.587,-0.463 0.588,-0.404L0.588,-0.312C0.588,-0.253 0.575,-0.199 0.551,-0.152C0.526,-0.104 0.491,-0.067 0.446,-0.041C0.402,-0.014 0.352,-0 0.297,-0L0.098,-0ZM0.124,-0.685L0.124,-0.026L0.294,-0.026C0.344,-0.026 0.39,-0.038 0.43,-0.063C0.471,-0.087 0.503,-0.121 0.526,-0.164C0.549,-0.208 0.561,-0.256 0.562,-0.309L0.562,-0.4C0.562,-0.453 0.55,-0.502 0.528,-0.545C0.505,-0.588 0.473,-0.622 0.433,-0.647C0.392,-0.671 0.347,-0.684 0.298,-0.685L0.124,-0.685Z" style="fill:rgb(194,23,28);fill-rule:nonzero;"/>
                        </g>
                    </g>
                    <g transform="matrix(1,0,0,1,80,0)">
                        <g transform="matrix(26,0,0,26,0,0)">
                            <path d="M0.355,-0.296L0.149,-0.296L0.149,-0L0.088,-0L0.088,-0.711L0.319,-0.711C0.395,-0.711 0.454,-0.693 0.497,-0.656C0.54,-0.619 0.561,-0.568 0.561,-0.501C0.561,-0.456 0.548,-0.416 0.521,-0.381C0.494,-0.346 0.458,-0.322 0.414,-0.309L0.591,-0.006L0.591,-0L0.527,-0L0.355,-0.296ZM0.149,-0.347L0.333,-0.347C0.383,-0.347 0.424,-0.361 0.455,-0.39C0.485,-0.419 0.5,-0.456 0.5,-0.501C0.5,-0.552 0.485,-0.59 0.453,-0.618C0.421,-0.646 0.376,-0.66 0.318,-0.66L0.149,-0.66L0.149,-0.347Z" style="fill:rgb(194,23,28);fill-rule:nonzero;"/>
                        </g>
                        <g transform="matrix(26,0,0,26,16.5039,0)">
                            <path d="M0.474,-0.199L0.151,-0.199L0.078,-0L0.015,-0L0.284,-0.711L0.341,-0.711L0.61,-0L0.547,-0L0.474,-0.199ZM0.169,-0.25L0.455,-0.25L0.312,-0.638L0.169,-0.25Z" style="fill:rgb(194,23,28);fill-rule:nonzero;"/>
                        </g>
                        <g transform="matrix(26,0,0,26,32.7412,0)">
                            <path d="M0.09,-0L0.09,-0.711L0.289,-0.711C0.347,-0.711 0.399,-0.698 0.445,-0.671C0.492,-0.645 0.528,-0.607 0.553,-0.557C0.579,-0.508 0.592,-0.451 0.592,-0.388L0.592,-0.323C0.592,-0.259 0.579,-0.203 0.554,-0.154C0.528,-0.105 0.492,-0.067 0.445,-0.04C0.398,-0.013 0.345,-0 0.284,-0L0.09,-0ZM0.15,-0.66L0.15,-0.051L0.285,-0.051C0.36,-0.051 0.42,-0.076 0.465,-0.125C0.51,-0.175 0.533,-0.242 0.533,-0.327L0.533,-0.389C0.533,-0.471 0.51,-0.536 0.466,-0.585C0.421,-0.635 0.362,-0.659 0.29,-0.66L0.15,-0.66Z" style="fill:rgb(194,23,28);fill-rule:nonzero;"/>
                        </g>
                        <g transform="matrix(26,0,0,26,49.7656,0)">
                            <rect x="0.103" y="-0.711" width="0.06" height="0.711" style="fill:rgb(194,23,28);fill-rule:nonzero;"/>
                        </g>
                        <g transform="matrix(26,0,0,26,56.6846,0)">
                            <path d="M0.58,-0.711L0.58,-0.226C0.579,-0.178 0.569,-0.136 0.548,-0.101C0.527,-0.065 0.498,-0.038 0.46,-0.019C0.422,0 0.378,0.01 0.329,0.01C0.254,0.01 0.194,-0.011 0.149,-0.052C0.104,-0.092 0.081,-0.149 0.079,-0.221L0.079,-0.711L0.139,-0.711L0.139,-0.23C0.139,-0.17 0.156,-0.124 0.19,-0.091C0.224,-0.058 0.271,-0.041 0.329,-0.041C0.388,-0.041 0.434,-0.058 0.468,-0.091C0.502,-0.124 0.519,-0.17 0.519,-0.229L0.519,-0.711L0.58,-0.711Z" style="fill:rgb(194,23,28);fill-rule:nonzero;"/>
                        </g>
                        <g transform="matrix(26,0,0,26,73.7725,0)">
                            <path d="M0.492,-0.175C0.492,-0.214 0.478,-0.245 0.451,-0.268C0.423,-0.291 0.372,-0.313 0.299,-0.334C0.225,-0.354 0.172,-0.377 0.138,-0.401C0.09,-0.436 0.065,-0.481 0.065,-0.537C0.065,-0.591 0.088,-0.636 0.133,-0.67C0.177,-0.704 0.235,-0.721 0.304,-0.721C0.351,-0.721 0.394,-0.712 0.431,-0.693C0.468,-0.675 0.497,-0.65 0.518,-0.617C0.538,-0.585 0.548,-0.548 0.548,-0.508L0.488,-0.508C0.488,-0.557 0.471,-0.596 0.438,-0.625C0.405,-0.655 0.36,-0.669 0.304,-0.669C0.25,-0.669 0.207,-0.657 0.174,-0.633C0.142,-0.609 0.126,-0.577 0.126,-0.538C0.126,-0.502 0.14,-0.472 0.169,-0.45C0.198,-0.427 0.245,-0.407 0.309,-0.389C0.372,-0.372 0.421,-0.354 0.454,-0.335C0.486,-0.316 0.511,-0.294 0.528,-0.268C0.544,-0.242 0.553,-0.211 0.553,-0.176C0.553,-0.12 0.53,-0.075 0.486,-0.041C0.441,-0.007 0.382,0.01 0.309,0.01C0.258,0.01 0.212,0.001 0.171,-0.017C0.129,-0.035 0.097,-0.06 0.075,-0.092C0.054,-0.125 0.043,-0.161 0.043,-0.203L0.103,-0.203C0.103,-0.153 0.122,-0.113 0.159,-0.084C0.197,-0.056 0.246,-0.041 0.309,-0.041C0.364,-0.041 0.408,-0.053 0.442,-0.078C0.475,-0.102 0.492,-0.134 0.492,-0.175Z" style="fill:rgb(194,23,28);fill-rule:nonzero;"/>
                        </g>
                    </g>
                </g>
            </g>
        </g>
    </g>
</svg>
