<svg id="Layer_1" data-name="Layer 1" xmlns="http://www.w3.org/2000/svg" viewBox="0 0 291.59 86.95"><defs><style>.cls-1{fill:#646463;}.cls-2{fill:#c2171c;}.cls-3{fill:#fff;}</style></defs><title>SecureW2-Logo</title><path class="cls-1" d="M19.87,50.72a10.05,10.05,0,0,0,9,5.11c3.49,0,7.12-2.15,7.12-5.71,0-8.54-18.41-2.56-18.41-14.39,0-6,5.51-8.94,10.62-8.94s8.93,1.89,10.95,5.85l-3.63,2.15a7.6,7.6,0,0,0-7.32-4.37c-2.9,0-6.59,1.75-6.59,5C21.62,43.8,40,37.28,40,49.85c0,6.38-5.32,9.61-11.23,9.61-5.31,0-10.08-2-12.5-6.32Z" transform="translate(-16.31 -13.11)"/><path class="cls-1" d="M72.5,52.81c-3.16,4.7-7.93,6.65-13.44,6.65-9.48,0-15.73-6.79-15.73-16.4,0-9.28,6.45-16.27,15.52-16.27,9.55,0,14.59,7.33,14.59,14.52v2.83H47.36c0,3.36,2.35,11.69,11.76,11.69,4.1,0,8.41-2.15,10.42-5.51Zm-3.09-12.3c0-5.52-4.78-10.09-10.76-10.09-8.8,0-11.29,8.47-11.29,10.09Z" transform="translate(-16.31 -13.11)"/><path class="cls-1" d="M105.1,54.08a14.42,14.42,0,0,1-11.43,5.38c-9.54,0-16.33-6.86-16.33-16.33s6.79-16.34,16.33-16.34a15.21,15.21,0,0,1,11.56,5.38L102,34.59c-2.36-2.55-5.11-4.17-8.34-4.17-7.59,0-12.3,5.72-12.3,12.71s4.71,12.7,12.3,12.7a10.84,10.84,0,0,0,8.34-4.3Z" transform="translate(-16.31 -13.11)"/><path class="cls-1" d="M134.34,49.92c0,2.28.33,7.12.33,8.73h-4c-.07-2.28-.14-4.84-.27-5.44h-.2a11.62,11.62,0,0,1-10.62,6.25c-9.68,0-11.83-6.59-11.83-13.38V27.6h4V45.88c0,5,1.41,9.95,7.8,9.95,6,0,10.75-4.17,10.75-12.7V27.6h4Z" transform="translate(-16.31 -13.11)"/><path class="cls-1" d="M140.72,36.34c0-2.29-.34-7.13-.34-8.74h4c.06,2.29.13,4.84.27,5.44,2-3.62,5.24-6.25,9.88-6.25a9.6,9.6,0,0,1,2.35.34l-.47,4a5,5,0,0,0-1.55-.26c-7,0-10.15,4.84-10.15,10.89V58.65h-4Z" transform="translate(-16.31 -13.11)"/><path class="cls-1" d="M184.48,52.81c-3.16,4.7-7.94,6.65-13.45,6.65-9.47,0-15.73-6.79-15.73-16.4,0-9.28,6.46-16.27,15.53-16.27,9.55,0,14.59,7.33,14.59,14.52v2.83H159.34c0,3.36,2.35,11.69,11.76,11.69,4.1,0,8.4-2.15,10.42-5.51Zm-3.1-12.3c0-5.52-4.77-10.09-10.75-10.09-8.81,0-11.29,8.47-11.29,10.09Z" transform="translate(-16.31 -13.11)"/><path class="cls-2" d="M278,13.11A29.84,29.84,0,0,0,253,26.79a33.6,33.6,0,0,1,0,32.35,29.86,29.86,0,1,0,25.09-46Z" transform="translate(-16.31 -13.11)"/><path class="cls-3" d="M289,54.29V59H268.48v-5.5L280.38,42c1.43-1.38,3.16-3.07,3.16-5.19,0-2.51-2.08-4-4.46-4a4.56,4.56,0,0,0-4.71,4.16l-5.45-.44c.51-5.66,4.63-8.65,10.16-8.65s9.91,2.81,9.91,8.7c0,3.85-2,6.49-4.71,9l-9.48,8.78Z" transform="translate(-16.31 -13.11)"/><path class="cls-2" d="M223.43,13.11A29.86,29.86,0,1,0,253.28,43,29.86,29.86,0,0,0,223.43,13.11Z" transform="translate(-16.31 -13.11)"/><polygon class="cls-3" points="228.34 14.96 219.43 45.6 214.23 45.6 207.14 22.27 207.05 22.27 199.95 45.6 194.93 45.6 185.89 14.96 191.86 14.96 197.62 37.03 197.7 37.03 204.58 14.96 209.95 14.96 216.7 37.03 216.79 37.03 222.8 14.96 228.34 14.96"/><path class="cls-1" d="M26.51,95.31H24.67q0-1.43,0-5.13a2.06,2.06,0,0,0-.57-1.1A2.31,2.31,0,0,0,23,88.41a4.19,4.19,0,0,0-.5,0A5.19,5.19,0,0,0,20.3,89a.2.2,0,0,0-.09.09v6.18c0,.05,0,.07-.06.07H18.52a.07.07,0,0,1-.06-.07l0-8.35h1.63a.24.24,0,0,1,.08.19q0,.18,0,.21a1.06,1.06,0,0,0,.42-.16L21,87a5.57,5.57,0,0,1,1.64-.25,4.36,4.36,0,0,1,2.13.52,2.91,2.91,0,0,1,1.42,1.61,5.37,5.37,0,0,1,.32,1.48,23.72,23.72,0,0,1,0,2.49C26.53,94.53,26.51,95.36,26.51,95.31Z" transform="translate(-16.31 -13.11)"/><path class="cls-1" d="M36.2,91.38l-.15.13c-2.42,0-4.42,0-6,0a2,2,0,0,0,.38,1.24,2.6,2.6,0,0,0,2.39,1.08,4.23,4.23,0,0,0,.7-.06,5.56,5.56,0,0,0,2.55-1.21l.1,0v1.8a6.11,6.11,0,0,1-3.59,1.07,4.41,4.41,0,0,1-2-.42,4.15,4.15,0,0,1-1.68-1.58,4.3,4.3,0,0,1-.68-2.32,4.37,4.37,0,0,1,.84-2.52A4,4,0,0,1,31.13,87a4.51,4.51,0,0,1,1.37-.21,3.3,3.3,0,0,1,2.91,1.43A5.19,5.19,0,0,1,36.2,91.38Zm-1.82-1.31a1.23,1.23,0,0,0-.32-.8,2.47,2.47,0,0,0-.69-.63,2.24,2.24,0,0,0-1-.24,2.56,2.56,0,0,0-1.41.41,1.64,1.64,0,0,0-.8,1.26Z" transform="translate(-16.31 -13.11)"/><path class="cls-1" d="M45.7,95.31H43.48l-2-2.92h-.1l-2,2.92h-2c-.05,0,0-.06,0-.17l2.87-4.24v-.13L37.48,87s0-.08,0-.12h2.09l1.86,2.4h.06l1.61-2.4H45c.05,0,.06.06,0,.1l-2.53,3.89Z" transform="translate(-16.31 -13.11)"/><path class="cls-1" d="M53.06,88.62l-.08.06h-3.1l-.09.08v3.87a1.1,1.1,0,0,0,.57,1,1.79,1.79,0,0,0,.84.19,5,5,0,0,0,1.86-.55v1.61a3.7,3.7,0,0,1-2,.54,4.24,4.24,0,0,1-1.5-.27c-1-.38-1.58-1.32-1.58-2.83V88.68H46.58l-.12-.09V86.93q.48,0,1.47,0s.06,0,.07-.07v-2a.25.25,0,0,0,0-.09h1.75s0,.06,0,.07,0,.71,0,2.09h3.27Z" transform="translate(-16.31 -13.11)"/><path class="cls-1" d="M60.22,92l0,0h-5.7c-.06,0-.09,0-.09-.13V90.3l.07-.06,5.76,0Z" transform="translate(-16.31 -13.11)"/><path class="cls-1" d="M69.49,88.6c0,.06,0,.08-.07.08h-.94A4.43,4.43,0,0,1,68.69,90a2.93,2.93,0,0,1-.93,2.32,3.6,3.6,0,0,1-2.45.85A3.94,3.94,0,0,1,64.06,93a1.6,1.6,0,0,0-.23.38.23.23,0,0,0,0,.14l.19.2,3.17.88a3.19,3.19,0,0,1,2.24,2.15,2.47,2.47,0,0,1,.08.6,2.06,2.06,0,0,1-.61,1.54,4.8,4.8,0,0,1-3.55,1.16c-.41,0-.88,0-1.43-.07a3.16,3.16,0,0,1-2.81-1.6,1.94,1.94,0,0,1-.17-.82,2.61,2.61,0,0,1,.32-1.25,4.56,4.56,0,0,1,1.5-1.5,4.34,4.34,0,0,1-.4-.36,1.67,1.67,0,0,1-.26-.46,2.45,2.45,0,0,1,0-.27,1.89,1.89,0,0,1,.78-1.44,2.88,2.88,0,0,1-1.08-2.37A3.57,3.57,0,0,1,62,88.81a3,3,0,0,1,1.16-1.58,3.23,3.23,0,0,1,1.82-.7,6.2,6.2,0,0,1,2.28.36h2.18a.05.05,0,0,1,.06.06Zm-1.77,9.12a.74.74,0,0,0,0-.92A2.56,2.56,0,0,0,66.38,96c-.51-.12-1.21-.31-2.09-.55-1,.67-1.51,1.31-1.51,1.92s.66,1.05,2,1.12c.27,0,.5,0,.69,0C66.59,98.52,67.36,98.26,67.72,97.72ZM66.79,89a1.68,1.68,0,0,0-1.5-.73,1.75,1.75,0,0,0-1,.27,1.59,1.59,0,0,0-.81,1.44,2.83,2.83,0,0,0,.05.5,1.33,1.33,0,0,0,.69.8,2,2,0,0,0,1,.28,1.74,1.74,0,0,0,1.45-.72,1.52,1.52,0,0,0,.3-1A1.46,1.46,0,0,0,66.79,89Z" transform="translate(-16.31 -13.11)"/><path class="cls-1" d="M78.67,91.38l-.15.13c-2.42,0-4.42,0-6,0a2.06,2.06,0,0,0,.38,1.24,2.62,2.62,0,0,0,2.4,1.08,4.32,4.32,0,0,0,.7-.06,5.6,5.6,0,0,0,2.55-1.21l.09,0v1.8A6.09,6.09,0,0,1,75,95.43,4.44,4.44,0,0,1,73,95a4.15,4.15,0,0,1-1.68-1.58,4.29,4.29,0,0,1-.67-2.32,4.43,4.43,0,0,1,.83-2.52A4,4,0,0,1,73.6,87,4.49,4.49,0,0,1,75,86.78a3.29,3.29,0,0,1,2.91,1.43A5.19,5.19,0,0,1,78.67,91.38Zm-1.83-1.31a1.18,1.18,0,0,0-.32-.8,2.44,2.44,0,0,0-.68-.63,2.31,2.31,0,0,0-1-.24,2.5,2.5,0,0,0-1.4.41,1.59,1.59,0,0,0-.8,1.26Z" transform="translate(-16.31 -13.11)"/><path class="cls-1" d="M88.63,95.31H86.78q0-1.43,0-5.13a2.06,2.06,0,0,0-.57-1.1,2.31,2.31,0,0,0-1.08-.67,4.19,4.19,0,0,0-.5,0,5.19,5.19,0,0,0-2.22.59.2.2,0,0,0-.09.09v6.18c0,.05,0,.07-.06.07H80.63a.07.07,0,0,1-.06-.07l0-8.35h1.63a.24.24,0,0,1,.08.19q0,.18,0,.21a1.06,1.06,0,0,0,.42-.16l.37-.18a5.57,5.57,0,0,1,1.64-.25,4.36,4.36,0,0,1,2.13.52,2.91,2.91,0,0,1,1.42,1.61,5.75,5.75,0,0,1,.33,1.48c0,.64.06,1.47,0,2.49C88.64,94.53,88.63,95.36,88.63,95.31Z" transform="translate(-16.31 -13.11)"/><path class="cls-1" d="M108.84,86.89l-3.51,8.42h-1.64l-1.75-4.63q-1.65,4.21-1.84,4.63H98.47l-3.42-8.42h1.86l2.37,5.89h0l2-5.51a11.41,11.41,0,0,1,1.33,0l2,5.36,2.26-5.78Z" transform="translate(-16.31 -13.11)"/><path class="cls-1" d="M112.51,85.13l-1.14,1.14h-.1l-1.08-1.1s-.06,0,0-.08L111.31,84s.08,0,.11,0l1.09,1.1ZM112.24,87v8.29c0,.05,0,.07-.06.07h-1.67a.23.23,0,0,1-.07-.07V86.91l.07,0h1.67Z" transform="translate(-16.31 -13.11)"/><path class="cls-1" d="M120.47,89l-.61-.36a2.9,2.9,0,0,0-1.2-.28,2.94,2.94,0,0,0-1.9.8l-.19.19,0,6h-1.68l0-.07V87l0,0s0,0,0,0h1.64l.07,0v.44c.16-.09.4-.22.73-.38a4.49,4.49,0,0,1,1.53-.27,3.37,3.37,0,0,1,1.52.33Z" transform="translate(-16.31 -13.11)"/><path class="cls-1" d="M129.59,91.38l-.15.13c-2.42,0-4.42,0-6,0a2.06,2.06,0,0,0,.38,1.24,2.62,2.62,0,0,0,2.4,1.08,4.32,4.32,0,0,0,.7-.06,5.6,5.6,0,0,0,2.55-1.21l.09,0v1.8A6.09,6.09,0,0,1,126,95.43a4.44,4.44,0,0,1-2-.42,4.15,4.15,0,0,1-1.68-1.58,4.29,4.29,0,0,1-.67-2.32,4.43,4.43,0,0,1,.83-2.52,4,4,0,0,1,2.08-1.6,4.49,4.49,0,0,1,1.36-.21,3.29,3.29,0,0,1,2.91,1.43A5.19,5.19,0,0,1,129.59,91.38Zm-1.83-1.31a1.18,1.18,0,0,0-.32-.8,2.44,2.44,0,0,0-.68-.63,2.31,2.31,0,0,0-1.05-.24,2.5,2.5,0,0,0-1.4.41,1.59,1.59,0,0,0-.8,1.26Z" transform="translate(-16.31 -13.11)"/><path class="cls-1" d="M139.53,95.22l-.06.09h-1.73a2.22,2.22,0,0,0,0-.4s0,0-.08,0a4.15,4.15,0,0,1-2.18.55,4.21,4.21,0,0,1-2.34-.62,4.34,4.34,0,0,1-2-3.86,5.27,5.27,0,0,1,.13-1.18,3.75,3.75,0,0,1,1.09-1.88,3.93,3.93,0,0,1,1.91-1.06,5.66,5.66,0,0,1,1.28-.15,4.51,4.51,0,0,1,2.12.49s.07,0,.1-.1V82.77l.08-.07h1.61l0,0a.06.06,0,0,0,.05,0V95.22Zm-1.79-2.28c0-2.25,0-3.49,0-3.75a3.54,3.54,0,0,0-2.36-.79,2.48,2.48,0,0,0-1.1.22,2.66,2.66,0,0,0-1,.95,2.36,2.36,0,0,0-.4,1.49,2.67,2.67,0,0,0,1.38,2.29,2.64,2.64,0,0,0,1.3.33A3.82,3.82,0,0,0,137.74,92.94Z" transform="translate(-16.31 -13.11)"/><path class="cls-1" d="M158.15,95.2c0,.07-.12.11-.33.11H155.5a11.73,11.73,0,0,0-1.52-1.4,4.21,4.21,0,0,1-3.32,1.63,4,4,0,0,1-2.2-.65,3.72,3.72,0,0,1-1.75-3.19A3.58,3.58,0,0,1,147.85,89a2.57,2.57,0,0,1,1-.57,3.54,3.54,0,0,1-.5-.57,3.45,3.45,0,0,1-.66-2.09,2.8,2.8,0,0,1,.34-1.41,3.19,3.19,0,0,1,2.93-1.77,3.15,3.15,0,0,1,2.71,1.33,3.3,3.3,0,0,1,.61,2A3.21,3.21,0,0,1,154,87a2.65,2.65,0,0,1-.81,1.15,4.2,4.2,0,0,1-1.26.77c0,.06.32.4.87,1s.84.91.95,1a24.44,24.44,0,0,0,1.47-2.3h2.09c.09,0,.08.1,0,.25l-2.2,3.34c.1.11.62.62,1.56,1.56Zm-5.59-2.78c-.1-.06-.92-.94-2.45-2.64a5.93,5.93,0,0,0-.74.5,1.85,1.85,0,0,0-.61,1.42,2,2,0,0,0,.08.55,1.69,1.69,0,0,0,1.25,1.22,1.64,1.64,0,0,0,.53.09A2.5,2.5,0,0,0,152.56,92.42Zm-.34-6.7a1.12,1.12,0,0,0-.19-.63,1.28,1.28,0,0,0-1.1-.57,1.21,1.21,0,0,0-.38.06,1.07,1.07,0,0,0-.88,1.21,2.53,2.53,0,0,0,.86,1.67,2.22,2.22,0,0,0,1.17-.61A1.59,1.59,0,0,0,152.22,85.72Z" transform="translate(-16.31 -13.11)"/><path class="cls-1" d="M178,86.89l-3.51,8.42h-1.64l-1.75-4.63q-1.65,4.21-1.84,4.63h-1.63l-3.42-8.42h1.86l2.37,5.89h0l2-5.51a11.41,11.41,0,0,1,1.33,0l2,5.36,2.26-5.78Z" transform="translate(-16.31 -13.11)"/><path class="cls-1" d="M181.65,85.13l-1.14,1.14h-.1l-1.08-1.1c-.05,0-.06,0,0-.08L180.45,84a.08.08,0,0,1,.12,0l1.08,1.1ZM181.38,87v8.29c0,.05,0,.07,0,.07h-1.68a.23.23,0,0,1-.07-.07V86.91l.07,0h1.68Z" transform="translate(-16.31 -13.11)"/><path class="cls-1" d="M189.61,89l-.61-.36a2.87,2.87,0,0,0-1.2-.28,2.9,2.9,0,0,0-1.89.8l-.2.19-.05,6H184l-.06-.07V87l0,0s0,0,0,0h1.64l.07,0v.44c.16-.09.4-.22.73-.38a4.54,4.54,0,0,1,1.54-.27,3.4,3.4,0,0,1,1.52.33Z" transform="translate(-16.31 -13.11)"/><path class="cls-1" d="M198.73,91.38l-.15.13c-2.42,0-4.42,0-6,0a2.13,2.13,0,0,0,.38,1.24,2.62,2.62,0,0,0,2.4,1.08,4.23,4.23,0,0,0,.7-.06,5.6,5.6,0,0,0,2.55-1.21l.09,0v1.8a6.09,6.09,0,0,1-3.59,1.07,4.36,4.36,0,0,1-2-.42,4.12,4.12,0,0,1-1.69-1.58,4.29,4.29,0,0,1-.67-2.32,4.37,4.37,0,0,1,.84-2.52,4,4,0,0,1,2.07-1.6,4.51,4.51,0,0,1,1.37-.21,3.27,3.27,0,0,1,2.9,1.43A5.19,5.19,0,0,1,198.73,91.38Zm-1.82-1.31a1.25,1.25,0,0,0-.33-.8,1.94,1.94,0,0,0-1.73-.87,2.52,2.52,0,0,0-1.4.41,1.61,1.61,0,0,0-.8,1.26Z" transform="translate(-16.31 -13.11)"/><path class="cls-1" d="M205.32,95.08a3.43,3.43,0,0,1-1.74.46,3.11,3.11,0,0,1-1.94-.63,2.52,2.52,0,0,1-1-2.2V82.85l.1-.08h1.57l.08.06v9.84a1.38,1.38,0,0,0,.28.68,1.09,1.09,0,0,0,.71.5,1.87,1.87,0,0,0,.32,0,2.29,2.29,0,0,0,1.56-.73c.05,0,.07,0,.07.08Z" transform="translate(-16.31 -13.11)"/><path class="cls-1" d="M213.87,91.38l-.15.13c-2.42,0-4.42,0-6,0a2,2,0,0,0,.38,1.24,2.6,2.6,0,0,0,2.39,1.08,4.23,4.23,0,0,0,.7-.06,5.56,5.56,0,0,0,2.55-1.21l.09,0v1.8a6.09,6.09,0,0,1-3.59,1.07,4.39,4.39,0,0,1-2-.42,4.15,4.15,0,0,1-1.68-1.58,4.3,4.3,0,0,1-.68-2.32,4.37,4.37,0,0,1,.84-2.52A4,4,0,0,1,208.8,87a4.51,4.51,0,0,1,1.37-.21,3.3,3.3,0,0,1,2.91,1.43A5.26,5.26,0,0,1,213.87,91.38Zm-1.82-1.31a1.29,1.29,0,0,0-.32-.8,2.47,2.47,0,0,0-.69-.63,2.27,2.27,0,0,0-1-.24,2.56,2.56,0,0,0-1.41.41,1.61,1.61,0,0,0-.8,1.26Z" transform="translate(-16.31 -13.11)"/><path class="cls-1" d="M220.92,95.06a5.3,5.3,0,0,1-2.26.44,6.56,6.56,0,0,1-3.08-.7l-.05-.08V92.94l1.21.47a5.69,5.69,0,0,0,2.21.48,1.46,1.46,0,0,0,1.48-.71.6.6,0,0,0-.14-.72A2.29,2.29,0,0,0,219,91.8l-1.46-.27a2.74,2.74,0,0,1-2-1.67,2.21,2.21,0,0,1-.1-.69,2.15,2.15,0,0,1,.91-1.82,3.94,3.94,0,0,1,2.36-.66,5.61,5.61,0,0,1,2.68.64v1.81l-1.1-.46a5.56,5.56,0,0,0-1.75-.4,1.93,1.93,0,0,0-.93.22.67.67,0,0,0-.42.6.45.45,0,0,0,.08.26,2,2,0,0,0,1.31.71q.78.14,1.56.24c1.45.45,2.18,1.27,2.18,2.46A2.27,2.27,0,0,1,220.92,95.06Z" transform="translate(-16.31 -13.11)"/><path class="cls-1" d="M229.32,95.06a5.33,5.33,0,0,1-2.26.44,6.56,6.56,0,0,1-3.08-.7l-.06-.08V92.94c.24.09.65.24,1.22.47a5.64,5.64,0,0,0,2.2.48c.78,0,1.27-.24,1.49-.71a.6.6,0,0,0-.14-.72,2.33,2.33,0,0,0-1.29-.66l-1.46-.27a2.74,2.74,0,0,1-2.05-1.67,2.21,2.21,0,0,1-.1-.69,2.12,2.12,0,0,1,.91-1.82,3.94,3.94,0,0,1,2.36-.66,5.64,5.64,0,0,1,2.68.64v1.81l-1.1-.46a5.56,5.56,0,0,0-1.75-.4,1.88,1.88,0,0,0-.93.22.67.67,0,0,0-.42.6.44.44,0,0,0,.07.26,2,2,0,0,0,1.31.71q.78.14,1.56.24,2.19.68,2.19,2.46A2.27,2.27,0,0,1,229.32,95.06Z" transform="translate(-16.31 -13.11)"/><path class="cls-1" d="M243,95.06a5.33,5.33,0,0,1-2.26.44,6.53,6.53,0,0,1-3.08-.7l-.06-.08V92.94c.24.09.65.24,1.22.47a5.64,5.64,0,0,0,2.2.48c.78,0,1.27-.24,1.48-.71a.58.58,0,0,0-.13-.72,2.33,2.33,0,0,0-1.29-.66l-1.46-.27a2.74,2.74,0,0,1-2.05-1.67,2.21,2.21,0,0,1-.1-.69,2.12,2.12,0,0,1,.91-1.82,3.94,3.94,0,0,1,2.36-.66,5.64,5.64,0,0,1,2.68.64v1.81l-1.1-.46a5.56,5.56,0,0,0-1.75-.4,1.88,1.88,0,0,0-.93.22.67.67,0,0,0-.42.6.44.44,0,0,0,.07.26,2,2,0,0,0,1.31.71q.78.14,1.56.24,2.19.68,2.19,2.46A2.27,2.27,0,0,1,243,95.06Z" transform="translate(-16.31 -13.11)"/><path class="cls-1" d="M253.85,91.38l-.15.13c-2.42,0-4.43,0-6,0a2.06,2.06,0,0,0,.38,1.24,2.62,2.62,0,0,0,2.4,1.08,4.32,4.32,0,0,0,.7-.06,5.53,5.53,0,0,0,2.54-1.21l.1,0v1.8a6.09,6.09,0,0,1-3.59,1.07,4.44,4.44,0,0,1-2-.42,4.15,4.15,0,0,1-1.68-1.58,4.29,4.29,0,0,1-.67-2.32,4.43,4.43,0,0,1,.83-2.52,4,4,0,0,1,2.07-1.6,4.55,4.55,0,0,1,1.37-.21,3.3,3.3,0,0,1,2.91,1.43A5.19,5.19,0,0,1,253.85,91.38ZM252,90.07a1.18,1.18,0,0,0-.32-.8,2.59,2.59,0,0,0-.68-.63A2.31,2.31,0,0,0,250,88.4a2.5,2.5,0,0,0-1.4.41,1.59,1.59,0,0,0-.8,1.26Z" transform="translate(-16.31 -13.11)"/><path class="cls-1" d="M262.76,94.68a5.11,5.11,0,0,1-2.85.78,4.56,4.56,0,0,1-2.36-.58,4.16,4.16,0,0,1-2.18-3.73,4.86,4.86,0,0,1,.68-2.46,3.76,3.76,0,0,1,1.83-1.64,5.3,5.3,0,0,1,2.07-.38,6.11,6.11,0,0,1,2.71.59l.08.09c0,.85,0,1.53,0,2.05-.23-.15-.58-.35-1-.61a4,4,0,0,0-1.77-.41,2.37,2.37,0,0,0-1.69.59,2.62,2.62,0,0,0-1,2.09,3.08,3.08,0,0,0,0,.51,2.4,2.4,0,0,0,1,1.56,2.9,2.9,0,0,0,1.78.62,4.58,4.58,0,0,0,2.6-1.12l.12,0Z" transform="translate(-16.31 -13.11)"/><path class="cls-1" d="M272.39,95.31h-1.65s-.05,0-.06-.06v-.39a4.69,4.69,0,0,1-2.45.64,4.37,4.37,0,0,1-1.6-.28,3.74,3.74,0,0,1-1.52-1.12,2.55,2.55,0,0,1-.64-1.66V86.89h1.73l.05.14v5.22a1.81,1.81,0,0,0,.8,1.15,2.46,2.46,0,0,0,1.41.43,3.36,3.36,0,0,0,2.2-.89V87s0-.08.08-.08h1.67l.06.1v8.26S272.44,95.31,272.39,95.31Z" transform="translate(-16.31 -13.11)"/><path class="cls-1" d="M280.43,89l-.61-.36a2.9,2.9,0,0,0-1.2-.28,2.94,2.94,0,0,0-1.9.8l-.19.19,0,6H274.8l-.05-.07V87l0,0s0,0,0,0h1.64l.07,0v.44c.16-.09.4-.22.73-.38a4.49,4.49,0,0,1,1.53-.27,3.37,3.37,0,0,1,1.52.33Z" transform="translate(-16.31 -13.11)"/><path class="cls-1" d="M284.29,85.13l-1.14,1.14h-.1L282,85.17c-.05,0-.06,0,0-.08L283.09,84s.08,0,.11,0l1.09,1.1ZM284,87v8.29c0,.05,0,.07-.06.07h-1.67s-.05,0-.08-.07V86.91l.08,0H284Z" transform="translate(-16.31 -13.11)"/><path class="cls-1" d="M292.4,88.62l-.08.06h-3.09l-.1.08v3.87a1.14,1.14,0,0,0,.57,1,1.79,1.79,0,0,0,.84.19,5,5,0,0,0,1.86-.55v1.61a3.68,3.68,0,0,1-2,.54,4.24,4.24,0,0,1-1.5-.27c-1.05-.38-1.58-1.32-1.58-2.83V88.68h-1.42l-.11-.09V86.93c.31,0,.8,0,1.46,0,0,0,.06,0,.07-.07v-2a.25.25,0,0,0,0-.09h1.75a.23.23,0,0,0,0,.07s0,.71,0,2.09h3.27Z" transform="translate(-16.31 -13.11)"/><path class="cls-1" d="M302.83,86.89q-1.93,3.54-5.53,10.38A4.11,4.11,0,0,1,295.74,99a3.89,3.89,0,0,1-2.18.6l-.08-.08V98a1.92,1.92,0,0,0,1.88-.84c.45-.69.71-1.12.8-1.29a7.13,7.13,0,0,0,.63-1.37l.09-.26-3.72-7.36h1.77a.32.32,0,0,1,.28.16l2.62,5.34.14-.06L300.82,87c0-.06.07-.09.19-.08Z" transform="translate(-16.31 -13.11)"/></svg>