<svg xmlns="http://www.w3.org/2000/svg" width="120" height="68" viewBox="0 0 120 68">
    <path fill="#0CABF3" fill-rule="evenodd" d="M112.5 0c4.13 0 7.5 3.394 7.5 7.556v52.888c0 4.162-3.37 7.556-7.5 7.556h-80c-4.13 0-7.5-3.394-7.5-7.556V50.37h5v10.074c0 1.38 1.13 2.519 2.5 2.519h80c1.37 0 2.5-1.14 2.5-2.519V7.556c0-1.38-1.13-2.519-2.5-2.519h-80c-1.37 0-2.5 1.14-2.5 2.519v12.592h5v5.037H10v-5.037h15V7.556c0-4.08 3.238-7.423 7.258-7.552L32.5 0zM53.232 35.997l3.536 3.562-20 20.148-3.536-3.562 20-20.148zm38.536 0l20 20.148-3.536 3.562-20-20.148 3.536-3.562zm-54.268 4.3v5.036h-25v-5.037h25zm70.732-32.004l3.536 3.562-26.9 27.1c-6.826 6.875-17.906 6.875-24.762-.002L33.231 11.854l3.538-3.56 26.87 27.095c4.899 4.914 12.819 4.914 17.693.003l26.9-27.099zM27.5 30.223v5.036H0v-5.037h27.5z"/>
</svg>
