<svg xmlns="http://www.w3.org/2000/svg" width="39" height="48" viewBox="0 0 39 48">
    <g fill="none" fill-rule="evenodd">
        <path d="M0 0h48v48H0z"/>
        <g fill="#0CABF3">
            <path d="M23.98 3.122C12.408 3.122 3 12.254 3 23.485c0 11.232 9.408 20.363 20.98 20.363 11.572 0 20.98-9.131 20.98-20.363 0-11.231-9.422-20.363-20.98-20.363zm0 34.63c-8.11 0-14.712-6.409-14.712-14.267 0-7.871 6.602-14.28 14.712-14.28s14.713 6.409 14.713 14.28c-.014 7.872-6.603 14.267-14.713 14.267zm0-26.528c-6.965 0-12.619 5.5-12.619 12.248 0 6.747 5.668 12.247 12.62 12.247 6.965 0 12.618-5.5 12.618-12.247S30.932 11.224 23.98 11.224zm8.138 11.3c.042.31.07.636.07.961 0 2.14-.88 4.078-2.303 5.514.893 1.044 1.745 1.504 2.75 1.951l-1.717 1.884-2.373 1.002c-.126-1.057-.321-1.991-1.075-3.157a8.3 8.3 0 0 1-3.49.76 8.562 8.562 0 0 1-3.49-.76c-.753 1.152-.949 2.087-1.074 3.157l-2.373-1.002-1.717-1.884c1.005-.447 1.856-.907 2.75-1.95-1.424-1.437-2.304-3.374-2.304-5.515 0-.325.028-.637.07-.962-1.312-.311-2.275-.203-3.336 0l.251-2.506 1.312-2.168c.726.759 1.424 1.396 2.667 1.897a8.219 8.219 0 0 1 5.737-4.092c-.112-1.273-.503-2.1-1.033-3.008l2.526-.541 2.527.541c-.517.895-.921 1.721-1.033 3.008 2.485.447 4.592 1.992 5.737 4.092 1.242-.488 1.94-1.125 2.666-1.897l1.312 2.168.252 2.506c-1.033-.203-1.983-.311-3.309 0z"/>
            <path d="M27.847 35.001l-.126-1.07c-.21-1.734-.572-3.021-3.74-5.799-3.17 2.778-3.532 4.065-3.742 5.799l-.125 1.07-3.574-1.504-2.582-2.831 1.019-.447c1.633-.718 2.778-1.464 4.522-5.244-2.903-1.612-4.285-1.842-5.248-1.842-.53 0-1.02.068-1.591.19l-1.09.216.364-3.766 1.982-3.252.754.8c1.214 1.287 2.289 2.113 6.532 2.56.88-4.05.391-5.31-.488-6.828l-.544-.948 3.796-.827 3.797.827-.544.948c-.88 1.517-1.368 2.764-.489 6.828 4.244-.447 5.319-1.273 6.533-2.56l.754-.8 1.982 3.252.363 3.766-1.089-.216c-.572-.109-1.06-.19-1.591-.19-.963 0-2.345.23-5.249 1.842 1.745 3.78 2.89 4.512 4.523 5.244l1.019.447-2.583 2.831-3.545 1.504zm-3.867-9.023l.545.46c3.42 2.887 4.313 4.54 4.676 6.233l1.228-.515.88-.975c-1.564-.854-2.89-2.195-4.663-6.233l-.279-.65.614-.366c2.974-1.72 4.928-2.425 6.729-2.425.279 0 .558.014.823.04l-.125-1.286-.684-1.111c-1.313 1.178-3.043 1.991-7.552 2.37l-.726.068-.168-.69c-1.005-4.282-.753-6.138 0-7.71l-1.298-.284-1.298.284c.74 1.572 1.005 3.428 0 7.71l-.153.69-.726-.067c-4.509-.393-6.24-1.206-7.552-2.371l-.684 1.11-.126 1.288a8.17 8.17 0 0 1 .824-.04c1.8 0 3.755.704 6.728 2.424l.614.366-.279.65c-1.787 4.038-3.113 5.38-4.662 6.233l.88.975 1.228.515c.349-1.707 1.256-3.346 4.676-6.232l.53-.46z"/>
        </g>
    </g>
</svg>
