<svg xmlns="http://www.w3.org/2000/svg" width="48" height="48" viewBox="0 0 48 48">
    <g fill="none" fill-rule="evenodd">
        <path d="M0 0h48v48H0z"/>
        <path fill="#0CABF3" d="M37.573 32.184a3.696 3.696 0 0 0-3.697 3.697 3.696 3.696 0 0 0 3.697 3.698 3.696 3.696 0 0 0 3.698-3.698c-.014-2.043-1.668-3.697-3.698-3.697zm-25.535 0A3.696 3.696 0 0 0 8.34 35.88a3.696 3.696 0 0 0 3.698 3.698 3.696 3.696 0 0 0 3.697-3.698 3.696 3.696 0 0 0-3.697-3.697zm35.947 2.641c-.042-.278-.167-.96-.278-1.668-.125-.82-1.043-.709-1.098-1.251-.056-.542-.39-4.796-.431-5.45-.056-.653-.487-1.75-1.418-2.07-.556-.195-1.752-.529-2.739-.848L34.876 16.1a1.713 1.713 0 0 0-1.25-.528h-4.63v-4.727A2.45 2.45 0 0 0 26.55 8.4H2.446A2.45 2.45 0 0 0 0 10.846v23.02a2.45 2.45 0 0 0 2.446 2.446h3.865c-.014-.139-.042-.278-.042-.43 0-3.184 2.6-5.783 5.783-5.783 3.183 0 5.782 2.6 5.782 5.782 0 .14-.027.278-.041.431h14.053c-.014-.139-.042-.278-.042-.43 0-3.184 2.6-5.783 5.783-5.783 3.183 0 5.783 2.6 5.783 5.782 0 .14-.028.278-.042.431h2.488c1.807-.014 2.28-.82 2.169-1.487zM35.683 24.58h-6.77v-5.546h3.962l4.1 4.267-1.292 1.28z"/>
        <path fill="#FFF" d="M6.757 17.444c.07 0 .089.028.06.095l-.34.8-.91 2.142c-.037.085-.063.102-.156.103h-.443c-.069 0-.09-.031-.063-.095.128-.311.256-.622.386-.932a.103.103 0 0 0 0-.091c-.287-.638-.571-1.276-.856-1.914-.007-.014-.014-.028-.017-.043-.01-.037.008-.063.046-.064a35.4 35.4 0 0 1 .555 0c.054.001.08.038.1.085l.374.936.132.33.409-1.002.107-.262c.028-.07.054-.087.13-.088h.486zm7.718.947c.032.243.008.47-.075.684-.15.388-.434.615-.842.67-.407.053-.735-.032-.992-.287-.02-.02-.04-.041-.059-.063a1.044 1.044 0 0 1-.498.277c-.377.13-.8.062-1.079-.155-.285-.221-.414-.533-.427-.95.014-.4.14-.706.413-.93.343-.28.92-.319 1.334-.045l.027.018-.29.466-.028-.018a.641.641 0 0 0-.27-.104.494.494 0 0 0-.552.336.77.77 0 0 0-.019.5c.093.315.368.464.683.37a.962.962 0 0 0 .137-.053l.018-.009c.102-.047.181-.138.243-.277.024-.056.029-.102.027-.212v-.007c-.001-.096.01-.19.032-.28.053-.284.183-.514.406-.685a1.133 1.133 0 0 1 1.811.754zm8.086-.986c.342-.003.612.146.846.378.059.059.06.098.004.163a5.757 5.757 0 0 1-.224.244c-.036.038-.078.039-.13.005-.047-.03-.09-.066-.136-.095a.65.65 0 0 0-.377-.106.447.447 0 0 0-.328.158c-.173.197-.194.576-.031.782a.48.48 0 0 0 .488.187.76.76 0 0 0 .32-.141c.07-.051.106-.05.161.014.075.086.148.174.218.264.055.07.05.107-.019.17-.176.16-.38.262-.618.295a1.229 1.229 0 0 1-.669-.096.922.922 0 0 1-.486-.477c-.205-.455-.185-.902.087-1.325.143-.222.366-.337.62-.388.09-.018.182-.03.274-.032zm-1.87.057c.327.104.508.34.573.666.024.118.018.241.025.362a.331.331 0 0 1-.006.077c-.018.1-.036.114-.14.114h-1.275c.046.238.148.406.376.466a.662.662 0 0 0 .4-.044c.062-.022.12-.057.179-.086.077-.038.11-.033.161.034.06.079.12.159.176.241.04.06.032.107-.027.153-.247.19-.52.298-.839.279-.152-.01-.3-.03-.44-.09a.976.976 0 0 1-.55-.6 1.295 1.295 0 0 1 .063-1.068.987.987 0 0 1 .722-.529c.202-.04.404-.038.601.025zm3.685-.458c.07.003.091.037.093.112.002.103 0 .205 0 .319l.215.004c.03 0 .06-.002.089 0 .086.008.123.039.128.123.005.106.006.214-.002.32-.007.094-.033.113-.127.114h-.294c-.003.033-.008.061-.008.09v.883a.51.51 0 0 0 .01.098c.018.09.063.124.155.11.043-.007.086-.02.129-.03a.612.612 0 0 1 .076-.012c.046-.004.08.014.091.061.024.112.05.222.067.335.01.067-.014.102-.074.117a2.012 2.012 0 0 1-.6.074.46.46 0 0 1-.44-.366 1.474 1.474 0 0 1-.041-.304c-.005-.306-.002-.611-.002-.917v-.14c-.053 0-.093.003-.132 0-.066-.004-.09-.024-.092-.085a7.373 7.373 0 0 1 0-.375c.001-.056.03-.082.092-.092.04-.007.08-.007.13-.01.007-.04.016-.078.02-.117a6.61 6.61 0 0 0 .023-.208c.006-.06.036-.099.096-.1.133-.005.266-.01.398-.004zM3.785 17c.05.024.064.064.062.117-.002.107 0 .214 0 .327h.339c.052.002.083.03.083.08.002.126.002.252 0 .377 0 .053-.033.081-.092.082h-.328l-.002.051v.978l.002.055c.007.077.05.12.125.112.075-.007.15-.024.224-.04.067-.015.096 0 .11.067l.066.314c.014.067-.006.103-.072.115-.156.029-.311.06-.468.077a.669.669 0 0 1-.235-.02c-.203-.05-.302-.201-.343-.394a1.06 1.06 0 0 1-.021-.217l-.001-.519v-.579h-.138c-.07-.001-.096-.028-.096-.097v-.344c0-.072.026-.097.1-.098h.133l.03-.308c.005-.057.01-.111.074-.136h.448zm5.931.45c.348.098.538.338.606.684.03.154.025.309.008.463-.004.043-.03.068-.073.071l-.025.002h-1.31c.013.325.285.539.608.486a.983.983 0 0 0 .359-.135c.071-.044.1-.038.148.028l.174.237c.049.067.042.105-.026.155-.179.132-.371.236-.595.262-.367.044-.707-.017-.982-.289a1.082 1.082 0 0 1-.296-.589 1.278 1.278 0 0 1 .17-.951c.166-.26.41-.4.712-.445.175-.027.35-.027.522.022zm6.705.159c.09.07.15.163.197.263.058.123.09.256.1.393.038.43.013.86.019 1.29.002.119-.025.142-.143.143h-.365c-.11 0-.136-.026-.136-.138-.001-.36 0-.722-.003-1.082a.957.957 0 0 0-.027-.23c-.062-.242-.203-.303-.44-.268-.047.007-.092.03-.134.051-.1.05-.151.12-.149.243.008.413.003.825.003 1.237 0 .03.002.06-.001.089-.006.064-.035.096-.098.097-.143.003-.288.003-.431 0-.064-.002-.09-.033-.096-.099-.002-.022 0-.044 0-.066v-1.977c.004-.073.027-.106.096-.112a1.5 1.5 0 0 1 .243 0c.08.007.114.073.141.155a.854.854 0 0 1 .396-.173c.297-.038.581-.01.828.184zm2.28.003a.647.647 0 0 1 .202.284 1.688 1.688 0 0 1 .11.648c.002.331 0 .663 0 .994 0 .026.002.052-.003.077-.009.048-.037.082-.09.082-.15.001-.302.003-.453 0-.063-.001-.091-.033-.098-.097l-.001-.044v-.045c0-.35.001-.7-.002-1.049a.901.901 0 0 0-.028-.218c-.063-.24-.208-.301-.445-.262a.492.492 0 0 0-.142.057c-.092.048-.137.115-.135.229.007.42.003.84.003 1.26 0 .028.002.058-.003.087-.008.049-.037.082-.09.082-.147.001-.295.003-.442 0-.056-.002-.084-.035-.09-.092-.003-.022-.002-.045-.002-.067v-1.932-.056c.005-.066.027-.1.09-.105.084-.007.17-.005.254 0 .045.003.082.03.104.073l.037.074a.895.895 0 0 1 .385-.166c.302-.04.59-.01.838.186zM8.322 17.44c.044.005.066.042.053.086a22.41 22.41 0 0 1-.13.412c-.014.044-.05.061-.095.058-.042-.004-.083-.012-.125-.015-.127-.01-.249.002-.353.085a.198.198 0 0 0-.084.17c.003.446.001.893.001 1.34 0 .092-.022.114-.116.114h-.392c-.072 0-.1-.026-.1-.097v-2.051c0-.072.026-.097.1-.098h.204c.09 0 .114.016.148.099l.017.039c.122-.077.248-.127.384-.15.163-.027.326-.013.488.008zm5.043.52a.491.491 0 0 0-.49.319.828.828 0 0 0-.06.352v.013l.003.037c.009.069.026.136.051.203a.488.488 0 0 0 .493.335.482.482 0 0 0 .48-.317.787.787 0 0 0 .003-.62c-.086-.211-.246-.317-.48-.322zm-4.262.096a.481.481 0 0 0-.167.252h.802l-.004-.068c-.016-.143-.086-.238-.208-.268a.478.478 0 0 0-.423.084zm11.005-.022a.4.4 0 0 0-.207.263h.75c.017-.158-.047-.261-.182-.305a.447.447 0 0 0-.361.042z"/>
    </g>
</svg>
