<svg xmlns="http://www.w3.org/2000/svg" width="48" height="48" viewBox="0 0 48 48">
    <g fill="none" fill-rule="evenodd">
        <path d="M0 0h48v48H0z"/>
        <path fill="#0CABF3" d="M42.424 18.285c-2.17-4.558-5.667-6.276-10.103-4.985l-.646-1.62c1.853-.805 4.12-1.024 5.423-.927 0-.962-.39-1.95-1.097-2.656A3.743 3.743 0 0 0 33.345 7h-8.69c-1.754 0-4.02.938-5.264 2.181L4.097 24.463a3.766 3.766 0 0 0 0 5.314l10.212 10.212a3.743 3.743 0 0 0 2.657 1.097c1 0 1.95-.39 2.657-1.097l7.97-7.97a6.696 6.696 0 0 0 1.876 2.913c1.67 1.523 4.18 2.34 6.679 2.34 1.67 0 3.327-.354 4.728-1.11 5.935-3.144 4.546-11.601 1.548-17.877zM11.949 23.94l8.699 8.698-1.538 1.537-8.698-8.698 1.537-1.537zm3.077-3.077l8.699 8.698-1.538 1.537-8.698-8.698 1.537-1.537zm2.305-2.305l8.699 8.698-1.538 1.537-8.698-8.698 1.537-1.537zm3.077-3.077l8.699 8.698-1.538 1.537-8.698-8.698 1.537-1.537zm2.306-2.306l8.698 8.699-1.538 1.537-8.698-8.698 1.538-1.538zm18.942 17.698c-1.523 3.887-6.97 4.033-9.603 2.132-1.45-1.06-1.767-2.51-1.743-3.704l4.595-4.595c1.243-1.243 2.181-3.51 2.181-5.264v-2.365c1.292-.097 2.303 1.67 2.718 2.365.5.828 3.375 7.543 1.852 11.43z"/>
    </g>
</svg>
