<svg xmlns="http://www.w3.org/2000/svg" width="48" height="48" viewBox="0 0 48 48">
    <g fill="none" fill-rule="evenodd">
        <path d="M0 0h48v48H0z"/>
        <path fill="#0CABF3" d="M41.5 14.802l3.15 1.454a5.025 5.025 0 0 1 2.901 4.51l.073 7.575-2.483 2.908V45.6H33.506s.157-22.043.136-22.685L30.47 25.99a2.221 2.221 0 0 1-2.787.264l-5.03-4.004c-1.335-1.064-1.596-3.024-.583-4.415l6.459 3.783 2.619-3.446A4.966 4.966 0 0 1 32.9 16.73l3.746-1.855 2.598 4.236 2.254-4.31zM31.23 2.874v5.469h-1.44v6.164h-2.39V8.342H4.685v24.435h22.717v-2.128h2.39v4.54h-7.9V45.6h-2.87V35.19h-5.54V45.6h-2.87V35.19H2.295V8.342H.845V2.875H31.23zm7.378.169c2.462 0 4.174 2.033 4.174 4.541v1.517c0 2.508-1.712 4.542-4.174 4.542-2.463 0-4.174-2.034-4.174-4.542V7.584c0-2.508 1.711-4.541 4.174-4.541z"/>
    </g>
</svg>
