<svg xmlns="http://www.w3.org/2000/svg" width="48" height="48" viewBox="0 0 48 48">
    <g fill="none" fill-rule="evenodd">
        <path d="M0 0h48v48H0z"/>
        <path fill="#0CABF3" d="M6.935 33.765v7.919h9.032V26.959l-.673-.673-8.359 7.479zm11.646-4.193v12.112h9.031v-13.03l-5.137 4.787-3.894-3.869zM41.277 7.29l-5.228 1.424c-1.384.375-1.94 1.229-1.242 1.915l1.255 1.242-13.548 12.616-7.155-7.13L4.8 26.803l2.135 2.381 8.294-7.427 7.208 7.181 15.89-14.803s.608.609 1.371 1.36c.763.75 1.67.245 2.031-1.14l1.385-5.24c.362-1.372-.453-2.2-1.837-1.825zM30.343 26.105v15.579h9.032V18.858l-.557-.634-8.475 7.88z"/>
    </g>
</svg>
