<svg xmlns="http://www.w3.org/2000/svg" width="48" height="48" viewBox="0 0 48 48">
    <g fill="none" fill-rule="evenodd">
        <path d="M0 0h48v48H0z"/>
        <path fill="#0CABF3" d="M26.88 3.453v5h-1.401v2.659c1.49.15 2.924.492 4.276 1.002l.932-1.848-1.294-.652 1.545-3.06L36.71 9.47l-1.544 3.06-1.325-.67-.928 1.843c4.708 3.02 7.834 8.3 7.834 14.298 0 9.36-7.614 16.973-16.974 16.973S6.8 37.36 6.8 28c0-8.738 6.636-15.955 15.134-16.874l-.001-2.673h-1.426v-5h6.373zm-3.107 11.574C16.613 15.027 10.8 20.84 10.8 28c0 7.16 5.813 12.973 12.973 12.973 7.16 0 12.974-5.813 12.974-12.973 0-7.147-5.814-12.973-12.974-12.973zm-.026 10.506c1.045 0 1.963.542 2.49 1.36 2.103.102 9.142.804 9.142 1.666 0 .875-7.245 1.587-9.236 1.672a2.96 2.96 0 1 1-2.396-4.697z"/>
    </g>
</svg>
