<svg xmlns="http://www.w3.org/2000/svg" width="32" height="32" viewBox="0 0 32 32">
    <path class="close" fill-rule="evenodd" d="M5.686 4.686c6.249-6.248 16.38-6.248 22.628 0 6.248 6.249 6.248 16.38 0 22.628-6.249 6.248-16.38 6.248-22.628 0-6.248-6.249-6.248-16.38 0-22.628zM26.9 6.101C21.432.633 12.568.633 7.101 6.1c-5.468 5.467-5.468 14.331 0 19.798 5.467 5.468 14.331 5.468 19.798 0 5.468-5.467 5.468-14.331 0-19.798zm-15.63 4.168a1 1 0 0 1 1.414 0L17 14.586l4.317-4.317a1 1 0 0 1 1.32-.083l.094.083a1 1 0 0 1 0 1.414L18.414 16l4.317 4.317a1 1 0 0 1 .083 1.32l-.083.094a1 1 0 0 1-1.414 0L17 17.414l-4.317 4.317a1 1 0 0 1-1.32.083l-.094-.083a1 1 0 0 1 0-1.414L15.586 16l-4.317-4.317a1 1 0 0 1-.083-1.32z"/>
</svg>
