<svg xmlns="http://www.w3.org/2000/svg" width="184" height="30" viewBox="0 0 184 30">
    <path fill="#0CABF3" fill-rule="evenodd" d="M31.422 3.72c.59.001.742.234.507.789-.945 2.233-1.894 4.464-2.843 6.695L21.465 29.14c-.305.718-.52.86-1.299.86-1.235 0-2.47.002-3.706 0-.578-.001-.749-.256-.528-.793 1.072-2.602 2.143-5.203 3.226-7.8.114-.27.124-.488 0-.766-2.394-5.336-4.776-10.677-7.16-16.017-.052-.118-.111-.236-.141-.36-.074-.308.073-.533.386-.535 1.547-.009 3.095-.01 4.642.005.45.004.675.314.83.707 1.041 2.613 2.088 5.225 3.134 7.836l1.108 2.753 3.417-8.383c.298-.732.596-1.464.896-2.196.238-.583.453-.729 1.094-.73 1.353-.003 2.705-.003 4.058 0zm64.554 7.928c.262 2.03.063 3.935-.632 5.726-1.258 3.246-3.63 5.147-7.041 5.599-3.4.449-6.15-.26-8.3-2.398a8.984 8.984 0 0 1-.487-.524 8.733 8.733 0 0 1-2.435 1.715 8.623 8.623 0 0 1-1.737.605c-3.148 1.088-6.68.517-9.02-1.303-2.381-1.851-3.46-4.458-3.573-7.953.119-3.346 1.18-5.91 3.46-7.782 2.862-2.35 7.689-2.669 11.154-.38l.225.15-2.419 3.907-.239-.154c-.737-.476-1.48-.767-2.267-.866-2.137-.267-3.852.78-4.612 2.81a6.46 6.46 0 0 0-.155 4.191c.775 2.633 3.075 3.881 5.707 3.096a8.04 8.04 0 0 0 1.15-.449l.15-.072c.856-.393 1.514-1.162 2.028-2.321.207-.466.245-.854.233-1.78l-.001-.055c-.01-.803.08-1.59.265-2.338.442-2.386 1.532-4.311 3.4-5.74 5.796-4.43 14.21-.911 15.146 6.316zm67.628-8.256c2.855-.03 5.119 1.22 7.07 3.16.494.493.505.825.04 1.368a48.18 48.18 0 0 1-1.876 2.044c-.306.317-.655.322-1.093.042-.389-.248-.74-.555-1.134-.796-.964-.59-1.994-.949-3.151-.892-1.113.054-2.023.496-2.748 1.326-1.444 1.652-1.621 4.826-.259 6.55 1.043 1.32 2.409 1.851 4.082 1.565.994-.17 1.87-.597 2.68-1.184.59-.428.886-.413 1.349.117.628.72 1.236 1.458 1.822 2.212.458.59.424.896-.16 1.428-1.473 1.34-3.172 2.186-5.173 2.46-1.955.267-3.808-.024-5.592-.798-1.861-.807-3.238-2.166-4.064-3.998-1.719-3.807-1.546-7.549.73-11.087 1.196-1.862 3.056-2.823 5.189-3.252.75-.151 1.52-.253 2.288-.265zm-15.65.474c2.744.871 4.257 2.845 4.8 5.58.196.984.151 2.017.205 3.03.011.212-.011.432-.05.643-.15.83-.294.955-1.17.956-3.179.006-6.358.002-9.537.003h-1.121c.385 1.983 1.233 3.395 3.14 3.894 1.143.298 2.269.036 3.35-.363.515-.192.997-.477 1.493-.723.646-.319.917-.28 1.349.284.506.659 1 1.33 1.467 2.017.34.5.275.899-.22 1.28-2.064 1.592-4.348 2.499-7.018 2.337-1.276-.077-2.504-.247-3.682-.756-2.29-.989-3.792-2.705-4.606-5.023-1.07-3.046-.966-6.04.538-8.937 1.28-2.466 3.34-3.893 6.037-4.43 1.686-.335 3.374-.317 5.025.208zM178.78.033c.582.025.763.31.775.94.018.858.004 1.715.004 2.668.65.011 1.225.024 1.8.033l.494-.003c.082.001.164.004.246.011.722.064 1.035.32 1.07 1.024.046.89.05 1.787-.014 2.677-.057.788-.276.943-1.06.954-.8.013-1.6.004-2.461.004-.027.276-.07.51-.07.746-.005 2.464-.005 4.929 0 7.393.001.275.028.553.082.823.152.76.535 1.035 1.3.921.364-.055.718-.173 1.079-.25.21-.046.423-.08.637-.1.386-.032.675.118.76.513.2.93.417 1.859.56 2.798.084.562-.12.857-.62.98-1.645.4-3.296.727-5.01.624-2.139-.128-3.332-1.52-3.69-3.068-.191-.831-.324-1.695-.338-2.546-.044-2.556-.016-5.113-.016-7.67V8.337c-.442 0-.776.018-1.108-.004-.546-.035-.755-.203-.768-.716a61.782 61.782 0 0 1 .002-3.141c.011-.466.254-.687.766-.771.33-.055.668-.051 1.09-.08.06-.338.132-.656.173-.979.072-.58.132-1.16.187-1.74.046-.5.304-.83.806-.846 1.108-.038 2.218-.074 3.324-.027zM56.17 3.773c2.911.817 4.502 2.823 5.065 5.72.25 1.288.21 2.584.073 3.878-.037.356-.246.564-.61.595-.141.013-.285.01-.428.01l-5.13.001h-5.617c.117 2.727 2.39 4.513 5.088 4.068a8.213 8.213 0 0 0 3.006-1.127c.598-.37.832-.32 1.242.238l1.449 1.98c.41.565.353.876-.219 1.3-1.49 1.107-3.1 1.97-4.969 2.193-3.074.365-5.92-.145-8.217-2.416-1.374-1.36-2.126-3.06-2.475-4.935-.525-2.828-.128-5.512 1.428-7.961 1.38-2.173 3.427-3.344 5.944-3.73 1.467-.225 2.934-.219 4.37.185zM6.566 0c.415.201.534.539.523.983-.023.893-.006 1.788-.006 2.736h.804c.677 0 1.353-.007 2.03.004.436.007.695.245.7.667.012 1.052.012 2.104 0 3.155-.005.444-.28.678-.774.683-.754.008-1.507.003-2.263.003h-.475c-.008.156-.022.292-.022.428v8.18c0 .156.006.313.02.467.057.64.41.999 1.046.939.63-.058 1.254-.201 1.873-.34.56-.126.803.002.921.562.186.875.374 1.75.552 2.627.113.559-.057.866-.605.966-1.302.24-2.603.495-3.917.641a5.589 5.589 0 0 1-1.965-.157c-1.692-.434-2.52-1.693-2.87-3.305-.127-.59-.168-1.209-.172-1.815-.017-2.896-.007-5.792-.007-8.687V8.23c-.412 0-.785.005-1.158-.001-.576-.01-.796-.234-.798-.813C0 6.455 0 5.495.002 4.534c.002-.601.215-.81.827-.814.362-.003.725 0 1.122 0 .087-.881.177-1.73.25-2.58.04-.475.089-.934.618-1.14h3.746zM112.25 5.098c.75.589 1.26 1.362 1.648 2.199.48 1.036.744 2.145.842 3.29.308 3.6.097 7.206.15 10.808.015.986-.208 1.186-1.195 1.193-1.018.007-2.037.01-3.056 0-.922-.01-1.135-.219-1.137-1.157-.01-3.02.006-6.04-.018-9.06a8.023 8.023 0 0 0-.227-1.916c-.52-2.033-1.703-2.545-3.69-2.247-.386.057-.762.247-1.118.425-.83.416-1.262 1.002-1.241 2.036.068 3.45.025 6.903.025 10.355 0 .247.016.495-.009.74-.054.534-.292.802-.816.813a83.743 83.743 0 0 1-3.611 0c-.529-.013-.746-.277-.798-.827-.017-.184-.006-.37-.006-.555V5.107c0-.155-.007-.31.002-.462.036-.607.227-.888.802-.935a12.54 12.54 0 0 1 2.033.006c.678.054.959.6 1.185 1.288 1.076-.78 2.134-1.3 3.308-1.448 2.483-.316 4.863-.078 6.927 1.542zm19.063.025c.795.629 1.348 1.456 1.696 2.38.324.859.568 1.76.718 2.664.15.906.185 1.838.193 2.76.024 2.774.01 5.548.008 8.322 0 .215.015.435-.025.644-.077.403-.314.68-.75.685-1.265.012-2.53.023-3.796-.001-.523-.01-.76-.28-.815-.815-.025-.244-.009-.492-.009-.738-.003-2.929.009-5.857-.017-8.785a7.55 7.55 0 0 0-.234-1.821c-.526-2.011-1.738-2.525-3.718-2.198-.415.068-.816.278-1.195.477-.762.4-1.144.964-1.127 1.918.062 3.512.026 7.026.024 10.54 0 .246.017.497-.024.738-.069.406-.312.68-.746.685-1.235.012-2.47.023-3.704-.004-.47-.01-.7-.286-.757-.77-.02-.183-.008-.37-.008-.554l-.001-16.18c0-.155-.007-.31.004-.463.038-.556.22-.841.748-.885.703-.06 1.416-.039 2.122.003.381.024.69.254.872.613l.312.619c1.004-.69 2.046-1.23 3.22-1.388 2.52-.34 4.926-.092 7.009 1.554zM44.52 3.68c.369.048.555.353.443.72-.35 1.154-.714 2.303-1.087 3.45-.12.373-.423.513-.797.484-.35-.027-.696-.093-1.045-.12-1.06-.08-2.08.019-2.955.711-.457.363-.707.78-.702 1.42.03 3.738.015 7.477.015 11.215 0 .77-.19.957-.972.958h-3.278c-.608-.002-.835-.216-.836-.81V4.534c.001-.603.216-.81.828-.813.572-.003 1.144-.002 1.716 0 .753 0 .948.132 1.232.823.038.094.084.185.148.327 1.018-.638 2.07-1.059 3.212-1.25 1.364-.227 2.722-.115 4.078.06zM86.7 8.038c-1.91-.038-3.356.905-4.094 2.668a6.935 6.935 0 0 0-.424 1.435 4.952 4.952 0 0 0-.092 1.517l.01.106c.018.19.022.239.026.305.071.579.212 1.144.426 1.699.72 1.863 2.115 2.81 4.121 2.808 1.934-.001 3.29-.894 4.02-2.657.716-1.728.725-3.468.022-5.188-.721-1.765-2.065-2.656-4.015-2.693zm-35.649.806c-.693.537-1.14 1.252-1.393 2.103h6.707c-.014-.21-.02-.391-.039-.57-.127-1.195-.715-1.992-1.735-2.239-1.278-.31-2.484-.112-3.54.706zm92.04-.185c-.86.465-1.47 1.169-1.732 2.202h6.277c.145-1.325-.39-2.188-1.52-2.555-1.064-.346-2.078-.16-3.026.353z"/>
</svg>
