<svg xmlns="http://www.w3.org/2000/svg" width="20" height="20" viewBox="0 0 20 20">
    <path fill="#FFF" fill-rule="nonzero" d="M18.015 6.084c.739-.615 1.6-1.353 1.985-2.169-.63.323-1.385.523-2.215.63.769-.553 1.4-1.276 1.723-2.26-.8.43-1.616.8-2.631.984C14.492.392 8.785 2.731 9.8 7.039c-4.015-.247-6.462-2.062-8.492-4.293-1.154 1.877-.154 4.723 1.215 5.508-.708-.047-1.246-.262-1.754-.508.062 2.37 1.37 3.508 3.2 4.123a5.148 5.148 0 0 1-1.754.046c.57 1.646 1.754 2.677 3.785 2.892-1.385 1.17-3.938 1.985-6 1.662 1.77 1.123 3.785 2.015 6.585 1.892 6.784-.307 11.323-5.169 11.43-12.277"/>
</svg>
