<svg xmlns="http://www.w3.org/2000/svg" width="270" height="230" viewBox="0 0 270 230">
    <g fill="none" fill-rule="evenodd">
        <path d="M0 0h270v230H0z"/>
        <g transform="translate(31 28)">
            <path fill="#231F20" d="M72.25 170.717a9.38 9.38 0 0 0 9.328-8.442l1.951-19.013h41.174l1.951 19.013a9.38 9.38 0 0 0 9.329 8.442H72.25zM0 124.286V6.097A6.097 6.097 0 0 1 6.097 0H202.14a6.097 6.097 0 0 1 6.097 6.097v118.189H0z"/>
            <path fill="#24B3F4" d="M208.237 124.286v12.897a6.097 6.097 0 0 1-6.097 6.097H6.097A6.097 6.097 0 0 1 0 137.183v-12.897h208.237z"/>
            <path fill="#FFF" fill-rule="nonzero" d="M8.442 12.429h191.353v103.18H8.442z"/>
            <path fill="#24B3F4" d="M67.724 170.717h72.78a3.283 3.283 0 0 1 3.283 3.283H64.44a3.283 3.283 0 0 1 3.283-3.283zM8.442 8.677h191.353v3.752H8.442z"/>
            <circle cx="11.256" cy="10.646" r="1" fill="#FFF" fill-rule="nonzero"/>
            <circle cx="15.008" cy="10.646" r="1" fill="#FFF" fill-rule="nonzero"/>
            <circle cx="18.76" cy="10.646" r="1" fill="#FFF" fill-rule="nonzero"/>
            <circle cx="11.256" cy="10.646" r="1" fill="#00B5F1" fill-rule="nonzero"/>
            <path fill="#E6E6E6" fill-rule="nonzero" d="M147.539 36.348h46.15c.777 0 1.407.63 1.407 1.407v77.854h-48.964V37.755c0-.777.63-1.407 1.407-1.407z"/>
            <path fill="#231F20" d="M36.648 44.682c-.793-.507-2.73-.858-4.995-.858s-4.198.351-4.995.858c-2.218.938-3.907 5.44-3.907 10.867 0 5.426 1.689 9.928 3.907 10.862.797.506 2.73.863 4.995.863s4.221-.357 4.995-.863c2.223-.938 3.907-5.44 3.907-10.862s-1.684-9.934-3.907-10.867z"/>
            <ellipse cx="27.512" cy="55.549" fill="#656262" rx="4.76" ry="11.045"/>
            <ellipse cx="27.723" cy="55.549" fill="#FFF" fill-rule="nonzero" rx="2.692" ry="7.204"/>
            <path d="M38.73 53.373a.23.23 0 0 1 .042.36 27.575 27.575 0 0 1-1.65 1.539.356.356 0 0 1-.44.005c-.47-.404-1.052-.821-1.755-1.309a.23.23 0 0 1-.038-.366.352.352 0 0 1 .436-.028c.615.427 1.121.797 1.567 1.154.427-.37.867-.788 1.407-1.323a.361.361 0 0 1 .431-.032zm-.38-2.467a.23.23 0 0 1 .085.356c-.22.272-.47.563-.713.854-.244.29-.497.548-.746.811a.328.328 0 0 1-.21.094h-.034a.403.403 0 0 1-.197-.057c-.31-.206-.623-.412-.938-.61-.314-.196-.595-.351-.938-.557a.23.23 0 0 1-.08-.357.352.352 0 0 1 .432-.065c.366.206.675.384.98.572.305.187.47.3.713.469l.544-.596c.244-.281.47-.567.694-.835a.356.356 0 0 1 .413-.08h-.005zm-.69-2.44a.24.24 0 0 1 .137.348 19.984 19.984 0 0 1-1.243 1.787.31.31 0 0 1-.197.112h-.066a.347.347 0 0 1-.168-.042 22.77 22.77 0 0 0-2.031-.985.24.24 0 0 1-.132-.347.338.338 0 0 1 .418-.108c.59.249 1.191.535 1.82.868.389-.52.74-1.032 1.046-1.53a.342.342 0 0 1 .422-.102h-.005zm-4.558-1.125a.328.328 0 0 1 .399-.15c.399.122.76.244 1.107.366l.82.314.371-.68c.14-.281.29-.596.469-.938a.328.328 0 0 1 .399-.155.253.253 0 0 1 .183.333c-.165.361-.315.68-.47.971-.154.29-.351.647-.52.938a.305.305 0 0 1-.178.131.366.366 0 0 1-.103 0 .338.338 0 0 1-.136-.028 37.96 37.96 0 0 0-1.074-.417c-.39-.146-.69-.235-1.08-.357a.244.244 0 0 1-.187-.328zm3.049 18.554c-.47.15-.835.263-1.2.356a13.71 13.71 0 0 1-.592.155l-.595.131a.258.258 0 0 1-.085 0 .352.352 0 0 1-.155-.032.3.3 0 0 1-.145-.16l-.15-.469c-.052-.155-.113-.31-.169-.469a14.26 14.26 0 0 0-.385-.896.244.244 0 0 1 .174-.333.338.338 0 0 1 .403.146c.17.356.296.652.399.938.06.154.122.314.178.469l.075.234.286-.06.572-.15c.348-.095.718-.202 1.159-.348a.333.333 0 0 1 .403.146.244.244 0 0 1-.173.342zm1.177-2.345a27.931 27.931 0 0 1-2.251.891.352.352 0 0 1-.122 0 .342.342 0 0 1-.117 0 .281.281 0 0 1-.17-.14 30.225 30.225 0 0 0-.468-.901c-.15-.277-.352-.586-.526-.854a.24.24 0 0 1 .127-.352.352.352 0 0 1 .422.108c.174.272.352.563.535.877.122.216.244.441.366.685.29-.103.558-.202.82-.305.394-.16.75-.314 1.093-.469a.352.352 0 0 1 .422.103.235.235 0 0 1-.136.362l.005-.005zm.816-2.425a22.96 22.96 0 0 1-2.11 1.107.333.333 0 0 1-.15.033h-.085a.314.314 0 0 1-.188-.122c-.386-.568-.8-1.116-1.242-1.642a.23.23 0 0 1 .08-.356.352.352 0 0 1 .43.066c.413.469.789.99 1.122 1.468a30.26 30.26 0 0 0 1.787-.938.352.352 0 0 1 .436.06.23.23 0 0 1-.08.329v-.005zm.469-2.457c-.319.225-.643.469-.966.656-.324.188-.666.427-.99.62a.394.394 0 0 1-.183.046h-.047a.3.3 0 0 1-.201-.103c-.211-.24-.47-.52-.708-.793a8.656 8.656 0 0 0-.741-.755.23.23 0 0 1 .037-.36.366.366 0 0 1 .44.032c.25.249.503.506.751.77.249.262.376.407.54.6l.717-.47c.314-.21.633-.426.938-.647a.352.352 0 0 1 .436.028.225.225 0 0 1 0 .38l-.023-.004zm-1.595-1.056a.347.347 0 0 1-.164.075.319.319 0 0 1-.216-.084 27.89 27.89 0 0 0-1.622-1.435.225.225 0 0 1 0-.361c.13-.1.31-.1.44 0 .47.365.91.764 1.445 1.266.6-.47 1.088-.835 1.53-1.215a.366.366 0 0 1 .44 0 .225.225 0 0 1 0 .361c-.54.418-1.112.868-1.83 1.398l-.023-.005z"/>
            <path fill="#FFF" fill-rule="nonzero" d="M30.757 44.086a15.5 15.5 0 0 1 2.289.202h.056a.375.375 0 0 0 .178-.047.244.244 0 0 0 .127-.164c0-.066 0-.127.038-.188a21.254 21.254 0 0 0-1.778-.075c-.417 0-.825 0-1.215.033.024.147.157.25.305.24zM34.556 45.024c-.066.22-.15.47-.253.708a12.86 12.86 0 0 0-.863-.215c-.197-.047-.385-.09-.582-.127l-.577-.108a.319.319 0 0 0-.37.202.267.267 0 0 0 .244.305c.187.028.375.065.558.098l.563.122c.333.075.69.169 1.12.296a.39.39 0 0 0 .104 0c.047 0 .093-.01.136-.029a.286.286 0 0 0 .16-.145c.154-.38.271-.694.36-.99.057-.164.108-.332.16-.51l.108-.423a8.289 8.289 0 0 0-.6-.131l-.113.44c-.047.173-.099.342-.155.507zM33.271 47.67c.39.121.746.239 1.079.356.333.117.74.281 1.074.417.043.019.089.029.136.028a.366.366 0 0 0 .103 0 .305.305 0 0 0 .178-.13c.169-.287.338-.592.52-.939.184-.347.296-.61.47-.97a.253.253 0 0 0-.183-.334.328.328 0 0 0-.399.155c-.16.352-.31.666-.469.938l-.37.68-.821-.314a27.955 27.955 0 0 0-1.107-.366.328.328 0 0 0-.399.15.244.244 0 0 0 .188.328zM34.383 49.245a.338.338 0 0 0-.418.108.24.24 0 0 0 .131.347c.657.277 1.323.6 2.031.985.052.028.11.043.17.042h.065a.31.31 0 0 0 .197-.112c.443-.578.855-1.179 1.233-1.801a.24.24 0 0 0-.136-.347.342.342 0 0 0-.417.112 20.263 20.263 0 0 1-1.046 1.53c-.62-.334-1.215-.62-1.81-.864zM36.685 52.406l-.712-.469c-.244-.16-.615-.347-.995-.558a.352.352 0 0 0-.431.066.23.23 0 0 0 .08.356c.36.207.665.38.937.558.272.179.634.404.938.61.06.036.128.055.197.056h.033a.328.328 0 0 0 .211-.093c.249-.263.502-.535.746-.812.244-.276.47-.581.713-.853a.23.23 0 0 0-.084-.357.356.356 0 0 0-.432.07c-.216.268-.469.554-.694.835l-.507.591zM36.896 54.728c-.469-.357-.938-.727-1.566-1.154a.352.352 0 0 0-.436.028.23.23 0 0 0 .037.366c.704.47 1.262.905 1.754 1.309.063.049.141.075.22.075.082.001.16-.027.221-.08a27.575 27.575 0 0 0 1.651-1.538.23.23 0 0 0-.042-.361.361.361 0 0 0-.436.032c-.535.53-.976.952-1.403 1.323zM38.829 55.84a.366.366 0 0 0-.441 0c-.441.38-.938.769-1.53 1.214-.534-.502-.989-.9-1.444-1.266a.361.361 0 0 0-.44 0 .225.225 0 0 0 0 .361 27.89 27.89 0 0 1 1.622 1.435.319.319 0 0 0 .216.085.347.347 0 0 0 .206-.066c.718-.53 1.29-.98 1.797-1.407a.225.225 0 0 0 .014-.357zM38.233 58.283c-.314.22-.633.436-.938.647l-.717.47a14.8 14.8 0 0 0-.54-.601c-.192-.202-.502-.52-.75-.77a.366.366 0 0 0-.441-.032.23.23 0 0 0-.038.361c.249.244.498.502.741.755.244.253.498.554.709.793a.3.3 0 0 0 .201.103h.047a.394.394 0 0 0 .183-.047c.324-.192.661-.403.99-.62.328-.215.647-.43.966-.656a.225.225 0 0 0 .033-.36.352.352 0 0 0-.446-.043zM37.792 60.712c-.619.357-1.205.671-1.787.938a23.134 23.134 0 0 0-1.12-1.468.352.352 0 0 0-.432-.065.23.23 0 0 0-.08.356c.443.53.858 1.083 1.243 1.656a.314.314 0 0 0 .188.122h.084c.052 0 .103-.01.15-.033.685-.319 1.379-.68 2.11-1.107a.23.23 0 0 0 .08-.356.352.352 0 0 0-.436-.043zM37.032 63.1c-.342.154-.698.31-1.092.469-.263.103-.53.201-.821.304a15.145 15.145 0 0 0-.366-.684 25.168 25.168 0 0 0-.535-.877.352.352 0 0 0-.422-.108.24.24 0 0 0-.126.352c.173.267.342.548.525.853.183.305.31.572.469.9a.281.281 0 0 0 .169.141.342.342 0 0 0 .117 0c.04.007.082.007.122 0 .408-.145.774-.281 1.135-.422.361-.14.77-.319 1.116-.469a.235.235 0 0 0 .127-.352.352.352 0 0 0-.418-.107zM35.916 65.416c-.44.146-.811.254-1.158.348l-.572.15-.286.06-.076-.234a7.593 7.593 0 0 0-.178-.469c-.103-.281-.23-.577-.398-.938a.338.338 0 0 0-.404-.145.244.244 0 0 0-.173.333c.16.342.281.628.384.895.057.155.118.31.17.47l.15.469a.3.3 0 0 0 .145.159.352.352 0 0 0 .154.033.258.258 0 0 0 .085 0l.595-.132c.197-.046.394-.098.591-.154.366-.094.746-.207 1.201-.357a.244.244 0 0 0 .174-.333.333.333 0 0 0-.404-.155zM31.61 66.003a.263.263 0 0 0-.229.31c.09.328.164.647.225.96h.624c-.061-.346-.14-.698-.244-1.069a.319.319 0 0 0-.375-.201z"/>
            <path fill="#231F20" d="M66.294 44.682c-.784-.507-2.697-.858-4.94-.858-2.24 0-4.15.351-4.933.858-2.195.938-3.865 5.44-3.865 10.867 0 5.426 1.67 9.928 3.865 10.862.783.506 2.697.863 4.934.863s4.155-.357 4.939-.863c2.194-.938 3.86-5.44 3.86-10.862s-1.666-9.934-3.86-10.867z"/>
            <path fill="#656262" d="M57.265 44.499c2.599 0 4.69 4.948 4.69 11.05 0 6.101-2.106 11.045-4.69 11.045-2.584 0-4.69-4.948-4.69-11.045 0-6.097 2.11-11.05 4.69-11.05"/>
            <ellipse cx="57.472" cy="55.549" fill="#FFF" fill-rule="nonzero" rx="2.659" ry="7.204"/>
            <path d="M68.146 51.234a.277.277 0 0 1-.258.295.314.314 0 0 1-.352-.215.216.216 0 0 0-.107-.155.277.277 0 0 0-.183-.038.235.235 0 0 0-.211.268.267.267 0 0 1-.258.29h-.047a.295.295 0 0 1-.305-.215.76.76 0 0 1 .708-.845.98.98 0 0 1 .652.118.736.736 0 0 1 .361.497zm.319 2.275a.281.281 0 0 1-.281.28.3.3 0 0 1-.333-.234.22.22 0 0 0-.099-.168.263.263 0 0 0-.178-.047.235.235 0 0 0-.235.239.272.272 0 0 1-.276.277h-.028a.286.286 0 0 1-.305-.235.783.783 0 0 1 .788-.793c.22-.02.441.038.623.165a.722.722 0 0 1 .324.516zm-1.327-5.01c.2.093.356.262.431.47a.258.258 0 0 1-.216.314.314.314 0 0 1-.375-.178.267.267 0 0 0-.14-.155.253.253 0 0 0-.174 0 .23.23 0 0 0-.183.281.253.253 0 0 1-.216.314h-.08a.305.305 0 0 1-.295-.187.736.736 0 0 1 .596-.91c.217-.054.446-.036.652.052zM65.19 59.79a.267.267 0 0 0-.173-.094.258.258 0 0 0-.296.154.31.31 0 0 1-.36.202.263.263 0 0 1-.24-.3.863.863 0 0 1 .99-.563.905.905 0 0 1 .581.305.59.59 0 0 1 .136.525.295.295 0 0 1-.3.207h-.066a.263.263 0 0 1-.239-.3.15.15 0 0 0-.033-.137zm.47-7.974a.3.3 0 0 1-.348-.215.183.183 0 0 0-.089-.118.281.281 0 0 0-.197-.032c-.14 0-.239.122-.22.225a.267.267 0 0 1-.258.29h-.024a.295.295 0 0 1-.3-.22.746.746 0 0 1 .713-.807c.23-.037.465.007.666.122.177.098.301.27.338.47a.267.267 0 0 1-.277.3l-.005-.015zm.553 1.815a.272.272 0 0 1-.277.277.29.29 0 0 1-.333-.23.206.206 0 0 0-.084-.136.319.319 0 0 0-.193-.047c-.14 0-.248.104-.234.207a.277.277 0 0 1-.282.277h-.028a.29.29 0 0 1-.305-.235.779.779 0 0 1 .798-.746c.226-.02.453.039.642.164a.68.68 0 0 1 .3.484l-.004-.015zm-1.041-3.874a.314.314 0 0 1-.376-.182.197.197 0 0 0-.107-.113.3.3 0 0 0-.193 0c-.136.038-.225.145-.197.24a.253.253 0 0 1-.215.313h-.08a.305.305 0 0 1-.296-.187.727.727 0 0 1 .615-.868c.222-.055.457-.034.666.061.185.082.33.236.398.427a.258.258 0 0 1-.21.324l-.005-.015zm.666 8.4a.267.267 0 0 1-.277-.276.164.164 0 0 0-.056-.141.267.267 0 0 0-.174-.07c-.145 0-.272.07-.281.168a.3.3 0 0 1-.333.235.272.272 0 0 1-.277-.277.835.835 0 0 1 .938-.638.886.886 0 0 1 .596.249.624.624 0 0 1 .201.516.295.295 0 0 1-.305.239l-.032-.005zm.15-2.105a.281.281 0 0 1-.296-.263.164.164 0 0 0-.06-.127.314.314 0 0 0-.193-.065c-.14 0-.258.089-.258.201a.3.3 0 0 1-.319.249.281.281 0 0 1-.295-.268.811.811 0 0 1 .863-.694.985.985 0 0 1 .623.216c.153.122.24.307.24.502a.29.29 0 0 1-.305.23v.019zm.22-9.709a.868.868 0 0 1 .497.427.244.244 0 0 1-.169.333.328.328 0 0 1-.398-.14.295.295 0 0 0-.164-.146.272.272 0 0 0-.174 0 .22.22 0 0 0-.145.295.244.244 0 0 1-.17.333.314.314 0 0 1-.112 0 .31.31 0 0 1-.286-.164.704.704 0 0 1 .47-.938.97.97 0 0 1 .651-.019v.02zm-1.876-2.017a.985.985 0 0 1 .657-.07.91.91 0 0 1 .553.38.235.235 0 0 1-.127.347.342.342 0 0 1-.417-.108.272.272 0 0 0-.173-.122.267.267 0 0 0-.183 0 .216.216 0 0 0-.09.314.235.235 0 0 1-.126.348.328.328 0 0 1-.145.032.333.333 0 0 1-.273-.136.685.685 0 0 1 .31-1.003l.014.018zm-.164 2.74a.788.788 0 0 1 .469.389.249.249 0 0 1-.174.333.333.333 0 0 1-.398-.146.216.216 0 0 0-.117-.103.314.314 0 0 0-.197 0c-.132.047-.207.16-.165.249a.244.244 0 0 1-.168.333.324.324 0 0 1-.118 0 .305.305 0 0 1-.281-.16.69.69 0 0 1 .492-.938c.212-.06.437-.053.643.024l.014.018zm-1.782-1.797c.212-.1.451-.126.68-.075a.797.797 0 0 1 .497.338.235.235 0 0 1-.127.347.342.342 0 0 1-.417-.108.192.192 0 0 0-.122-.08.277.277 0 0 0-.202.024c-.122.06-.178.178-.122.267a.24.24 0 0 1-.126.347.399.399 0 0 1-.146.028.333.333 0 0 1-.272-.136.67.67 0 0 1 .343-.97l.014.018zm.905 20.74a.324.324 0 0 1-.263.126.38.38 0 0 1-.16-.037.235.235 0 0 1-.102-.352.145.145 0 0 0 0-.127.249.249 0 0 0-.132-.136.281.281 0 0 0-.337.056.347.347 0 0 1-.422.085.24.24 0 0 1-.104-.352.966.966 0 0 1 1.154-.24.779.779 0 0 1 .432.47c.049.166.02.346-.08.488l.014.018zm1.13-1.905a.338.338 0 0 1-.398.141.244.244 0 0 1-.174-.333.145.145 0 0 0 0-.145.23.23 0 0 0-.14-.113c-.132-.042-.282 0-.32.084a.333.333 0 0 1-.398.146.244.244 0 0 1-.174-.333.938.938 0 0 1 1.112-.375c.2.062.368.2.469.384.086.164.089.359.01.526l.013.018zm.249-2.138a.145.145 0 0 0-.024-.146.235.235 0 0 0-.154-.098.258.258 0 0 0-.31.117.314.314 0 0 1-.375.178.253.253 0 0 1-.216-.314.886.886 0 0 1 1.055-.469c.215.04.406.161.535.338a.6.6 0 0 1 .08.539.3.3 0 0 1-.296.188.244.244 0 0 1-.08 0 .258.258 0 0 1-.23-.352l.015.019zm1.824 2.865a.305.305 0 0 1-.281.16.342.342 0 0 1-.117 0 .244.244 0 0 1-.17-.333.211.211 0 0 0-.126-.3.29.29 0 0 0-.342.126c-.08.14-.248.201-.399.146a.24.24 0 0 1-.169-.333.938.938 0 0 1 1.13-.423c.2.063.367.198.47.38a.652.652 0 0 1-.01.558l.014.02zm.938-2.204a.305.305 0 0 1-.295.188.235.235 0 0 1-.08 0 .253.253 0 0 1-.216-.315.216.216 0 0 0 0-.192.253.253 0 0 0-.145-.094.277.277 0 0 0-.319.16.324.324 0 0 1-.38.178.253.253 0 0 1-.211-.314.905.905 0 0 1 1.065-.52c.21.04.396.159.52.332a.67.67 0 0 1 .038.558l.023.019zm.633-2.247a.295.295 0 0 1-.3.207h-.06a.263.263 0 0 1-.24-.3.206.206 0 0 0-.047-.179.244.244 0 0 0-.16-.084.263.263 0 0 0-.3.188.31.31 0 0 1-.36.201.258.258 0 0 1-.24-.3.938.938 0 0 1 1.567-.295.647.647 0 0 1 .117.544l.023.018zm.066-2.05h-.028a.272.272 0 0 1-.277-.28.235.235 0 0 0-.065-.179.267.267 0 0 0-.165-.065.253.253 0 0 0-.281.206.29.29 0 0 1-.333.23.267.267 0 0 1-.277-.277.844.844 0 0 1 .938-.675c.219.012.426.1.587.248.153.143.23.35.21.558a.295.295 0 0 1-.332.216l.023.019zm.131-2.26a.281.281 0 0 1-.295-.267.22.22 0 0 0-.075-.16.272.272 0 0 0-.178-.06.249.249 0 0 0-.258.23.295.295 0 0 1-.32.248.281.281 0 0 1-.295-.263.825.825 0 0 1 .863-.731.985.985 0 0 1 .624.215c.163.131.255.33.249.54a.286.286 0 0 1-.338.23l.023.018z"/>
            <path fill="#FFF" fill-rule="nonzero" d="M60.802 44.602a.347.347 0 0 0 .431.042.23.23 0 0 0 .056-.36c-.065-.066-.028-.193.085-.268a.281.281 0 0 1 .187-.047.225.225 0 0 1 .141.066.352.352 0 0 0 .431.047.244.244 0 0 0 .118-.24h-1.482a.596.596 0 0 0 .033.76zM62.288 46.337c.05 0 .1-.01.146-.028a.24.24 0 0 0 .126-.347c-.056-.089 0-.206.122-.267a.277.277 0 0 1 .202-.024c.05.01.093.039.122.08.096.13.27.175.417.108a.235.235 0 0 0 .127-.347.797.797 0 0 0-.497-.338 1.06 1.06 0 0 0-.68.075.67.67 0 0 0-.357.938c.06.092.162.148.272.15zM64.267 45.442c.05 0 .1-.011.146-.033a.235.235 0 0 0 .126-.347.216.216 0 0 1 .09-.314.267.267 0 0 1 .182 0c.072.015.135.059.174.121.096.13.27.176.417.108a.235.235 0 0 0 .127-.347.91.91 0 0 0-.553-.38.985.985 0 0 0-.657.07.685.685 0 0 0-.324 1 .333.333 0 0 0 .272.122zM62.992 47.965a.305.305 0 0 0 .281.16.324.324 0 0 0 .117 0 .244.244 0 0 0 .17-.334c-.043-.089.032-.201.163-.248a.314.314 0 0 1 .197 0c.051.018.093.055.118.103.08.138.248.199.398.145a.249.249 0 0 0 .174-.333.788.788 0 0 0-.47-.389 1.027 1.027 0 0 0-.67 0 .69.69 0 0 0-.478.896zM65.088 47.28a.31.31 0 0 0 .286.164.314.314 0 0 0 .113 0 .244.244 0 0 0 .169-.333.22.22 0 0 1 .145-.295.272.272 0 0 1 .174 0c.07.025.13.078.164.145.08.138.249.197.398.14a.244.244 0 0 0 .17-.332.868.868 0 0 0-.498-.427.97.97 0 0 0-.652 0 .704.704 0 0 0-.469.938zM64.994 49.025a1.013 1.013 0 0 0-.666-.061.727.727 0 0 0-.614.868c.05.118.167.193.295.187h.08a.253.253 0 0 0 .216-.314c-.028-.094.06-.202.197-.24a.3.3 0 0 1 .192 0c.05.022.09.063.108.113.06.148.222.226.375.183a.258.258 0 0 0 .216-.319.741.741 0 0 0-.399-.417zM66.486 48.439a.736.736 0 0 0-.596.91c.05.118.168.193.296.187h.08a.253.253 0 0 0 .215-.314.23.23 0 0 1 .183-.282.253.253 0 0 1 .174 0c.066.03.116.087.14.155a.314.314 0 0 0 .375.178.258.258 0 0 0 .216-.314.825.825 0 0 0-.431-.469 1.032 1.032 0 0 0-.652-.051zM65.585 51.08a1.013 1.013 0 0 0-.666-.123.746.746 0 0 0-.713.807c.036.135.161.227.3.22h.048a.267.267 0 0 0 .257-.29c0-.104.08-.207.22-.226a.281.281 0 0 1 .198.033.183.183 0 0 1 .089.117.3.3 0 0 0 .347.216.267.267 0 0 0 .258-.29.675.675 0 0 0-.338-.465zM67.133 50.62a.76.76 0 0 0-.708.844.295.295 0 0 0 .305.215h.047a.267.267 0 0 0 .258-.29.235.235 0 0 1 .21-.268.277.277 0 0 1 .184.038c.057.032.097.09.107.155.047.15.197.241.352.215a.277.277 0 0 0 .258-.295.736.736 0 0 0-.361-.497.98.98 0 0 0-.652-.118zM64.483 53.757a.29.29 0 0 0 .305.235h.028a.277.277 0 0 0 .282-.277c0-.103.093-.197.234-.206a.319.319 0 0 1 .192.046.206.206 0 0 1 .085.136.29.29 0 0 0 .333.23.272.272 0 0 0 .276-.276.68.68 0 0 0-.3-.47 1.004 1.004 0 0 0-.642-.164.779.779 0 0 0-.793.746zM67.518 52.828a.783.783 0 0 0-.788.793.286.286 0 0 0 .305.235h.028a.272.272 0 0 0 .276-.277.235.235 0 0 1 .235-.24.263.263 0 0 1 .178.048.22.22 0 0 1 .099.168.3.3 0 0 0 .333.235.281.281 0 0 0 .281-.281.722.722 0 0 0-.324-.516.938.938 0 0 0-.623-.165zM66.298 55.783a.638.638 0 0 0-.239-.502.985.985 0 0 0-.624-.215.811.811 0 0 0-.863.694.281.281 0 0 0 .296.267.3.3 0 0 0 .319-.249c0-.112.117-.196.258-.201.07 0 .137.023.192.065.038.031.06.078.06.127.011.154.143.27.296.263a.29.29 0 0 0 .305-.249zM68.277 55.263a.985.985 0 0 0-.623-.216.825.825 0 0 0-.863.731c.01.154.141.271.295.263a.295.295 0 0 0 .32-.248.249.249 0 0 1 .257-.23.272.272 0 0 1 .178.06.22.22 0 0 1 .075.16.281.281 0 0 0 .296.268.286.286 0 0 0 .305-.25.666.666 0 0 0-.24-.538zM66.172 57.903a.624.624 0 0 0-.202-.516.886.886 0 0 0-.596-.248.835.835 0 0 0-.938.637.272.272 0 0 0 .277.277.3.3 0 0 0 .333-.234c0-.099.136-.179.281-.17a.267.267 0 0 1 .174.071c.04.035.062.088.056.14a.267.267 0 0 0 .277.278h.028c.147.01.28-.09.31-.235zM67.616 57.27a.844.844 0 0 0-.938.675.267.267 0 0 0 .277.277.29.29 0 0 0 .333-.23.253.253 0 0 1 .281-.206c.06.002.119.026.164.065.046.048.07.113.066.179a.272.272 0 0 0 .277.281h.028a.295.295 0 0 0 .305-.234.675.675 0 0 0-.211-.559.938.938 0 0 0-.582-.248zM65.463 60.22h.061a.295.295 0 0 0 .3-.206.59.59 0 0 0-.135-.526.905.905 0 0 0-.582-.305.863.863 0 0 0-.99.563.263.263 0 0 0 .24.3.31.31 0 0 0 .36-.201.258.258 0 0 1 .296-.155c.068.008.13.042.174.094a.15.15 0 0 1 .037.131.263.263 0 0 0 .24.305zM67.34 59.493a.872.872 0 0 0-1 .596.258.258 0 0 0 .24.3.31.31 0 0 0 .36-.202.263.263 0 0 1 .3-.187c.063.006.12.036.16.084.043.049.06.115.047.178a.263.263 0 0 0 .24.3h.06a.295.295 0 0 0 .3-.206.647.647 0 0 0-.14-.568.877.877 0 0 0-.568-.295zM64.952 62.27a.3.3 0 0 0 .296-.188.6.6 0 0 0-.08-.54.858.858 0 0 0-.535-.337.886.886 0 0 0-1.055.469.253.253 0 0 0 .216.314.314.314 0 0 0 .375-.178.258.258 0 0 1 .31-.117c.062.01.118.046.154.098.034.04.043.096.024.145a.258.258 0 0 0 .215.315c.026.01.053.017.08.018zM66.805 61.688a.905.905 0 0 0-1.065.52.253.253 0 0 0 .211.315.324.324 0 0 0 .38-.178.277.277 0 0 1 .319-.16c.058.013.11.047.145.094.03.06.03.132 0 .192a.253.253 0 0 0 .216.314.235.235 0 0 0 .08 0 .305.305 0 0 0 .295-.187.67.67 0 0 0-.084-.586.835.835 0 0 0-.497-.324zM63.911 63.156a.938.938 0 0 0-1.112.375.244.244 0 0 0 .174.333.333.333 0 0 0 .399-.145c.037-.09.187-.127.319-.085a.23.23 0 0 1 .14.113c.026.045.026.1 0 .145a.244.244 0 0 0 .174.333.338.338 0 0 0 .398-.14.586.586 0 0 0 0-.545.807.807 0 0 0-.492-.384zM66.007 63.836a.938.938 0 0 0-1.13.422.24.24 0 0 0 .169.333c.15.056.32-.006.399-.145a.29.29 0 0 1 .342-.127.211.211 0 0 1 .127.3.244.244 0 0 0 .168.333.342.342 0 0 0 .118 0 .305.305 0 0 0 .281-.16.652.652 0 0 0 0-.595.816.816 0 0 0-.474-.361zM62.93 65.013a.966.966 0 0 0-1.153.24.24.24 0 0 0 .103.351.347.347 0 0 0 .422-.084.281.281 0 0 1 .338-.057c.06.027.107.076.131.136.02.04.02.087 0 .127a.235.235 0 0 0 .104.352.38.38 0 0 0 .159.037c.103.002.2-.045.263-.126a.567.567 0 0 0 .084-.526.779.779 0 0 0-.45-.45zM65.323 66.345a.746.746 0 0 0-.418-.436.99.99 0 0 0-1.182.29.235.235 0 0 0 .108.352.338.338 0 0 0 .418-.089.314.314 0 0 1 .37-.103.23.23 0 0 1 .113.127c.02.063.007.13-.033.183a.22.22 0 0 0 0 .295c.203-.044.39-.09.563-.14a.628.628 0 0 0 .06-.479zM61.679 66.725a.976.976 0 0 0-1.182.099.23.23 0 0 0 .056.36.352.352 0 0 0 .431-.046.286.286 0 0 1 .329 0c.05.03.086.079.098.136h.615v-.052a.722.722 0 0 0-.347-.497z"/>
            <path fill="#231F20" d="M96.056 44.682c-.797-.507-2.734-.858-4.994-.858-2.261 0-4.221.351-4.995.858-2.223.938-3.907 5.44-3.907 10.867 0 5.426 1.684 9.928 3.907 10.862.792.506 2.73.863 4.995.863s4.197-.357 4.994-.863c2.219-.938 3.907-5.44 3.907-10.862s-1.67-9.934-3.907-10.867z"/>
            <ellipse cx="86.92" cy="55.549" fill="#656262" rx="4.76" ry="11.045"/>
            <ellipse cx="87.127" cy="55.549" fill="#FFF" fill-rule="nonzero" rx="2.692" ry="7.204"/>
            <path d="M98.26 53.602l.043.671a.281.281 0 0 1-.296.267.29.29 0 0 1-.309-.244l-.042-.67a.281.281 0 0 1 .295-.268.29.29 0 0 1 .31.244zm-.881-3.419a.31.31 0 0 1 .361.207l.056.23c.033.145.07.295.099.468a.272.272 0 0 1-.267.291h-.043a.3.3 0 0 1-.31-.22c-.023-.14-.055-.277-.088-.422l-.057-.24a.263.263 0 0 1 .249-.314zm-1.754-.037a.314.314 0 0 1 .366.201l.042.188c.084.352.174.718.234 1.083.029.141-.089.268-.262.291h-.056a.295.295 0 0 1-.31-.22 16.264 16.264 0 0 0-.23-1.055l-.042-.188a.263.263 0 0 1 .258-.31v.01zm.694 4.788a.29.29 0 0 1-.31-.244l-.056-.938-.033-.31a.277.277 0 0 1 .282-.276.295.295 0 0 1 .338.235l.032.314.061.966a.29.29 0 0 1-.314.244v.01zm.296 1.515l-.061.938-.033.328a.295.295 0 0 1-.31.235h-.028a.281.281 0 0 1-.281-.281l.033-.32.056-.937a.295.295 0 0 1 .328-.244.281.281 0 0 1 .296.272v.01zm-2.073-9.211a.328.328 0 0 1 .398.15c.16.356.343.779.507 1.224a.258.258 0 0 1-.211.32.272.272 0 0 1-.09 0 .31.31 0 0 1-.295-.184c-.155-.427-.338-.844-.469-1.191a.244.244 0 0 1 .16-.319zm.051 7.429a.29.29 0 0 1-.31-.244l-.037-.6a.281.281 0 0 1 .296-.272.295.295 0 0 1 .323.244l.038.605a.281.281 0 0 1-.31.267zm.296 2.03l-.038.601a.29.29 0 0 1-.31.244.277.277 0 0 1-.295-.267l.038-.605a.3.3 0 0 1 .323-.244c.151.002.274.121.282.272zm-.498-5.763c0 .07.033.136.047.206.014.07.066.258.09.39a.272.272 0 0 1-.268.29h-.042a.295.295 0 0 1-.305-.225c0-.117-.051-.235-.08-.356-.028-.122-.037-.146-.051-.22a.263.263 0 0 1 .248-.296.31.31 0 0 1 .361.21zm-1.505-6.407a.352.352 0 0 1 .427.09c.276.37.53.754.76 1.134a.244.244 0 0 1-.141.347.436.436 0 0 1-.136 0 .328.328 0 0 1-.282-.14c-.22-.37-.469-.737-.731-1.098a.24.24 0 0 1 .103-.333zm.61 4.535a.29.29 0 0 1-.09 0 .305.305 0 0 1-.295-.183 6.334 6.334 0 0 0-.155-.375c-.056-.126-.051-.112-.075-.173a.249.249 0 0 1 .193-.324.328.328 0 0 1 .394.155l.07.169c.06.126.117.262.169.403a.253.253 0 0 1-.211.328zm.21 13.287c-.05.14-.106.277-.168.408l-.07.164a.305.305 0 0 1-.291.174.39.39 0 0 1-.103 0 .253.253 0 0 1-.193-.328l.075-.17c.057-.13.108-.252.155-.38a.324.324 0 0 1 .385-.173.258.258 0 0 1 .21.305zM92.38 64.98c-.042.061-.084.122-.121.188a4.77 4.77 0 0 1-.226.328.328.328 0 0 1-.267.127.394.394 0 0 1-.16-.038.24.24 0 0 1-.103-.356c.07-.099.141-.202.207-.305l.126-.192c.1-.13.275-.172.423-.103a.24.24 0 0 1 .121.351zm-.121-18.516a.333.333 0 0 1-.15.033.328.328 0 0 1-.273-.131l-.126-.197a6.937 6.937 0 0 0-.207-.305.23.23 0 0 1 .104-.352.347.347 0 0 1 .426.084c.08.108.15.22.226.333l.121.183a.24.24 0 0 1-.121.352zm1.815 18.877c-.23.38-.47.765-.76 1.135a.324.324 0 0 1-.263.127.399.399 0 0 1-.164-.037.235.235 0 0 1-.103-.352c.262-.361.511-.732.731-1.102a.342.342 0 0 1 .418-.113.235.235 0 0 1 .14.342zm0-4.971h-.057a.258.258 0 0 1-.248-.295c0-.075.033-.146.051-.216.02-.07.057-.244.08-.361a.305.305 0 0 1 .347-.22.272.272 0 0 1 .267.29 4.732 4.732 0 0 1-.089.39c-.033.126-.033.14-.047.206a.3.3 0 0 1-.304.206zm1.36 2.11c-.164.446-.347.868-.507 1.225a.314.314 0 0 1-.29.168h-.109a.249.249 0 0 1-.182-.333c.154-.347.337-.76.469-1.19a.328.328 0 0 1 .384-.174.258.258 0 0 1 .249.305h-.014zm.586-1.908l-.042.183a.3.3 0 0 1-.305.206h-.061a.263.263 0 0 1-.244-.3l.042-.188c.085-.347.17-.703.23-1.055a.305.305 0 0 1 .352-.216.263.263 0 0 1 .262.291c-.046.361-.136.722-.22 1.079h-.014zm.938 2.65a7.441 7.441 0 0 1-.197.469l-.08.178a.31.31 0 0 1-.29.169.366.366 0 0 1-.104 0 .249.249 0 0 1-.192-.329l.08-.178c.065-.16.131-.305.187-.469a.319.319 0 0 1 .385-.173.253.253 0 0 1 .21.333zm-.211-15.032a.295.295 0 0 1-.09 0 .305.305 0 0 1-.295-.183c-.056-.155-.122-.3-.187-.469l-.08-.183a.249.249 0 0 1 .192-.328.324.324 0 0 1 .394.16l.08.178c.066.154.136.314.197.469a.253.253 0 0 1-.211.356zm1.149 11.842c-.028.155-.066.305-.099.47l-.056.23a.3.3 0 0 1-.305.206h-.056a.263.263 0 0 1-.249-.3l.057-.24c.033-.145.065-.281.089-.417a.314.314 0 0 1 .352-.22.272.272 0 0 1 .267.271zm.366-2.542a.29.29 0 0 1-.31.244.29.29 0 0 1-.295-.272l.042-.67a.29.29 0 0 1 .328-.244.286.286 0 0 1 .296.272l-.061.67z"/>
            <path fill="#FFF" fill-rule="nonzero" d="M90.044 44.128c.065.06.15.092.239.09.072 0 .142-.02.202-.061a.225.225 0 0 0 .06-.329c-.262 0-.525 0-.773.033l.051.052.22.215zM94.457 44.447c.094.132.178.263.263.394l.14.207a.324.324 0 0 0 .273.136.469.469 0 0 0 .15-.033.235.235 0 0 0 .117-.352l-.131-.202c-.07-.107-.141-.215-.216-.323a9.596 9.596 0 0 0-.554-.136.225.225 0 0 0-.042.31zM93.514 45.962c.064.092.17.145.282.141a.436.436 0 0 0 .136 0 .244.244 0 0 0 .14-.347c-.23-.38-.468-.765-.76-1.135a.352.352 0 0 0-.426-.09.24.24 0 0 0-.103.357c.262.357.511.723.731 1.074zM92.258 45.93c-.076-.113-.146-.226-.226-.334a.347.347 0 0 0-.426-.084.23.23 0 0 0-.104.352c.07.098.141.201.207.305l.126.197a.328.328 0 0 0 .272.13c.052.002.104-.01.15-.032a.24.24 0 0 0 .122-.352l-.121-.183zM96.76 47.393l-.08-.178a.324.324 0 0 0-.394-.16.249.249 0 0 0-.192.328l.08.183c.065.155.131.3.187.47.051.116.169.189.296.182.03.005.06.005.089 0a.253.253 0 0 0 .21-.319c-.07-.192-.13-.352-.196-.506zM94.851 48.776a.31.31 0 0 0 .296.183c.03.005.06.005.089 0a.258.258 0 0 0 .21-.319c-.163-.469-.346-.867-.506-1.224a.328.328 0 0 0-.398-.15.244.244 0 0 0-.183.328c.154.32.337.737.492 1.182zM93.707 48.743a4.526 4.526 0 0 0-.17-.403l-.07-.169a.328.328 0 0 0-.393-.155.249.249 0 0 0-.193.324c0 .061.052.117.075.174.024.056.108.248.155.375.05.116.169.19.296.183a.29.29 0 0 0 .089 0 .253.253 0 0 0 .21-.329zM97.187 50.709c.033.145.065.281.089.422a.3.3 0 0 0 .31.22h.042a.272.272 0 0 0 .267-.29c-.028-.15-.066-.3-.099-.47l-.056-.23a.31.31 0 0 0-.361-.206.263.263 0 0 0-.249.296l.057.258zM95.381 50.437l.042.187c.085.347.17.704.23 1.055a.295.295 0 0 0 .31.22h.042c.173 0 .29-.15.262-.29-.06-.366-.15-.732-.234-1.083l-.042-.188a.314.314 0 0 0-.366-.202.263.263 0 0 0-.244.3zM94.03 50.727a.263.263 0 0 0-.248.296c0 .075.033.145.051.22.02.075.057.24.08.357a.295.295 0 0 0 .305.225h.042a.272.272 0 0 0 .267-.291 5.218 5.218 0 0 0-.089-.39c-.032-.126-.032-.135-.047-.206a.31.31 0 0 0-.36-.21zM97.637 53.626l.042.67a.29.29 0 0 0 .31.244.281.281 0 0 0 .295-.267l-.042-.67a.29.29 0 0 0-.328-.245.281.281 0 0 0-.277.268zM96.554 53.687l-.033-.314a.295.295 0 0 0-.338-.235.277.277 0 0 0-.281.277l.033.31.056.937a.29.29 0 0 0 .31.244.29.29 0 0 0 .295-.272l-.042-.947zM94.851 53.795a.295.295 0 0 0-.324-.244.281.281 0 0 0-.295.272l.038.6a.29.29 0 0 0 .31.244.281.281 0 0 0 .295-.267l-.024-.605zM98.007 56.552a.29.29 0 0 0-.328.244l-.042.67a.29.29 0 0 0 .295.273.29.29 0 0 0 .31-.244l.042-.67a.286.286 0 0 0-.277-.273zM96.32 56.172a.295.295 0 0 0-.33.244l-.055.938-.033.32c0 .155.126.28.281.28h.028c.147.01.28-.09.31-.234l.033-.328.06-.938a.281.281 0 0 0-.295-.282zM94.593 56.426a.3.3 0 0 0-.323.244l-.038.605a.277.277 0 0 0 .295.267.29.29 0 0 0 .31-.244l.038-.6a.286.286 0 0 0-.282-.272zM97.628 59.746a.314.314 0 0 0-.352.22c-.024.137-.056.273-.09.418l-.056.24a.263.263 0 0 0 .249.3h.056a.3.3 0 0 0 .305-.207l.056-.23c.033-.145.07-.295.099-.469a.272.272 0 0 0-.267-.272zM96.005 59.198a.305.305 0 0 0-.352.215c-.06.352-.145.708-.23 1.056l-.042.187a.263.263 0 0 0 .244.3h.06a.3.3 0 0 0 .306-.206l.042-.183c.084-.356.174-.718.234-1.083a.263.263 0 0 0-.262-.286zM94.438 59.953c.033-.127.066-.254.09-.39a.272.272 0 0 0-.268-.29.305.305 0 0 0-.347.22c0 .117-.051.234-.08.361-.028.127-.037.14-.051.216a.258.258 0 0 0 .248.295h.043a.3.3 0 0 0 .304-.21.785.785 0 0 0 .061-.202zM96.746 62.903a.319.319 0 0 0-.385.173c-.056.15-.122.296-.187.47l-.08.177a.249.249 0 0 0 .192.329.366.366 0 0 0 .103 0 .31.31 0 0 0 .291-.17l.08-.177c.066-.16.136-.32.197-.47a.253.253 0 0 0-.211-.332zM95.236 62.162a.328.328 0 0 0-.385.173c-.155.432-.338.844-.469 1.191a.249.249 0 0 0 .183.333h.108a.314.314 0 0 0 .29-.168c.16-.357.343-.779.507-1.225a.258.258 0 0 0-.234-.304zM93.496 62.03a.324.324 0 0 0-.385.174 8.108 8.108 0 0 1-.155.38l-.075.169a.253.253 0 0 0 .193.328.39.39 0 0 0 .103 0 .305.305 0 0 0 .29-.174l.07-.164c.06-.131.117-.267.17-.408a.258.258 0 0 0-.211-.305zM95.4 66.294a.23.23 0 0 0-.117-.348.342.342 0 0 0-.423.099l-.14.211c-.085.131-.17.263-.263.39a.225.225 0 0 0 .042.309c.197-.042.385-.09.554-.136l.216-.324.13-.201zM93.932 65a.342.342 0 0 0-.418.112c-.22.37-.469.74-.731 1.102a.235.235 0 0 0 .103.352.399.399 0 0 0 .164.037c.103.002.2-.045.263-.127.276-.37.53-.755.76-1.135a.235.235 0 0 0-.141-.342zM92.258 64.629a.347.347 0 0 0-.423.103l-.126.192a6.937 6.937 0 0 1-.207.305.24.24 0 0 0 .104.356c.05.024.104.037.16.038a.328.328 0 0 0 .266-.127c.08-.108.15-.22.226-.328.075-.108.08-.127.121-.188a.24.24 0 0 0-.121-.351zM90.485 66.936a.361.361 0 0 0-.441.033l-.211.206-.061.057c.248 0 .511.028.774.032a.225.225 0 0 0-.061-.328z"/>
            <path fill="#231F20" d="M125.758 44.682c-.792-.507-2.73-.858-4.994-.858-2.266 0-4.222.351-4.995.858-2.219.938-3.907 5.44-3.907 10.867 0 5.426 1.688 9.928 3.907 10.862.797.506 2.73.863 4.995.863s4.22-.357 4.994-.863c2.223-.938 3.907-5.44 3.907-10.862s-1.684-9.934-3.907-10.867z"/>
            <ellipse cx="116.622" cy="55.549" fill="#656262" rx="4.76" ry="11.045"/>
            <ellipse cx="116.833" cy="55.549" fill="#FFF" fill-rule="nonzero" rx="2.692" ry="7.204"/>
            <path d="M128.056 54.207a.23.23 0 0 1-.107.352l-.713.342a1.313 1.313 0 0 1-.53.113 1.182 1.182 0 0 1-.98-.469.492.492 0 0 0-.291-.197.6.6 0 0 0-.385.042l-.703.32a.347.347 0 0 1-.422-.104.235.235 0 0 1 .126-.347l.699-.319c.267-.121.568-.151.854-.084.267.056.503.212.66.436.153.215.438.29.676.178l.694-.333a.347.347 0 0 1 .422.07zm-.267-2.438a.235.235 0 0 1-.075.36l-.666.39a1.233 1.233 0 0 1-.619.164c-.07.005-.14.005-.211 0a1.182 1.182 0 0 1-.727-.403.469.469 0 0 0-.305-.17.6.6 0 0 0-.375.067c-.225.126-.469.253-.675.375a.352.352 0 0 1-.427-.075.23.23 0 0 1 .089-.357c.225-.117.44-.239.657-.366.258-.142.557-.193.848-.145.276.036.529.173.709.385.081.101.199.169.328.187a.563.563 0 0 0 .352-.06l.661-.395a.366.366 0 0 1 .436.043zm-1.008-2.444a.366.366 0 0 1 .44 0 .225.225 0 0 1-.023.361c-.206.155-.408.305-.619.47a1.248 1.248 0 0 1-.797.21 1.229 1.229 0 0 1-.779-.342.502.502 0 0 0-.319-.14.582.582 0 0 0-.37.098c-.207.145-.418.29-.629.426a.324.324 0 0 1-.192.061.328.328 0 0 1-.244-.098.23.23 0 0 1 .047-.361c.206-.136.413-.277.61-.418.245-.166.54-.244.835-.22.278.016.541.133.74.328a.553.553 0 0 0 .357.155c.12.01.239-.022.338-.09l.605-.44zm-.887-2.345c.13-.1.311-.1.441 0a.23.23 0 0 1 .028.361l-.553.497c-.212.182-.48.283-.76.286-.298.01-.59-.084-.825-.267a.53.53 0 0 0-.338-.108.544.544 0 0 0-.352.136c-.173.155-.366.314-.562.47-.13.1-.311.1-.441 0a.225.225 0 0 1 0-.362l.544-.469c.221-.192.504-.298.797-.3.282-.013.56.075.783.248.106.085.24.128.375.122a.469.469 0 0 0 .324-.117c.183-.15.361-.319.54-.488v-.009zm-4.413-.872l.47-.526c.19-.209.45-.34.73-.37.285-.043.574.013.821.16.12.07.261.098.4.08a.469.469 0 0 0 .295-.156c.183-.21.328-.389.469-.548a.347.347 0 0 1 .426-.08.235.235 0 0 1 .094.356 15.79 15.79 0 0 1-.469.572 1.102 1.102 0 0 1-.703.362 1.35 1.35 0 0 1-.863-.174.516.516 0 0 0-.352-.066.502.502 0 0 0-.333.174c-.16.184-.316.363-.469.535a.342.342 0 0 1-.436.046.225.225 0 0 1-.08-.356v-.01zm3.438 20.35h-.83a1.2 1.2 0 0 1-.765-.277.868.868 0 0 1-.314-.69.342.342 0 0 0-.131-.276.563.563 0 0 0-.361-.127c-.315 0-.568 0-.807-.023a.281.281 0 0 1-.296-.272.295.295 0 0 1 .329-.24h.783c.29.001.572.102.797.287.197.158.31.399.305.652a.394.394 0 0 0 .14.314c.091.076.206.118.324.117h.812a.29.29 0 0 1 .31.253.286.286 0 0 1-.296.291v-.01zm1.257-2.28c-.286.038-.554.07-.821.094h-.127c-.249.004-.493-.07-.698-.21a.91.91 0 0 1-.4-.625.394.394 0 0 0-.173-.262.605.605 0 0 0-.375-.085c-.272.028-.54.047-.802.066a.3.3 0 0 1-.337-.23.281.281 0 0 1 .28-.281c.264 0 .522-.038.784-.066a1.3 1.3 0 0 1 .835.197.872.872 0 0 1 .408.61.436.436 0 0 0 .178.286c.105.07.232.1.357.084.258-.023.516-.051.797-.089a.314.314 0 0 1 .356.216.267.267 0 0 1-.262.305v-.01zm.896-2.345c-.268.061-.53.118-.798.17a1.163 1.163 0 0 1-.253.027 1.093 1.093 0 0 1-1.083-.731.403.403 0 0 0-.211-.254.596.596 0 0 0-.385-.051l-.788.145a.314.314 0 0 1-.366-.197.258.258 0 0 1 .24-.305l.773-.14c.29-.061.59-.022.854.112a.938.938 0 0 1 .469.572.497.497 0 0 0 .586.324l.783-.164a.324.324 0 0 1 .38.178.253.253 0 0 1-.201.305v.01zm.576-2.41c-.257.084-.515.16-.778.234a1.266 1.266 0 0 1-.83-.038 1.032 1.032 0 0 1-.577-.553.431.431 0 0 0-.249-.23.567.567 0 0 0-.384 0c-.254.075-.507.146-.76.211a.324.324 0 0 1-.394-.164.253.253 0 0 1 .202-.323l.75-.207c.282-.084.585-.07.858.038a.994.994 0 0 1 .563.53c.05.116.145.208.263.253.115.04.24.04.356 0l.76-.23a.333.333 0 0 1 .403.15.244.244 0 0 1-.183.32v.009zm.272-2.425l-.736.286c-.15.058-.309.086-.469.084-.132.001-.263-.02-.39-.06a1.079 1.079 0 0 1-.632-.502.431.431 0 0 0-.263-.211.6.6 0 0 0-.385 0c-.243.093-.497.182-.745.272a.338.338 0 0 1-.408-.136.249.249 0 0 1 .164-.338l.727-.263c.28-.106.587-.114.872-.023.257.07.475.24.61.469.06.11.161.19.281.225.117.04.244.04.361 0l.737-.286a.342.342 0 0 1 .412.122.24.24 0 0 1-.136.352v.009z"/>
            <path fill="#FFF" fill-rule="nonzero" d="M121.716 43.866c.277.118.585.14.877.065h.056a22.078 22.078 0 0 0-1.013-.065h.08zM120.135 44.4a.234.234 0 0 0 .122.348.333.333 0 0 0 .15.032.328.328 0 0 0 .272-.13c.127-.193.253-.39.375-.592a.492.492 0 0 1 .286-.21.286.286 0 0 1 .061 0h-.9l-.366.552zM121.537 46.473a.342.342 0 0 0 .436-.047c.16-.171.316-.35.47-.534a.502.502 0 0 1 .333-.174.516.516 0 0 1 .351.066c.26.153.564.214.863.174.271-.03.522-.158.704-.362.192-.225.337-.403.469-.572a.235.235 0 0 0-.094-.356.347.347 0 0 0-.427.08c-.126.159-.272.337-.469.548a.469.469 0 0 1-.295.155.624.624 0 0 1-.399-.08 1.248 1.248 0 0 0-.797-.16 1.15 1.15 0 0 0-.737.38l-.469.526a.225.225 0 0 0 .061.356zM124.656 47.487a1.187 1.187 0 0 0-.783-.249 1.229 1.229 0 0 0-.797.3l-.544.47a.225.225 0 0 0 0 .36c.13.1.31.1.44 0 .197-.169.39-.328.563-.469a.544.544 0 0 1 .352-.136.53.53 0 0 1 .338.108c.235.183.527.278.825.267.28-.003.548-.104.76-.286l.553-.51a.23.23 0 0 0-.028-.362.361.361 0 0 0-.44 0c-.179.169-.357.338-.54.502a.469.469 0 0 1-.324.117.563.563 0 0 1-.375-.112zM125.838 49.86a.553.553 0 0 1-.342-.146 1.154 1.154 0 0 0-.741-.328 1.304 1.304 0 0 0-.835.22c-.197.141-.403.282-.61.418a.23.23 0 0 0-.047.361.328.328 0 0 0 .244.098c.07.001.136-.02.192-.06.212-.137.423-.282.629-.427a.582.582 0 0 1 .37-.099c.12.007.233.057.32.14.21.204.486.325.778.343.282.022.563-.052.797-.21.211-.15.413-.3.62-.47a.225.225 0 0 0 .023-.36.366.366 0 0 0-.441 0l-.605.468a.525.525 0 0 1-.352.052zM126.34 52.162a.516.516 0 0 1-.328-.187 1.116 1.116 0 0 0-.709-.385 1.313 1.313 0 0 0-.848.146 14.76 14.76 0 0 1-.657.366.23.23 0 0 0-.09.356c.109.12.285.151.428.075.23-.122.469-.249.675-.375a.6.6 0 0 1 .375-.066c.12.015.229.076.305.169.186.218.444.361.727.403.07.005.14.005.211 0 .217.001.43-.056.62-.164l.665-.39a.234.234 0 0 0 .075-.36.366.366 0 0 0-.436-.061l-.661.394a.563.563 0 0 1-.352.08zM127.63 54.118l-.694.333a.544.544 0 0 1-.676-.178 1.083 1.083 0 0 0-.661-.436 1.332 1.332 0 0 0-.854.084l-.698.32a.235.235 0 0 0-.127.346c.099.13.275.172.422.103l.703-.319a.6.6 0 0 1 .385-.042.492.492 0 0 1 .29.197c.232.306.598.481.981.47.183-.001.363-.04.53-.113l.713-.343a.23.23 0 0 0 .108-.351.347.347 0 0 0-.422-.07zM128.07 56.646a.342.342 0 0 0-.412-.122l-.736.286a.558.558 0 0 1-.362 0 .469.469 0 0 1-.281-.225 1.022 1.022 0 0 0-.61-.469 1.323 1.323 0 0 0-.872.024l-.727.262a.249.249 0 0 0-.164.338.338.338 0 0 0 .408.136c.248-.09.502-.178.746-.272a.6.6 0 0 1 .384 0 .431.431 0 0 1 .263.211c.138.243.365.423.633.502.126.04.257.062.39.06.16.003.319-.026.468-.084l.737-.286a.24.24 0 0 0 .136-.36zM127.423 58.935l-.76.23a.544.544 0 0 1-.356 0 .469.469 0 0 1-.263-.254.994.994 0 0 0-.562-.53 1.313 1.313 0 0 0-.859-.037l-.75.206a.253.253 0 0 0-.202.324c.072.146.24.216.394.164.254-.066.507-.136.76-.211a.567.567 0 0 1 .385 0c.11.04.2.123.248.23.11.254.318.454.577.553a1.266 1.266 0 0 0 .83.038c.263-.075.52-.15.779-.235a.244.244 0 0 0 .178-.328.333.333 0 0 0-.399-.15zM126.903 61.331l-.783.165a.497.497 0 0 1-.587-.324.938.938 0 0 0-.469-.572 1.294 1.294 0 0 0-.853-.113l-.774.141a.258.258 0 0 0-.24.305.314.314 0 0 0 .366.197l.788-.146a.596.596 0 0 1 .385.052c.103.05.18.143.211.253.16.457.6.755 1.083.732.086 0 .17-.01.254-.028.267-.052.53-.108.797-.17a.253.253 0 0 0 .22-.313.324.324 0 0 0-.398-.179zM126.082 63.681c-.281.038-.54.066-.797.09a.52.52 0 0 1-.357-.085.436.436 0 0 1-.178-.286.872.872 0 0 0-.408-.61 1.3 1.3 0 0 0-.835-.197c-.262.028-.52.047-.783.066a.281.281 0 0 0-.281.281.3.3 0 0 0 .337.23c.263 0 .53-.038.802-.066a.605.605 0 0 1 .375.085c.092.06.155.155.174.262a.91.91 0 0 0 .399.624c.205.142.45.215.698.211h.127c.267-.023.535-.056.82-.094a.267.267 0 0 0 .263-.29.314.314 0 0 0-.356-.22zM124.914 65.951h-.811a.497.497 0 0 1-.324-.117.394.394 0 0 1-.14-.314.816.816 0 0 0-.305-.652 1.262 1.262 0 0 0-.798-.286h-.783a.295.295 0 0 0-.328.239.281.281 0 0 0 .295.272c.24 0 .493 0 .807.023a.563.563 0 0 1 .361.127.342.342 0 0 1 .131.277c-.006.265.11.52.315.69a1.2 1.2 0 0 0 .764.276h.83a.286.286 0 0 0 .305-.263.29.29 0 0 0-.319-.272zM121.237 66.444l-.764-.122a.314.314 0 0 0-.37.197.267.267 0 0 0 .238.305l.793.126a.544.544 0 0 1 .333.169c.034.041.06.09.075.14l.62-.032a.797.797 0 0 0-.188-.403 1.158 1.158 0 0 0-.737-.38z"/>
            <path fill="#231F20" d="M125.758 82.23c-.792-.502-2.73-.858-4.994-.858-2.266 0-4.222.356-4.995.858-2.219.938-3.907 5.445-3.907 10.867 0 5.422 1.688 9.929 3.907 10.867.797.502 2.73.858 4.995.858s4.22-.356 4.994-.858c2.223-.938 3.907-5.445 3.907-10.867 0-5.422-1.684-9.929-3.907-10.867z"/>
            <ellipse cx="116.622" cy="93.097" fill="#656262" rx="4.76" ry="11.045"/>
            <ellipse cx="116.833" cy="93.097" fill="#FFF" fill-rule="nonzero" rx="2.692" ry="7.204"/>
            <path d="M127.944 90.958c.035.47-.152.929-.507 1.239-.39.339-.89.527-1.407.53h-.065a2.345 2.345 0 0 1-1.384-.432 1.505 1.505 0 0 1-.67-1.079.277.277 0 0 1 .28-.276.3.3 0 0 1 .339.234c.037.302.21.571.469.732.293.21.647.317 1.008.305.356.003.701-.124.97-.357.245-.214.375-.53.353-.853a.277.277 0 0 1 .28-.277.305.305 0 0 1 .334.234zm.084 2.814c-.017.478-.258.92-.652 1.192a2.18 2.18 0 0 1-1.313.417h-.155a2.312 2.312 0 0 1-1.374-.544 1.463 1.463 0 0 1-.54-1.126.286.286 0 0 1 .31-.258.286.286 0 0 1 .31.258c.001.299.135.58.366.77.274.233.616.37.975.389.357.027.712-.07 1.004-.277.276-.183.45-.485.469-.816a.29.29 0 0 1 .31-.258.286.286 0 0 1 .29.24v.013zm-.895-5.796a.305.305 0 0 1 .365.197c.103.457-.023.936-.337 1.285a2.101 2.101 0 0 1-1.346.652h-.263a2.448 2.448 0 0 1-1.21-.315 1.609 1.609 0 0 1-.807-1.003.258.258 0 0 1 .24-.3.305.305 0 0 1 .365.196c.08.295.279.543.55.685.319.179.686.254 1.05.216.357-.022.692-.18.938-.441a.98.98 0 0 0 .234-.882.263.263 0 0 1 .22-.305v.015zm-1.173-1.492c.087-.132.144-.28.169-.436a1.05 1.05 0 0 0-.07-.47.253.253 0 0 1 .201-.323.328.328 0 0 1 .39.17c.086.215.119.448.093.68-.029.226-.11.443-.239.632a1.923 1.923 0 0 1-1.238.779 2.523 2.523 0 0 1-1.51-.155 1.876 1.876 0 0 1-.577-.375 1.529 1.529 0 0 1-.37-.535.258.258 0 0 1 .206-.323.328.328 0 0 1 .389.168.905.905 0 0 0 .244.348c.114.112.25.202.399.262.336.146.71.183 1.069.108a1.3 1.3 0 0 0 .849-.544l-.005.014zm-4.221-2.251a.24.24 0 0 1 .136-.347.352.352 0 0 1 .417.112c.173.262.437.45.741.526.352.11.728.11 1.08 0 .324-.096.596-.322.75-.624a.961.961 0 0 0-.061-.938.234.234 0 0 1 .13-.342.338.338 0 0 1 .418.112c.252.399.287.897.094 1.327-.221.452-.62.792-1.102.938-.254.085-.52.127-.788.127a2.748 2.748 0 0 1-.727-.103 1.876 1.876 0 0 1-1.083-.802l-.005.014zm4.362 17.855a1.876 1.876 0 0 1-1.13.938 2.345 2.345 0 0 1-1.562-.066 1.932 1.932 0 0 1-1.027-.938c-.201-.37-.212-.813-.029-1.191.081-.138.247-.2.4-.15a.249.249 0 0 1 .177.333.9.9 0 0 0 .024.811c.157.3.416.533.731.657.338.137.712.153 1.06.047.337-.101.618-.335.779-.648.08-.138.247-.2.399-.15a.249.249 0 0 1 .164.343l.014.014zm1.064-2.716c-.16.47-.514.85-.97 1.046-.295.133-.615.2-.938.197a2.345 2.345 0 0 1-.62-.08 2.11 2.11 0 0 1-1.181-.792 1.355 1.355 0 0 1-.216-1.191.324.324 0 0 1 .38-.179.249.249 0 0 1 .22.315.938.938 0 0 0 .155.802c.207.275.501.472.835.558.352.094.726.066 1.06-.08.314-.138.555-.402.666-.727a.319.319 0 0 1 .38-.183.258.258 0 0 1 .215.3l.014.014zm.629-2.814c-.082.48-.377.897-.802 1.135-.345.203-.74.308-1.14.305-.127 0-.254-.01-.38-.028a2.223 2.223 0 0 1-1.29-.661 1.407 1.407 0 0 1-.393-1.163.305.305 0 0 1 .342-.23.277.277 0 0 1 .277.281.938.938 0 0 0 .267.797c.243.255.566.42.915.47.354.062.72-.003 1.031-.183.294-.162.498-.449.554-.779a.3.3 0 0 1 .342-.225.272.272 0 0 1 .263.286l.014-.005z"/>
            <path fill="#FFF" fill-rule="nonzero" d="M122.644 82.15a1.83 1.83 0 0 1-1.064.16 1.44 1.44 0 0 1-.47-.145.98.98 0 0 1-.346-.254.352.352 0 0 0-.437-.06.23.23 0 0 0-.075.356c.15.172.336.31.544.403.216.106.447.175.685.206a2.486 2.486 0 0 0 1.482-.225 1.65 1.65 0 0 0 .887-.97 11.116 11.116 0 0 0-.61-.094 1.15 1.15 0 0 1-.596.624zM123.54 85.1c.268 0 .534-.042.788-.126.481-.146.88-.486 1.102-.938.193-.43.158-.929-.094-1.327a.338.338 0 0 0-.417-.113.235.235 0 0 0-.131.342c.182.281.205.636.06.938a1.233 1.233 0 0 1-.75.624c-.351.11-.727.11-1.079 0a1.252 1.252 0 0 1-.74-.525.352.352 0 0 0-.418-.113.24.24 0 0 0-.136.347c.255.385.642.662 1.088.779.236.07.48.108.727.113zM124.047 86.887a1.229 1.229 0 0 1-.4-.262.905.905 0 0 1-.243-.347.328.328 0 0 0-.39-.17.258.258 0 0 0-.206.325c.084.202.21.385.37.534.168.16.364.287.578.375a2.523 2.523 0 0 0 1.51.155c.5-.086.944-.366 1.238-.778.129-.19.21-.407.24-.634a1.407 1.407 0 0 0-.095-.68.328.328 0 0 0-.389-.168.253.253 0 0 0-.201.323c.058.15.082.31.07.47a1.112 1.112 0 0 1-.169.435 1.3 1.3 0 0 1-.844.526c-.359.076-.732.04-1.07-.104zM126.654 89.143c-.245.261-.58.419-.938.441a1.773 1.773 0 0 1-1.05-.216 1.097 1.097 0 0 1-.55-.684.305.305 0 0 0-.365-.197.258.258 0 0 0-.24.3c.118.432.41.796.808 1.004.369.207.786.316 1.21.314h.262a2.101 2.101 0 0 0 1.346-.652c.315-.348.44-.827.338-1.285a.305.305 0 0 0-.366-.197.263.263 0 0 0-.244.3.98.98 0 0 1-.21.872zM127.325 90.987c.023.323-.107.64-.352.853-.27.233-.615.36-.97.357a1.632 1.632 0 0 1-1.01-.305 1.008 1.008 0 0 1-.468-.732.3.3 0 0 0-.338-.234.277.277 0 0 0-.281.276c.053.441.299.836.67 1.079.405.286.889.437 1.384.431h.042a2.162 2.162 0 0 0 1.407-.53c.355-.31.542-.768.507-1.238a.305.305 0 0 0-.338-.234.277.277 0 0 0-.253.277zM127.719 93.5a.29.29 0 0 0-.31.258c-.02.33-.193.633-.469.816a1.534 1.534 0 0 1-1.003.277 1.642 1.642 0 0 1-.976-.39.999.999 0 0 1-.366-.768.286.286 0 0 0-.31-.258.286.286 0 0 0-.309.258c.003.437.2.85.54 1.125.386.327.868.518 1.374.544h.154a2.18 2.18 0 0 0 1.314-.417c.393-.272.634-.714.652-1.191a.286.286 0 0 0-.291-.254zM127.503 96.282a.3.3 0 0 0-.342.225c-.056.33-.26.617-.554.778-.312.18-.677.245-1.032.183a1.562 1.562 0 0 1-.914-.469.938.938 0 0 1-.267-.797.277.277 0 0 0-.277-.282.305.305 0 0 0-.342.23c-.054.428.09.856.393 1.163.344.359.798.592 1.29.662.126.018.253.028.38.028.4.003.794-.102 1.14-.305.425-.238.72-.655.802-1.135a.272.272 0 0 0-.277-.281zM126.93 99.044a.319.319 0 0 0-.379.183c-.11.325-.352.589-.666.727a1.604 1.604 0 0 1-1.06.08 1.52 1.52 0 0 1-.835-.559.938.938 0 0 1-.155-.802.249.249 0 0 0-.22-.314.324.324 0 0 0-.38.178c-.12.41-.04.85.216 1.192.29.393.708.673 1.182.792.202.054.41.081.619.08.323.003.643-.065.938-.197.457-.196.81-.576.97-1.046a.258.258 0 0 0-.23-.314zM125.908 101.74a.338.338 0 0 0-.398.15c-.161.313-.442.547-.779.648-.348.107-.722.09-1.06-.047a1.407 1.407 0 0 1-.731-.656.9.9 0 0 1-.024-.812.249.249 0 0 0-.178-.333.338.338 0 0 0-.399.15c-.183.379-.172.822.028 1.192.215.429.58.763 1.028.938.497.2 1.049.223 1.561.065a1.876 1.876 0 0 0 1.13-.938.249.249 0 0 0-.178-.356zM124.426 104.325a.356.356 0 0 0-.426.094.976.976 0 0 1-.127.15c.24-.042.469-.09.67-.14a.281.281 0 0 0-.117-.104zM121.476 104.02a1.06 1.06 0 0 1-.028-.413.976.976 0 0 1 .16-.384.235.235 0 0 0-.113-.347.356.356 0 0 0-.427.094 1.341 1.341 0 0 0-.197 1.163c.074.255.206.489.385.684.286 0 .563 0 .835-.037h-.024a1.29 1.29 0 0 1-.59-.76zM119.493 104.785h.356a.356.356 0 0 0-.356 0z"/>
            <path fill="#231F20" d="M96.056 82.23c-.797-.502-2.734-.858-4.994-.858-2.261 0-4.221.356-4.995.858-2.223.938-3.907 5.445-3.907 10.867 0 5.422 1.684 9.929 3.907 10.867.792.502 2.73.858 4.995.858s4.197-.356 4.994-.858c2.219-.938 3.907-5.445 3.907-10.867 0-5.422-1.67-9.929-3.907-10.867z"/>
            <ellipse cx="86.92" cy="93.097" fill="#656262" rx="4.76" ry="11.045"/>
            <ellipse cx="87.127" cy="93.097" fill="#FFF" fill-rule="nonzero" rx="2.692" ry="7.204"/>
            <path d="M98.054 90.442l.052.043a.225.225 0 0 1 .038.347l-.516.54-.347.337c.13.098.257.201.384.305a.23.23 0 0 1 0 .365.366.366 0 0 1-.22.076.342.342 0 0 1-.216-.076l-.544-.431-.042-.033a.23.23 0 0 1 0-.356l.53-.516.328-.338-.399-.286a.23.23 0 0 1-.033-.361.352.352 0 0 1 .437-.028l.548.412zm-1.876-4.085a.347.347 0 0 1 .427-.084c.235.117.47.244.713.37a.23.23 0 0 1 .099.338v.042c-.22.324-.432.638-.662.938.146.085.291.17.432.258a.23.23 0 0 1 .07.357.333.333 0 0 1-.253.108.37.37 0 0 1-.183-.052l-.661-.39a.23.23 0 0 1-.085-.346c.24-.31.47-.629.685-.938l-.47-.235a.235.235 0 0 1-.126-.366h.014zm-1.294 8.668l-.53-.47a.23.23 0 0 1-.08-.187.244.244 0 0 1 .103-.178l.07-.052c.174-.126.348-.248.517-.38a.352.352 0 0 1 .436 0 .225.225 0 0 1 0 .361l-.357.268.32.29.525.507c.05.049.076.118.07.188a.249.249 0 0 1-.113.173l-.07.047c-.183.127-.361.253-.549.375a.338.338 0 0 1-.192.052.352.352 0 0 1-.244-.094.23.23 0 0 1 .052-.361c.126-.084.248-.164.366-.249l-.324-.29zm1.055-3.077l-.056.052-.47.436a.356.356 0 0 1-.44.004.225.225 0 0 1 0-.36 9.24 9.24 0 0 0 .319-.287l-.356-.262-.596-.408a.253.253 0 0 1-.117-.179.225.225 0 0 1 .075-.187l.047-.047.469-.446a.352.352 0 0 1 .436-.037.23.23 0 0 1 .047.36l-.31.306.366.248.596.441a.244.244 0 0 1 .103.178.23.23 0 0 1-.103.188h-.01zm-1.444-9.122a.328.328 0 0 1 .398-.15c.263.08.52.164.788.253a.249.249 0 0 1 .178.314 15.883 15.883 0 0 1-.445 1.088l.469.193a.24.24 0 0 1 .14.342.319.319 0 0 1-.28.145.37.37 0 0 1-.137-.028l-.736-.286a.244.244 0 0 1-.16-.328 12.583 12.583 0 0 0 .45-1.05l-.506-.165a.244.244 0 0 1-.173-.328h.014zm0 4.3l-.24.334c.366.178.732.36 1.089.558a.235.235 0 0 1 .084.356l-.469.544a.342.342 0 0 1-.253.113.375.375 0 0 1-.179-.047.23.23 0 0 1-.08-.357l.268-.323a31.67 31.67 0 0 0-1.055-.53.277.277 0 0 1-.15-.16.24.24 0 0 1 .033-.201c.136-.178.267-.361.398-.544a.347.347 0 0 1 .427-.094.235.235 0 0 1 .122.352h.005zm-2.298-2.64a.23.23 0 0 1 0-.206c.093-.193.182-.394.267-.596a.338.338 0 0 1 .399-.155.249.249 0 0 1 .187.329l-.155.356.427.127c.263.08.516.164.755.248a.244.244 0 0 1 .164.338c-.107.206-.21.403-.323.6a.319.319 0 0 1-.282.15.431.431 0 0 1-.13-.023.244.244 0 0 1-.151-.342c.066-.113.127-.23.192-.347l-.431-.136-.722-.212a.3.3 0 0 1-.197-.13zm1.547 16.523l-.427.146.179.356c.103.211.201.413.29.619a.211.211 0 0 1 0 .197.281.281 0 0 1-.178.136l-.755.206h-.094a.314.314 0 0 1-.295-.178.253.253 0 0 1 .202-.323l.44-.118-.173-.356c-.094-.197-.197-.39-.3-.577a.216.216 0 0 1 0-.206.277.277 0 0 1 .173-.141l.718-.244a.333.333 0 0 1 .408.136.244.244 0 0 1-.202.347h.014zm.22-1.688a.235.235 0 0 1 .109-.361l.412-.193c-.215-.286-.44-.577-.68-.858a.235.235 0 0 1-.051-.197.263.263 0 0 1 .14-.169l.652-.347a.356.356 0 0 1 .432.07.23.23 0 0 1-.09.357l-.393.211c.244.295.469.596.684.891.043.056.057.13.038.197a.267.267 0 0 1-.145.16l-.7.328a.408.408 0 0 1-.15.028.333.333 0 0 1-.271-.117h.014zm2.233 2.992a18.02 18.02 0 0 1-.774.29l-.497.174.155.432a.253.253 0 0 1-.211.319h-.085a.314.314 0 0 1-.3-.188 15.03 15.03 0 0 0-.239-.642.253.253 0 0 1 .188-.32c.239-.074.469-.159.745-.253l.47-.183-.198-.417a.244.244 0 0 1 .174-.333c.15-.055.32.004.403.14.103.216.202.432.3.653a.24.24 0 0 1-.145.328h.014zm1.407-3.752c-.375.23-.769.469-1.14.642l.254.39a.235.235 0 0 1-.132.347.38.38 0 0 1-.145.028.319.319 0 0 1-.272-.136 25.537 25.537 0 0 0-.385-.591.225.225 0 0 1 .104-.338c.351-.187.74-.398 1.116-.619l-.286-.375a.23.23 0 0 1 .098-.352.342.342 0 0 1 .427.08c.15.192.295.385.44.586a.23.23 0 0 1-.093.329l.014.009zm0-3.382l-.403.296.328.352a.225.225 0 0 1-.06.356.333.333 0 0 1-.188.052.338.338 0 0 1-.249-.099c-.14-.16-.29-.314-.44-.469l-.062-.06a.225.225 0 0 1 .042-.353l.605-.469.38-.3-.342-.328a.225.225 0 0 1 .023-.361.361.361 0 0 1 .441.023l.47.47.065.065a.225.225 0 0 1-.024.352l-.586.473z"/>
            <path fill="#FFF" fill-rule="nonzero" d="M93.65 81.574a.277.277 0 0 0 .108 0l-.642-.08.469.089.065-.01zM90.114 81.742a.342.342 0 0 0 .225.094c.413 0 .816.052 1.196.099-.033.126-.06.244-.098.36a.263.263 0 0 0 .23.31h.075a.3.3 0 0 0 .3-.197c.06-.206.112-.417.16-.651a.225.225 0 0 0-.052-.193.328.328 0 0 0-.202-.108c-.281-.037-.577-.07-.882-.093-.337 0-.67 0-.99.023-.01.05-.018.1-.023.15a.211.211 0 0 0 .061.206zM94.659 83.154l.506.164c-.051.141-.112.282-.169.427-.056.146-.182.422-.28.624a.244.244 0 0 0 .159.328l.736.286a.37.37 0 0 0 .136.028c.113.005.22-.05.281-.145a.24.24 0 0 0-.14-.342l-.47-.193c.066-.14.127-.281.188-.431.061-.15.178-.436.258-.657a.249.249 0 0 0-.178-.314c-.267-.09-.525-.173-.788-.253a.328.328 0 0 0-.399.15.244.244 0 0 0 .16.328zM93.52 84.965c-.067.117-.127.234-.193.347a.244.244 0 0 0 .15.342.431.431 0 0 0 .131.023.319.319 0 0 0 .282-.15c.112-.197.215-.394.323-.6a.244.244 0 0 0-.164-.338c-.24-.084-.469-.169-.755-.248l-.427-.127.155-.356a.249.249 0 0 0-.188-.329.338.338 0 0 0-.398.155c-.085.202-.174.403-.268.596a.23.23 0 0 0 0 .206.3.3 0 0 0 .183.131l.723.212.445.136zM96.267 86.71l.47.234c-.226.328-.47.647-.685.938a.23.23 0 0 0 .084.347l.661.39a.37.37 0 0 0 .183.05.333.333 0 0 0 .254-.107.23.23 0 0 0-.07-.357c-.141-.089-.287-.173-.432-.258.23-.304.44-.619.661-.938v-.042a.23.23 0 0 0-.098-.338 17.012 17.012 0 0 0-.713-.37.347.347 0 0 0-.427.084.235.235 0 0 0 .112.366zM93.955 86.869c-.131.183-.262.366-.398.544a.24.24 0 0 0-.033.201c.026.072.08.13.15.16.352.169.708.347 1.055.53l-.267.323a.23.23 0 0 0 .08.357c.054.03.115.046.178.047a.342.342 0 0 0 .253-.113l.469-.544a.235.235 0 0 0-.084-.356c-.357-.197-.723-.38-1.088-.558l.239-.333a.235.235 0 0 0-.108-.352.347.347 0 0 0-.446.094zM97.046 90.049a.23.23 0 0 0 .033.36l.399.287-.329.337-.53.516a.23.23 0 0 0 0 .357l.042.033.544.431a.342.342 0 0 0 .216.075c.08 0 .157-.027.22-.075a.23.23 0 0 0 0-.366c-.126-.103-.253-.206-.384-.305l.347-.337.516-.54a.225.225 0 0 0-.037-.347l-.052-.042-.572-.413a.352.352 0 0 0-.413.029zM95.902 91.582l-.596-.44-.366-.25.31-.304a.23.23 0 0 0-.047-.361.352.352 0 0 0-.436.037l-.47.446-.046.047a.225.225 0 0 0-.075.187c.01.074.054.14.117.179l.596.408.356.262a9.24 9.24 0 0 1-.319.286.225.225 0 0 0 0 .361.356.356 0 0 0 .44-.005l.47-.435.056-.052a.23.23 0 0 0 .08-.188.244.244 0 0 0-.07-.178zM98.219 94.35l-.066-.066-.47-.47a.361.361 0 0 0-.44-.023.225.225 0 0 0-.023.361l.342.329-.38.3-.605.469a.225.225 0 0 0-.042.352l.06.06c.15.155.301.31.442.47a.338.338 0 0 0 .248.098.333.333 0 0 0 .188-.052.225.225 0 0 0 .06-.356l-.328-.352.404-.295.59-.47a.225.225 0 0 0 .02-.356zM94.762 95.93a.352.352 0 0 0 .244.094.338.338 0 0 0 .192-.052c.188-.122.366-.249.549-.375l.07-.047a.249.249 0 0 0 .113-.174.235.235 0 0 0-.07-.187l-.526-.507-.319-.29.357-.268a.225.225 0 0 0 0-.361.352.352 0 0 0-.436 0c-.17.131-.343.253-.516.38l-.07.052a.244.244 0 0 0-.104.178.23.23 0 0 0 .08.187l.53.47.31.295c-.118.084-.24.164-.366.248a.23.23 0 0 0-.038.357zM97.229 97.628a.342.342 0 0 0-.427-.08.23.23 0 0 0-.098.352l.286.375c-.375.22-.765.431-1.116.619a.225.225 0 0 0-.104.338c.132.197.258.389.385.59.062.089.164.14.272.137.05 0 .1-.01.145-.029a.235.235 0 0 0 .132-.347l-.254-.389c.37-.197.765-.413 1.14-.642a.23.23 0 0 0 .08-.338c-.146-.192-.291-.394-.441-.586zM94.373 99.429l.699-.329a.267.267 0 0 0 .145-.16.225.225 0 0 0-.038-.196c-.215-.296-.44-.596-.684-.891l.394-.211a.23.23 0 0 0 .089-.357.356.356 0 0 0-.432-.07l-.652.347a.263.263 0 0 0-.14.169.235.235 0 0 0 .051.197c.24.281.47.572.68.858l-.412.174a.235.235 0 0 0-.122.347.333.333 0 0 0 .272.131c.05.006.1.003.15-.01zM96.038 101.342a.338.338 0 0 0-.404-.14.244.244 0 0 0-.173.332l.197.418-.47.183a20.21 20.21 0 0 1-.745.253.253.253 0 0 0-.188.319c.085.211.165.427.24.642a.314.314 0 0 0 .3.188h.084a.253.253 0 0 0 .211-.319l-.154-.431.497-.174c.267-.094.53-.192.774-.29a.24.24 0 0 0 .154-.32c-.122-.23-.22-.445-.323-.66zM93.486 100.535l-.717.244a.277.277 0 0 0-.174.141.216.216 0 0 0 0 .206c.103.188.207.38.3.577l.174.357-.441.117a.253.253 0 0 0-.202.324c.055.113.17.183.296.178h.094l.755-.207a.281.281 0 0 0 .178-.136.211.211 0 0 0 0-.197c-.09-.206-.188-.408-.29-.619l-.18-.356.428-.146a.244.244 0 0 0 .164-.337.333.333 0 0 0-.385-.146zM93.604 104.625a.314.314 0 0 0-.141.052l.3-.038a.305.305 0 0 0-.16-.014zM91.798 104.09a.267.267 0 0 0 .248-.304.314.314 0 0 0-.365-.202c-.23.037-.47.07-.741.094a.342.342 0 0 0-.216.108.225.225 0 0 0-.052.206c.074.273.133.55.179.83h.628a7.616 7.616 0 0 0-.131-.666l.45-.066z"/>
            <path fill="#231F20" d="M66.294 82.23c-.784-.502-2.697-.858-4.94-.858-2.24 0-4.15.356-4.933.858-2.195.938-3.865 5.445-3.865 10.867 0 5.422 1.67 9.929 3.865 10.867.783.502 2.697.858 4.934.858s4.155-.356 4.939-.858c2.194-.938 3.86-5.445 3.86-10.867 0-5.422-1.666-9.929-3.86-10.867z"/>
            <ellipse cx="57.265" cy="93.097" fill="#656262" rx="4.704" ry="11.045"/>
            <ellipse cx="57.472" cy="93.097" fill="#FFF" fill-rule="nonzero" rx="2.659" ry="7.204"/>
            <path d="M61.29 81.696c.148.069.306.115.468.136.36.05.727-.012 1.05-.179.101-.057.194-.126.278-.206a20.57 20.57 0 0 0-1.75-.075h-.52l.08.052c.11.116.245.209.393.272zM68.095 90.518a.29.29 0 0 1 .332.23c.052.477-.121.952-.469 1.284a2.073 2.073 0 0 1-1.407.554h-.056a2.317 2.317 0 0 1-1.37-.441c-.367-.26-.61-.66-.67-1.107a.272.272 0 0 1 .272-.281.295.295 0 0 1 .338.23c.04.312.21.593.469.773.29.212.64.322.999.315.348-.005.682-.139.938-.376.246-.231.37-.564.337-.9a.277.277 0 0 1 .287-.281zm-1.225 3.367v.661a.29.29 0 0 1-.304.249.286.286 0 0 1-.296-.268v-.234-.413a.286.286 0 0 1 .31-.253.281.281 0 0 1 .29.258zm-.52-3.916a.305.305 0 0 1 .347.22c0 .146.037.291.051.436 0 .075 0 .15.024.226a.277.277 0 0 1-.277.28h-.028a.286.286 0 0 1-.305-.234l-.028-.234a3.654 3.654 0 0 0-.047-.403.267.267 0 0 1 .24-.291h.023zm.586-2.045c.2-.269.262-.617.164-.938a.263.263 0 0 1 .23-.31.319.319 0 0 1 .37.193c.135.459.044.954-.243 1.336a1.904 1.904 0 0 1-1.28.727 2.275 2.275 0 0 1-.357.024 2.345 2.345 0 0 1-1.13-.282 1.726 1.726 0 0 1-.863-1.003.263.263 0 0 1 .23-.31.31.31 0 0 1 .365.192c.103.302.32.552.605.695.32.169.684.231 1.041.178.336-.052.639-.232.845-.502h.023zm-1.454-1.543a.314.314 0 0 1 .375.183l.07.22c.048.141.095.277.132.418a.258.258 0 0 1-.225.31h-.07a.3.3 0 0 1-.3-.193 6.658 6.658 0 0 0-.127-.403c-.047-.136-.047-.15-.075-.226a.258.258 0 0 1 .201-.31h.02zm-1.674-3.368a.342.342 0 0 1 .413.118l.342.586a.244.244 0 0 1-.136.347.469.469 0 0 1-.136.023.319.319 0 0 1-.277-.14l-.347-.591a.24.24 0 0 1 .14-.343zm-1.173 1.182c.15-.059.321-.004.408.132.165.276.428.48.737.572.347.112.721.112 1.069 0 .324-.088.595-.312.741-.615.14-.31.121-.67-.052-.966a.24.24 0 0 1 .155-.337.328.328 0 0 1 .404.126c.242.418.266.926.065 1.365-.218.448-.62.78-1.102.91a2.43 2.43 0 0 1-.713.108 2.636 2.636 0 0 1-.802-.132 1.876 1.876 0 0 1-1.064-.839.244.244 0 0 1 .168-.347l-.014.023zm3.874 18.137c-.243.463-.662.81-1.163.961a2.186 2.186 0 0 1-1.543-.07 1.876 1.876 0 0 1-.999-.938 1.407 1.407 0 0 1 0-1.224.328.328 0 0 1 .403-.136.244.244 0 0 1 .16.337.994.994 0 0 0 0 .85c.144.302.395.54.703.67.332.142.704.159 1.046.047.35-.114.641-.36.812-.685a.333.333 0 0 1 .403-.136.244.244 0 0 1 .178.3v.024zm-2.129-.737c.038-.07.07-.145.103-.215.033-.07.127-.258.183-.39a.333.333 0 0 1 .394-.15.253.253 0 0 1 .183.333c-.061.132-.127.263-.188.399-.06.136-.07.14-.103.211a.31.31 0 0 1-.286.164.314.314 0 0 1-.112 0 .249.249 0 0 1-.174-.375v.023zm3.522-3.058a1.81 1.81 0 0 1-.914 1.117 2.232 2.232 0 0 1-1.534.183 2.054 2.054 0 0 1-1.2-.774 1.44 1.44 0 0 1-.254-1.22.31.31 0 0 1 .366-.192.253.253 0 0 1 .23.305.994.994 0 0 0 .183.84c.205.278.505.472.844.543.35.088.72.045 1.041-.121.314-.164.545-.451.638-.793a.31.31 0 0 1 .366-.192.258.258 0 0 1 .234.281v.023zm-2.256-.393l.155-.643a.31.31 0 0 1 .357-.206.263.263 0 0 1 .243.304l-.15.643a.3.3 0 0 1-.3.206h-.06a.267.267 0 0 1-.245-.328v.024zm2.162-2.285a2.101 2.101 0 0 1-1.257.4 1.623 1.623 0 0 1-.215 0 2.204 2.204 0 0 1-1.337-.601 1.534 1.534 0 0 1-.469-1.173.281.281 0 0 1 .314-.248.277.277 0 0 1 .296.267c-.011.31.112.609.337.82.257.243.587.392.938.423.355.04.71-.054 1-.263.276-.197.449-.51.468-.849a.3.3 0 0 1 .32-.248.281.281 0 0 1 .295.267c-.043.477-.296.91-.69 1.182v.023z"/>
            <path fill="#FFF" fill-rule="nonzero" d="M60.44 81.761c.16.166.352.298.563.39.22.098.451.163.69.192.107.007.215.007.323 0 .4.005.796-.092 1.15-.282a1.75 1.75 0 0 0 .618-.558l-.68-.075c-.083.08-.176.15-.276.207a1.763 1.763 0 0 1-1.52.042 1.187 1.187 0 0 1-.375-.263l-.08-.051h-.338a.23.23 0 0 0-.075.398zM63.545 85.358c.26.085.53.13.802.132.242 0 .482-.037.713-.108.482-.13.884-.462 1.102-.91.201-.439.177-.947-.065-1.365a.328.328 0 0 0-.404-.126.24.24 0 0 0-.155.337c.173.295.192.655.052.966a1.158 1.158 0 0 1-.741.615 1.735 1.735 0 0 1-1.07 0 1.28 1.28 0 0 1-.736-.572.338.338 0 0 0-.408-.132.244.244 0 0 0-.154.343c.24.395.62.688 1.064.82z"/>
            <path fill="#FFF" fill-rule="nonzero" d="M64.014 83.923a.319.319 0 0 0 .277.141.469.469 0 0 0 .136-.023.244.244 0 0 0 .136-.347l-.342-.587a.342.342 0 0 0-.413-.117.24.24 0 0 0-.14.342l.346.591zM64.994 88.238a1.21 1.21 0 0 1-.605-.694.31.31 0 0 0-.365-.192.263.263 0 0 0-.23.31c.143.435.453.796.863 1.003.347.187.736.284 1.13.281.12.002.238-.006.356-.023.507-.06.969-.323 1.28-.727.289-.382.379-.878.245-1.337a.319.319 0 0 0-.37-.192.263.263 0 0 0-.23.31c.097.32.036.669-.165.938-.213.272-.525.449-.867.492a1.688 1.688 0 0 1-1.042-.169z"/>
            <path fill="#FFF" fill-rule="nonzero" d="M65.463 87.324a.3.3 0 0 0 .3.192h.07a.258.258 0 0 0 .226-.31c-.037-.14-.084-.276-.131-.417l-.07-.22a.314.314 0 0 0-.376-.183.258.258 0 0 0-.22.314c.028.075.051.15.075.225.023.075.065.263.126.399zM67.48 91.68c-.255.238-.59.371-.938.376a1.632 1.632 0 0 1-.999-.314 1.116 1.116 0 0 1-.469-.774.295.295 0 0 0-.338-.23.272.272 0 0 0-.272.281c.06.446.304.847.671 1.107.398.289.878.443 1.37.441h.056c.522 0 1.024-.198 1.407-.553.347-.333.52-.807.469-1.285a.29.29 0 0 0-.333-.23.277.277 0 0 0-.277.281c.031.338-.097.671-.347.9z"/>
            <path fill="#FFF" fill-rule="nonzero" d="M66.139 90.897a.286.286 0 0 0 .305.235h.028a.277.277 0 0 0 .276-.281c0-.076 0-.15-.023-.226 0-.145-.028-.29-.052-.436a.305.305 0 0 0-.347-.22.267.267 0 0 0-.262.29c.023.134.038.269.047.404l.028.234zM68.202 94.354a.3.3 0 0 0-.319.249 1.12 1.12 0 0 1-.469.848 1.435 1.435 0 0 1-.999.263 1.562 1.562 0 0 1-.938-.422 1.074 1.074 0 0 1-.337-.82.277.277 0 0 0-.296-.268.281.281 0 0 0-.314.248c-.02.44.152.868.47 1.173.363.347.835.558 1.336.6.072.005.144.005.215 0 .451.006.892-.134 1.257-.398.403-.28.656-.727.69-1.215a.281.281 0 0 0-.296-.258z"/>
            <path fill="#FFF" fill-rule="nonzero" d="M66.542 93.627a.286.286 0 0 0-.31.253v.647c.01.155.141.273.296.268a.29.29 0 0 0 .305-.249v-.225-.436a.281.281 0 0 0-.305-.258h.014zM67.668 98.21a.31.31 0 0 0-.366.191c-.093.342-.324.63-.638.793-.32.166-.69.21-1.041.122a1.407 1.407 0 0 1-.844-.544.994.994 0 0 1-.183-.84.253.253 0 0 0-.23-.304.31.31 0 0 0-.366.192 1.44 1.44 0 0 0 .253 1.22c.295.393.721.667 1.201.773.517.124 1.06.059 1.534-.183a1.81 1.81 0 0 0 .914-1.116.258.258 0 0 0-.234-.305z"/>
            <path fill="#FFF" fill-rule="nonzero" d="M65.932 98.425a.3.3 0 0 0 .3-.206l.15-.643a.263.263 0 0 0-.243-.305.31.31 0 0 0-.357.207l-.154.642a.267.267 0 0 0 .243.3l.061.005zM66.345 101.97a.333.333 0 0 0-.403.137c-.17.325-.462.57-.812.684a1.487 1.487 0 0 1-1.045-.047 1.365 1.365 0 0 1-.704-.67.994.994 0 0 1 0-.85.244.244 0 0 0-.16-.337.328.328 0 0 0-.403.136 1.407 1.407 0 0 0 0 1.224c.203.428.56.763 1 .938.488.21 1.036.236 1.542.07.5-.151.92-.498 1.163-.96a.244.244 0 0 0-.178-.324z"/>
            <path fill="#FFF" fill-rule="nonzero" d="M64.666 101.924a.31.31 0 0 0 .286-.164c.033-.07.066-.141.103-.212.038-.07.127-.267.188-.398a.253.253 0 0 0-.183-.333.333.333 0 0 0-.394.15 7.265 7.265 0 0 1-.183.39c-.065.13-.065.145-.103.215a.249.249 0 0 0 .174.333c.036.013.074.02.112.019zM61.435 104.189a.23.23 0 0 0-.07-.356.347.347 0 0 0-.427.056 1.44 1.44 0 0 0-.362.938h.615c.006-.234.092-.46.244-.638zM63.16 104.119a.347.347 0 0 0-.426.084c-.113.155-.24.3-.375.469l-.057.066a.216.216 0 0 0-.047.084c.268 0 .521-.028.77-.051.08-.094.159-.188.23-.287a.234.234 0 0 0-.094-.365z"/>
            <path fill="#231F20" d="M36.648 82.23c-.793-.502-2.73-.858-4.995-.858s-4.198.356-4.995.858c-2.218.938-3.907 5.445-3.907 10.867 0 5.422 1.689 9.929 3.907 10.867.797.502 2.73.858 4.995.858s4.221-.356 4.995-.858c2.223-.938 3.907-5.445 3.907-10.867 0-5.422-1.684-9.929-3.907-10.867z"/>
            <ellipse cx="27.512" cy="93.097" fill="#656262" rx="4.76" ry="11.045"/>
            <ellipse cx="27.723" cy="93.097" fill="#FFF" fill-rule="nonzero" rx="2.692" ry="7.204"/>
            <path d="M38.679 90.39a.23.23 0 0 1 .042.362l-.52.525a.305.305 0 0 1-.212.094h-.028a.333.333 0 0 1-.202-.066l-.623-.44a.225.225 0 0 1-.033-.362.352.352 0 0 1 .436-.028l.385.272.318-.323c.12-.111.301-.125.437-.033zm-.418-2.274a.23.23 0 0 1 .094.357 5.658 5.658 0 0 1-.399.469l-.075.089a.314.314 0 0 1-.201.103h-.052a.347.347 0 0 1-.183-.052l-.103-.06c-.188-.113-.361-.221-.553-.329a.23.23 0 0 1-.08-.356.352.352 0 0 1 .431-.066c.141.08.282.16.418.244a8.68 8.68 0 0 0 .272-.342.361.361 0 0 1 .431-.057zm-1.078-2.134a.352.352 0 0 1 .422-.108.24.24 0 0 1 .131.347l-.399.615a.319.319 0 0 1-.192.122h-.08a.361.361 0 0 1-.16-.038l-.703-.337a.24.24 0 0 1-.117-.352.352.352 0 0 1 .427-.094l.436.206c.099-.112.178-.234.253-.36h-.018zm-1.876 11.36c-.136.075-.277.154-.423.225a.347.347 0 0 1-.426-.085.23.23 0 0 1 .098-.352c.188-.093.366-.192.549-.295l.098-.056a.361.361 0 0 1 .422.056l.057.066c.14.154.29.314.422.469a.23.23 0 0 1-.075.356.352.352 0 0 1-.178.047.342.342 0 0 1-.258-.108 1.298 1.298 0 0 0-.254-.323h-.032zm.117 2.448a.352.352 0 0 1-.155.033.328.328 0 0 1-.267-.127l-.254-.352-.44.188a.347.347 0 0 1-.418-.113.24.24 0 0 1 .136-.347l.685-.295a.352.352 0 0 1 .413.089c.14.187.276.38.412.572a.235.235 0 0 1-.089.352h-.023zm.774-10.52a.352.352 0 0 1-.432.066l-.103-.057-.3-.173-.244.262-.066.066a.328.328 0 0 1-.244.099.361.361 0 0 1-.192-.052.23.23 0 0 1-.052-.361l.066-.07c.136-.141.277-.291.399-.441a.361.361 0 0 1 .422-.066c.197.099.384.211.567.314l.099.057a.23.23 0 0 1 .112.356h-.032zm.239 1.75a.23.23 0 0 1 .042.36c-.12.111-.3.127-.436.038l-.39-.263-.328.3a.347.347 0 0 1-.436.023.23.23 0 0 1-.028-.365l.525-.469a.361.361 0 0 1 .427-.028l.624.403zm-.47 4.586l-.327-.31-.39.254a.352.352 0 0 1-.436-.042.225.225 0 0 1 .052-.361l.619-.404a.352.352 0 0 1 .427.028l.52.493a.23.23 0 0 1-.028.366.366.366 0 0 1-.436-.024zm.357-2.021a.338.338 0 0 1-.22-.075c-.113-.099-.23-.193-.347-.286l-.37.286c-.13.1-.312.1-.442 0a.225.225 0 0 1 0-.361c.193-.146.385-.296.563-.441a.366.366 0 0 1 .432 0c.197.15.394.31.581.469a.225.225 0 0 1 0 .36.338.338 0 0 1-.173.048h-.024zm-1.14-9.38a.333.333 0 0 1 .404-.136l.469.164.183-.39a.338.338 0 0 1 .403-.145.244.244 0 0 1 .178.329c-.103.222-.206.437-.31.647a.277.277 0 0 1-.173.14.314.314 0 0 1-.112 0 .31.31 0 0 1-.132-.023l-.74-.272a.24.24 0 0 1-.146-.324l-.023.01zm.39 2.65a.235.235 0 0 1 .122.347.347.347 0 0 1-.422.103l-.432-.197-.267.352a.319.319 0 0 1-.263.122.342.342 0 0 1-.164-.043.23.23 0 0 1-.098-.351c.14-.183.276-.362.408-.55.1-.12.268-.16.412-.098l.704.315zm-1.534-2.261l.741.244a.244.244 0 0 1 .17.338.333.333 0 0 1-.404.136l-.47-.15c-.07.126-.14.248-.215.37a.314.314 0 0 1-.277.145.338.338 0 0 1-.136-.028.24.24 0 0 1-.145-.342 16.9 16.9 0 0 0 .333-.577.338.338 0 0 1 .403-.136zm-1.735-1.046c.084-.197.169-.403.24-.6a.319.319 0 0 1 .36-.178c.258.042.497.098.75.154h.033a.253.253 0 0 1 .216.315.319.319 0 0 1-.38.178h-.033l-.44-.099-.16.394a.324.324 0 0 1-.295.17.39.39 0 0 1-.103 0 .244.244 0 0 1-.188-.334zm1.116 20.102a.258.258 0 0 1-.084 0 .31.31 0 0 1-.3-.188 6.347 6.347 0 0 0-.141-.385l-.47.094a.31.31 0 0 1-.36-.206.263.263 0 0 1 .244-.3c.234-.038.469-.085.703-.136h.033a.333.333 0 0 1 .375.169c.08.197.169.422.24.637a.253.253 0 0 1-.24.315zm.755-2.012c-.07-.127-.136-.254-.206-.376l-.47.146a.333.333 0 0 1-.398-.155.253.253 0 0 1 .188-.328l.722-.225a.338.338 0 0 1 .394.126c.113.197.225.399.333.605a.24.24 0 0 1-.16.338.394.394 0 0 1-.126 0 .319.319 0 0 1-.277-.122v-.01zm.708 2.715H34.8a.394.394 0 0 1-.16-.037.258.258 0 0 1-.14-.165 10.359 10.359 0 0 0-.197-.614v-.028a.253.253 0 0 1 .21-.319.328.328 0 0 1 .385.178v.028c.043.127.09.249.127.38l.47-.126.112.239.098.244c-.29.098-.544.169-.82.23v-.01zm2.027-2.345l-.765.286a.356.356 0 0 1-.127.024.511.511 0 0 1-.117 0 .29.29 0 0 1-.169-.146l-.286-.619a.24.24 0 0 1 .164-.338.338.338 0 0 1 .404.136l.197.39.469-.174a.342.342 0 0 1 .417.122.244.244 0 0 1-.187.343v-.024zm.89-2.204c-.237.122-.476.239-.717.352a.356.356 0 0 1-.155.037h-.089a.338.338 0 0 1-.187-.127c-.132-.2-.263-.397-.394-.59a.235.235 0 0 1 .117-.352.347.347 0 0 1 .422.098l.249.366.431-.216a.361.361 0 0 1 .427.085.24.24 0 0 1-.113.37l.01-.023zm.6-2.251l-.102.06c-.183.118-.375.235-.572.348a.352.352 0 0 1-.179.047h-.06a.31.31 0 0 1-.202-.113c-.118-.155-.254-.314-.385-.47l-.075-.083a.23.23 0 0 1 .075-.357.347.347 0 0 1 .422.099l.07.08.226.262.295-.183.103-.066a.361.361 0 0 1 .437.052.23.23 0 0 1-.052.347v-.023zm.339-2.27l-.624.469a.38.38 0 0 1-.207.06.347.347 0 0 1-.215-.089l-.544-.515a.23.23 0 0 1 .042-.362.352.352 0 0 1 .436.033l.319.314.385-.276a.361.361 0 0 1 .436.023.235.235 0 0 1-.038.366l.01-.023zm-.47-1.783a.352.352 0 0 1-.22.07.328.328 0 0 1-.22-.079c-.183-.16-.37-.319-.563-.469a.225.225 0 0 1 0-.361c.13-.1.31-.1.44 0l.362.295c.117-.093.23-.197.342-.295a.366.366 0 0 1 .441 0 .23.23 0 0 1 0 .366c-.197.169-.394.337-.59.497l.009-.024z"/>
            <path fill="#FFF" fill-rule="nonzero" d="M31.278 82.244h.06a.3.3 0 0 0 .306-.206c.032-.131.06-.267.089-.403l.469.042a.305.305 0 0 0 .342-.23.29.29 0 0 0 0-.061h-1.388c-.038.192-.075.385-.122.568a.263.263 0 0 0 .244.29zM34.88 82.188c-.164-.042-.324-.084-.497-.122a.319.319 0 0 0-.376.188.249.249 0 0 0 .22.31c.254.056.47.121.751.187a.3.3 0 0 0 .094 0c.052 0 .103-.01.15-.033a.263.263 0 0 0 .15-.16v-.028c.07-.215.14-.436.197-.656a.155.155 0 0 0 0-.08c-.173-.047-.356-.089-.549-.131a.192.192 0 0 0-.06.108c.018.15-.038.304-.08.417zM32.493 83.872a.39.39 0 0 0 .103 0 .324.324 0 0 0 .295-.17l.16-.393.44.098h.033a.319.319 0 0 0 .38-.178.253.253 0 0 0-.216-.314h-.032c-.254-.056-.493-.113-.75-.155a.319.319 0 0 0-.362.178c-.07.197-.155.404-.24.6a.244.244 0 0 0 .189.334zM35.372 84.528l.741.272a.31.31 0 0 0 .132.024.314.314 0 0 0 .112 0 .277.277 0 0 0 .174-.14l.31-.648a.244.244 0 0 0-.18-.328.338.338 0 0 0-.402.145l-.183.39-.47-.165a.333.333 0 0 0-.403.136.24.24 0 0 0 .17.314zM33.646 84.73a16.9 16.9 0 0 1-.333.577.24.24 0 0 0 .146.342c.043.019.089.029.136.028a.314.314 0 0 0 .276-.145c.075-.122.146-.244.216-.37l.47.15c.149.057.318 0 .402-.136a.244.244 0 0 0-.168-.338l-.75-.244a.338.338 0 0 0-.395.136zM36.104 86.24a.24.24 0 0 0 .117.352l.704.338c.05.024.104.037.159.037h.08a.319.319 0 0 0 .192-.122l.399-.614a.24.24 0 0 0-.132-.347.352.352 0 0 0-.422.108c-.075.126-.154.248-.234.37l-.436-.206a.352.352 0 0 0-.427.084zM34.481 86.63c-.131.187-.267.365-.408.548a.23.23 0 0 0 .099.352c.05.028.106.042.164.042.102.004.2-.041.262-.122l.268-.352.431.197a.347.347 0 0 0 .422-.103.235.235 0 0 0-.122-.347l-.703-.314a.356.356 0 0 0-.413.098zM37.16 88.294a.352.352 0 0 0-.432.066.23.23 0 0 0 .08.357c.192.107.365.215.553.328l.103.06a.347.347 0 0 0 .183.052h.051a.314.314 0 0 0 .202-.103l.075-.089c.136-.16.272-.323.399-.469a.23.23 0 0 0-.094-.356.361.361 0 0 0-.431.08 8.68 8.68 0 0 1-.273.342 2.114 2.114 0 0 0-.417-.268zM36.15 88.914l-.098-.057c-.183-.103-.37-.215-.567-.314a.361.361 0 0 0-.422.066c-.122.15-.263.3-.399.44l-.066.07a.23.23 0 0 0 .052.362.361.361 0 0 0 .192.052.328.328 0 0 0 .244-.099l.066-.066.244-.262.3.173.103.057c.142.08.32.053.431-.066a.23.23 0 0 0-.08-.356zM38.261 90.428l-.319.324-.384-.272a.352.352 0 0 0-.436.028.225.225 0 0 0 .032.361l.624.441c.058.043.13.066.202.066h.028a.305.305 0 0 0 .211-.094l.511-.53a.23.23 0 0 0-.042-.361.352.352 0 0 0-.427.037zM35.42 90.63l-.526.47a.23.23 0 0 0 .028.365.347.347 0 0 0 .436-.024l.328-.3.39.263a.356.356 0 0 0 .436-.038.23.23 0 0 0-.042-.36l-.624-.418a.361.361 0 0 0-.427.042zM38.829 92.66a.366.366 0 0 0-.441 0c-.113.1-.225.203-.343.296l-.36-.295a.361.361 0 0 0-.441 0 .225.225 0 0 0 0 .361c.192.155.38.314.562.469.061.053.14.081.22.08a.352.352 0 0 0 .221-.07c.197-.16.394-.329.582-.498a.23.23 0 0 0 0-.342zM36.568 93.149c-.187-.16-.384-.32-.581-.47a.366.366 0 0 0-.432 0c-.178.146-.37.296-.563.441a.225.225 0 0 0 0 .362c.13.1.311.1.441 0l.37-.286c.118.093.235.187.348.286.13.1.31.1.44 0a.225.225 0 0 0-.023-.333zM38.332 94.917l-.385.276-.319-.314a.352.352 0 0 0-.436-.033.23.23 0 0 0-.042.362l.52.52c.06.054.136.085.216.09a.38.38 0 0 0 .206-.062l.624-.469a.235.235 0 0 0 .028-.366.361.361 0 0 0-.412-.004zM36.427 95.63a.23.23 0 0 0 .029-.366l-.54-.493a.352.352 0 0 0-.427-.028l-.619.404a.225.225 0 0 0-.051.36.352.352 0 0 0 .436.043l.39-.253.328.31a.366.366 0 0 0 .436.023h.018zM38.027 97.163l-.103.066-.296.183-.225-.263-.08-.065a.347.347 0 0 0-.431-.061.23.23 0 0 0-.075.356l.075.084c.131.15.267.31.384.47a.31.31 0 0 0 .202.112h.061a.352.352 0 0 0 .178-.047c.197-.112.39-.23.572-.347l.104-.06a.23.23 0 0 0 .06-.362.361.361 0 0 0-.426-.066zM35.883 97.778a.352.352 0 0 0 .179-.047.23.23 0 0 0 .075-.357c-.132-.16-.282-.319-.422-.469l-.057-.065a.361.361 0 0 0-.422-.057l-.098.057c-.183.103-.361.201-.55.295a.23.23 0 0 0-.098.352c.105.125.283.16.427.084.146-.07.286-.15.422-.225.099.108.197.216.286.329.068.069.162.106.258.103zM37.478 99.386l-.431.216-.249-.366a.347.347 0 0 0-.422-.098.235.235 0 0 0-.117.352c.13.193.262.39.394.59a.338.338 0 0 0 .187.127h.09a.356.356 0 0 0 .154-.037c.24-.113.48-.23.718-.352a.24.24 0 0 0 .103-.357.361.361 0 0 0-.427-.075zM34.744 98.777l-.685.295a.24.24 0 0 0-.136.347c.096.13.269.177.417.113l.441-.188.254.352c.063.082.163.13.267.127a.352.352 0 0 0 .155-.033.235.235 0 0 0 .112-.352c-.136-.192-.272-.385-.413-.572a.352.352 0 0 0-.412-.09zM36.643 101.567l-.469.174-.197-.39a.338.338 0 0 0-.403-.136.24.24 0 0 0-.164.338l.31.624a.29.29 0 0 0 .168.145.511.511 0 0 0 .117 0 .356.356 0 0 0 .127-.023l.764-.286a.244.244 0 0 0 .15-.343.342.342 0 0 0-.403-.103zM34.584 101.774a.24.24 0 0 0 .16-.338 18.42 18.42 0 0 0-.333-.605.338.338 0 0 0-.394-.127l-.722.225a.253.253 0 0 0-.188.329.333.333 0 0 0 .399.154l.469-.145c.07.122.136.249.206.375.06.097.167.154.281.15a.394.394 0 0 0 .122-.018zM35.49 103.65l-.47.126c-.037-.131-.084-.253-.126-.38v-.028a.328.328 0 0 0-.385-.178.253.253 0 0 0-.21.319v.028c.07.202.14.413.196.614.02.073.072.133.14.165.05.023.105.036.16.037h.085c.276-.06.53-.131.816-.211l-.099-.244-.108-.248zM33.398 102.712a.333.333 0 0 0-.376-.17h-.032c-.24.052-.47.1-.704.137a.263.263 0 0 0-.244.3.31.31 0 0 0 .361.206l.47-.094c.051.127.098.258.14.385.051.12.17.194.3.188a.258.258 0 0 0 .085 0 .253.253 0 0 0 .215-.315c-.042-.22-.136-.445-.215-.637zM31.77 104.231l-.76.042a.281.281 0 0 0-.29.272.295.295 0 0 0 .323.244l.497-.028c.003.02.003.04 0 .061h.629c0-.127-.047-.248-.075-.375a.305.305 0 0 0-.324-.216z"/>
            <path fill="#E6E6E6" fill-rule="nonzero" d="M23.685 70.557h17.353a.704.704 0 1 1 0 1.407H23.685a.704.704 0 0 1 0-1.407zM23.685 73.37h14.07a.704.704 0 0 1 0 1.408h-14.07a.704.704 0 0 1 0-1.407zM51.825 70.557h17.353a.704.704 0 0 1 0 1.407H51.825a.704.704 0 0 1 0-1.407zM51.825 73.37h14.07a.704.704 0 1 1 0 1.408h-14.07a.704.704 0 0 1 0-1.407zM82.863 70.557h17.353a.704.704 0 1 1 0 1.407H82.863a.704.704 0 0 1 0-1.407zM82.863 73.37h14.07a.704.704 0 0 1 0 1.408h-14.07a.704.704 0 0 1 0-1.407zM112.565 70.557h17.353a.704.704 0 0 1 0 1.407h-17.353a.704.704 0 1 1 0-1.407zM112.565 73.37h14.07a.704.704 0 0 1 0 1.408h-14.07a.704.704 0 1 1 0-1.407zM23.685 108.105h17.353a.704.704 0 0 1 0 1.407H23.685a.704.704 0 1 1 0-1.407zM23.685 110.92h14.07a.704.704 0 0 1 0 1.406h-14.07a.704.704 0 0 1 0-1.407zM51.825 108.105h17.353a.704.704 0 0 1 0 1.407H51.825a.704.704 0 1 1 0-1.407zM51.825 110.92h14.07a.704.704 0 0 1 0 1.406h-14.07a.704.704 0 0 1 0-1.407zM82.863 108.105h17.353a.704.704 0 0 1 0 1.407H82.863a.704.704 0 1 1 0-1.407zM82.863 110.92h14.07a.704.704 0 0 1 0 1.406h-14.07a.704.704 0 0 1 0-1.407zM112.565 108.105h17.353a.704.704 0 0 1 0 1.407h-17.353a.704.704 0 1 1 0-1.407zM112.565 110.92h14.07a.704.704 0 0 1 0 1.406h-14.07a.704.704 0 0 1 0-1.407zM22.981 12.429h172.124v16.884c0 .777-.63 1.407-1.407 1.407H24.388c-.777 0-1.407-.63-1.407-1.407V12.429zM23.685 36.32h106.463a.704.704 0 1 1 0 1.407H23.685a.704.704 0 0 1 0-1.407z"/>
            <path fill="#24B3F4" d="M157.491 42.914h3.283c.518 0 .938.42.938.938v5.628c0 .518-.42.938-.938.938h-3.283a.938.938 0 0 1-.938-.938v-5.628c0-.518.42-.938.938-.938z"/>
            <path fill="#FFF" fill-rule="nonzero" d="M166.637 44.32h17.353a.704.704 0 1 1 0 1.408h-17.353a.704.704 0 1 1 0-1.407zM166.637 47.604h14.07a.704.704 0 0 1 0 1.407h-14.07a.704.704 0 1 1 0-1.407z"/>
            <path fill="#24B3F4" d="M157.491 56.984h3.283c.518 0 .938.42.938.938v5.628c0 .518-.42.938-.938.938h-3.283a.938.938 0 0 1-.938-.938v-5.628c0-.518.42-.938.938-.938z"/>
            <path fill="#FFF" fill-rule="nonzero" d="M166.637 58.39h17.353a.704.704 0 1 1 0 1.408h-17.353a.704.704 0 1 1 0-1.407zM166.637 61.674h14.07a.704.704 0 0 1 0 1.407h-14.07a.704.704 0 1 1 0-1.407z"/>
            <path fill="#24B3F4" d="M157.491 71.054h3.283c.518 0 .938.42.938.938v5.628c0 .518-.42.938-.938.938h-3.283a.938.938 0 0 1-.938-.938v-5.628c0-.518.42-.938.938-.938z"/>
            <path fill="#FFF" fill-rule="nonzero" d="M166.637 72.46h17.353a.704.704 0 1 1 0 1.408h-17.353a.704.704 0 1 1 0-1.407zM166.637 75.744h14.07a.704.704 0 0 1 0 1.407h-14.07a.704.704 0 1 1 0-1.407z"/>
            <path fill="#24B3F4" d="M157.491 85.124h3.283c.518 0 .938.42.938.938v5.628c0 .518-.42.938-.938.938h-3.283a.938.938 0 0 1-.938-.938v-5.628c0-.518.42-.938.938-.938z"/>
            <path fill="#FFF" fill-rule="nonzero" d="M166.637 86.531h17.353a.704.704 0 1 1 0 1.407h-17.353a.704.704 0 1 1 0-1.407zM166.637 89.814h14.07a.704.704 0 0 1 0 1.407h-14.07a.704.704 0 1 1 0-1.407zM158.992 103.415h23.45a2.345 2.345 0 0 1 0 4.69h-23.45a2.345 2.345 0 1 1 0-4.69z"/>
            <path fill="#24B3F4" d="M30.72 15.258h-1.876c-.795 0-1.438.644-1.438 1.438v1.877c0 .794.643 1.438 1.438 1.438h1.876c.794 0 1.438-.644 1.438-1.438v-1.877c0-.794-.644-1.438-1.438-1.438zm-1.876 1h1.876c.242 0 .438.197.438.438v1.877a.438.438 0 0 1-.438.438h-1.876a.438.438 0 0 1-.438-.438v-1.877c0-.241.196-.438.438-.438zM30.72 22.2h-1.876c-.795 0-1.438.644-1.438 1.438v1.876c0 .794.643 1.438 1.438 1.438h1.876c.794 0 1.438-.644 1.438-1.438v-1.876c0-.794-.644-1.438-1.438-1.438zm-1.876 1h1.876c.242 0 .438.196.438.438v1.876a.438.438 0 0 1-.438.438h-1.876a.438.438 0 0 1-.438-.438v-1.876c0-.242.196-.438.438-.438z"/>
            <path fill="#FFF" fill-rule="nonzero" d="M35.41 16.931h17.353a.704.704 0 1 1 0 1.407H35.41a.704.704 0 1 1 0-1.407zM35.41 23.872h14.07a.704.704 0 0 1 0 1.407H35.41a.704.704 0 1 1 0-1.407z"/>
            <path fill="#24B3F4" d="M68.24 15.258h-1.876c-.794 0-1.438.644-1.438 1.438v1.877c0 .794.644 1.438 1.438 1.438h1.876c.794 0 1.438-.644 1.438-1.438v-1.877c0-.794-.644-1.438-1.438-1.438zm-1.876 1h1.876c.242 0 .438.197.438.438v1.877a.438.438 0 0 1-.438.438h-1.876a.438.438 0 0 1-.438-.438v-1.877c0-.241.196-.438.438-.438zM68.24 22.2h-1.876c-.794 0-1.438.644-1.438 1.438v1.876c0 .794.644 1.438 1.438 1.438h1.876c.794 0 1.438-.644 1.438-1.438v-1.876c0-.794-.644-1.438-1.438-1.438zm-1.876 1h1.876c.242 0 .438.196.438.438v1.876a.438.438 0 0 1-.438.438h-1.876a.438.438 0 0 1-.438-.438v-1.876c0-.242.196-.438.438-.438z"/>
            <path fill="#FFF" fill-rule="nonzero" d="M72.93 16.931h17.353a.704.704 0 0 1 0 1.407H72.93a.704.704 0 0 1 0-1.407zM72.93 23.872h23.45a.704.704 0 1 1 0 1.407H72.93a.704.704 0 0 1 0-1.407z"/>
            <path fill="#24B3F4" d="M110.45 15.258h-1.876c-.794 0-1.438.644-1.438 1.438v1.877c0 .794.644 1.438 1.438 1.438h1.876c.794 0 1.438-.644 1.438-1.438v-1.877c0-.794-.644-1.438-1.438-1.438zm-1.876 1h1.876c.242 0 .438.197.438.438v1.877a.438.438 0 0 1-.438.438h-1.876a.438.438 0 0 1-.438-.438v-1.877c0-.241.196-.438.438-.438zM110.45 22.2h-1.876c-.794 0-1.438.644-1.438 1.438v1.876c0 .794.644 1.438 1.438 1.438h1.876c.794 0 1.438-.644 1.438-1.438v-1.876c0-.794-.644-1.438-1.438-1.438zm-1.876 1h1.876c.242 0 .438.196.438.438v1.876a.438.438 0 0 1-.438.438h-1.876a.438.438 0 0 1-.438-.438v-1.876c0-.242.196-.438.438-.438z"/>
            <path fill="#FFF" fill-rule="nonzero" d="M115.14 16.931h15.477a.704.704 0 0 1 0 1.407H115.14a.704.704 0 1 1 0-1.407zM115.14 23.872h9.38a.704.704 0 0 1 0 1.407h-9.38a.704.704 0 1 1 0-1.407z"/>
            <circle cx="152.191" cy="45.728" r="1.407" fill="#FFF" fill-rule="nonzero"/>
            <circle cx="152.191" cy="59.798" r="1.407" fill="#FFF" fill-rule="nonzero"/>
            <circle cx="152.191" cy="73.868" r="1.407" fill="#FFF" fill-rule="nonzero"/>
            <circle cx="152.191" cy="87.938" r="1.407" fill="#FFF" fill-rule="nonzero"/>
        </g>
    </g>
</svg>
