<svg xmlns="http://www.w3.org/2000/svg" width="270" height="230" viewBox="0 0 270 230">
    <g fill="none" fill-rule="evenodd">
        <path d="M0 0h270v230H0z"/>
        <g transform="translate(54 2)">
            <path fill="#231F20" d="M6.108 0h150.667a6.108 6.108 0 0 1 6.108 6.108v213.784a6.108 6.108 0 0 1-6.108 6.108H6.108A6.108 6.108 0 0 1 0 219.892V6.108A6.108 6.108 0 0 1 6.108 0z"/>
            <path fill="#FFF" fill-rule="nonzero" d="M3.563 3.563H159.32v218.874H3.563z"/>
            <path fill="#E6E6E6" fill-rule="nonzero" d="M44.436 33.722h51.319a1.273 1.273 0 0 1 0 2.545H44.436a1.273 1.273 0 1 1 0-2.545zM44.436 40.084h36.191a1.273 1.273 0 1 1 0 2.546h-36.19a1.273 1.273 0 1 1 0-2.546z"/>
            <circle cx="24.941" cy="19.851" r="8.144" fill="#E6E6E6" fill-rule="nonzero"/>
            <path fill="#E6E6E6" fill-rule="nonzero" d="M44.182 15.78h3.563c.562 0 1.018.455 1.018 1.017v6.108c0 .563-.456 1.018-1.018 1.018h-3.563a1.018 1.018 0 0 1-1.018-1.018v-6.108c0-.562.456-1.018 1.018-1.018zM51.466 15.78h3.563c.562 0 1.018.455 1.018 1.017v6.108c0 .563-.456 1.018-1.018 1.018h-3.563a1.018 1.018 0 0 1-1.018-1.018v-6.108c0-.562.456-1.018 1.018-1.018zM58.755 15.78h3.563c.562 0 1.018.455 1.018 1.017v6.108c0 .563-.456 1.018-1.018 1.018h-3.563a1.018 1.018 0 0 1-1.018-1.018v-6.108c0-.562.456-1.018 1.018-1.018zM66.039 15.78h3.563c.562 0 1.018.455 1.018 1.017v6.108c0 .563-.456 1.018-1.018 1.018h-3.563a1.018 1.018 0 0 1-1.018-1.018v-6.108c0-.562.456-1.018 1.018-1.018zM73.328 15.78h3.563c.562 0 1.018.455 1.018 1.017v6.108c0 .563-.456 1.018-1.018 1.018h-3.563a1.018 1.018 0 0 1-1.018-1.018v-6.108c0-.562.456-1.018 1.018-1.018zM80.612 15.78h3.563c.562 0 1.018.455 1.018 1.017v6.108c0 .563-.456 1.018-1.018 1.018h-3.563a1.018 1.018 0 0 1-1.018-1.018v-6.108c0-.562.456-1.018 1.018-1.018zM87.9 15.78h3.564c.562 0 1.018.455 1.018 1.017v6.108c0 .563-.456 1.018-1.018 1.018H87.9a1.018 1.018 0 0 1-1.018-1.018v-6.108c0-.562.456-1.018 1.018-1.018zM95.185 15.78h3.563c.562 0 1.018.455 1.018 1.017v6.108c0 .563-.456 1.018-1.018 1.018h-3.563a1.018 1.018 0 0 1-1.018-1.018v-6.108c0-.562.455-1.018 1.018-1.018zM101.99 15.78h3.563c.562 0 1.018.455 1.018 1.017v6.108c0 .563-.456 1.018-1.018 1.018h-3.563a1.018 1.018 0 0 1-1.018-1.018v-6.108c0-.562.456-1.018 1.018-1.018zM109.28 15.78h3.562c.562 0 1.018.455 1.018 1.017v6.108c0 .563-.456 1.018-1.018 1.018h-3.563a1.018 1.018 0 0 1-1.018-1.018v-6.108c0-.562.456-1.018 1.018-1.018z"/>
            <path fill="#231F20" d="M73.537 59.274c-2.953-2-10.15-3.41-18.564-3.41s-15.611 1.41-18.564 3.41c-8.26 3.71-14.522 21.597-14.522 43.118s6.261 39.408 14.522 43.113c2.953 2 10.15 3.41 18.564 3.41s15.611-1.41 18.564-3.41c8.26-3.705 14.522-21.592 14.522-43.113 0-21.52-6.261-39.407-14.522-43.118z"/>
            <ellipse cx="39.586" cy="102.392" fill="#656262" rx="17.698" ry="43.836"/>
            <ellipse cx="40.354" cy="102.392" fill="#FFF" fill-rule="nonzero" rx="10.002" ry="28.586"/>
            <path d="M77.833 84.058l2.417 1.629a.937.937 0 0 1 .255 1.374c-.932 1.232-1.95 2.423-2.947 3.563.458.341.906.687 1.343 1.018l.118.087a.937.937 0 0 1 .112 1.435 1.217 1.217 0 0 1-.87.351 1.243 1.243 0 0 1-.76-.25l-.111-.086c-.728-.555-1.415-1.084-2.148-1.598a.942.942 0 0 1-.199-1.415l.31-.362c.881-1.018 1.777-2.036 2.622-3.11l-1.527-1.043a.942.942 0 0 1-.214-1.425 1.252 1.252 0 0 1 1.599-.168zm-5.09-11.707a.967.967 0 0 1-.51-1.37c.33-.504.978-.694 1.527-.448.87.382 1.7.8 2.51 1.202l.224.112a.957.957 0 0 1 .473 1.328l-.081.148a93.614 93.614 0 0 1-1.283 2.3l-.916 1.527c.555.3 1.11.611 1.65.922a.947.947 0 0 1 .33 1.41c-.232.297-.59.469-.967.463-.222 0-.44-.058-.631-.168a66.131 66.131 0 0 0-2.515-1.38.957.957 0 0 1-.427-1.374c.485-.763.962-1.539 1.43-2.326.3-.509.58-1.018.86-1.527a24.068 24.068 0 0 0-1.664-.814l-.01-.005zm-6.48 58.088a.962.962 0 0 1-.51 1.364c-.159.073-.333.111-.508.112-.415.002-.801-.212-1.018-.565-.392-.687-.84-1.39-1.273-2.067l-.081-.127a.916.916 0 0 1-.092-.804c.105-.281.323-.505.6-.616.892-.377 1.737-.733 2.546-1.11.509-.234.987-.468 1.486-.712-.29-.418-.59-.835-.896-1.253a.947.947 0 0 1 .336-1.41 1.252 1.252 0 0 1 1.599.296 54.143 54.143 0 0 1 1.562 2.24c.153.229.194.515.112.778-.085.275-.283.5-.544.621-.866.428-1.726.842-2.581 1.242-.51.234-1.018.458-1.527.677.265.438.534.886.789 1.334zm4.825-27.329l-1.288 1.064 1.222 1.079a.942.942 0 0 1 0 1.44c-.228.196-.52.302-.82.3a1.232 1.232 0 0 1-.814-.3l-2.036-1.822a.942.942 0 0 1 .03-1.466l2.128-1.761 1.191-1.054-1.262-1.018a.937.937 0 0 1-.05-1.44 1.257 1.257 0 0 1 1.628-.046l2.133 1.756a.972.972 0 0 1 .366.728.957.957 0 0 1-.34.738l-2.088 1.802zm1.191-15.652a.937.937 0 0 1-.208.763c-.922 1.11-1.92 2.194-2.902 3.243l1.217.855.127.092a.937.937 0 0 1 .178 1.43c-.232.25-.56.388-.9.382a1.237 1.237 0 0 1-.724-.224l-.127-.092a50.295 50.295 0 0 0-2.112-1.45 1.018 1.018 0 0 1-.463-.698.942.942 0 0 1 .26-.779l.177-.188c.901-.962 1.828-1.95 2.703-2.947a70.094 70.094 0 0 0-1.41-.866.952.952 0 0 1-.295-1.42 1.247 1.247 0 0 1 1.603-.26c.798.483 1.6.98 2.408 1.492.242.148.412.39.468.667zm-6.617-29.014a1.18 1.18 0 0 1 1.425-.702c.886.224 1.746.484 2.576.733l.407.122c.533.133.864.665.748 1.201-.407 1.497-.91 2.953-1.415 4.332.601.214 1.202.433 1.812.662a.982.982 0 0 1 .616 1.333c-.209.391-.62.632-1.063.621a1.36 1.36 0 0 1-.448-.076c-.93-.34-1.853-.67-2.77-.993a.987.987 0 0 1-.681-1.267 62.13 62.13 0 0 0 1.45-4.19 36.178 36.178 0 0 0-1.863-.508 1.018 1.018 0 0 1-.794-1.262v-.006zm.046 14.507c.835.326 1.634.677 2.408 1.018l.264.117c.272.11.483.33.58.606a.9.9 0 0 1-.08.789c-.51.8-.943 1.527-1.426 2.275a76.8 76.8 0 0 1-.87 1.283c.508.244 1.017.509 1.486.753a.957.957 0 0 1 .402 1.395 1.196 1.196 0 0 1-.993.509 1.263 1.263 0 0 1-.59-.143c-.8-.422-1.629-.83-2.464-1.216a1.054 1.054 0 0 1-.58-.631.942.942 0 0 1 .132-.81c.5-.705.995-1.425 1.487-2.158.28-.427.55-.855.82-1.293a48.198 48.198 0 0 0-1.528-.626.972.972 0 0 1-.59-1.344c.305-.536.963-.76 1.532-.519l.01-.005zm-7.426-10.689a1.166 1.166 0 0 1 1.374-.779c.845.163 1.664.362 2.458.56l.408.097c.293.07.547.253.707.509a.911.911 0 0 1 .092.784c-.453 1.323-.993 2.621-1.527 3.863l1.578.484a1.018 1.018 0 0 1 .697 1.303 1.15 1.15 0 0 1-1.084.677c-.133 0-.265-.02-.392-.061a116.3 116.3 0 0 0-2.672-.81 1.1 1.1 0 0 1-.688-.534.906.906 0 0 1-.03-.81c.509-1.18 1.079-2.433 1.557-3.705a28.873 28.873 0 0 0-1.583-.351 1.018 1.018 0 0 1-.906-1.222l.01-.005zm6.143 77.13a94.233 94.233 0 0 1-4.403 1.201c.173.469.346.942.51 1.41a1.018 1.018 0 0 1-.795 1.258 1.211 1.211 0 0 1-1.425-.698c-.224-.702-.509-1.425-.779-2.127l-.086-.23a.916.916 0 0 1 .076-.819c.169-.263.437-.447.743-.509 1.45-.305 2.897-.697 4.286-1.094a84.703 84.703 0 0 0-.636-1.364.982.982 0 0 1 .62-1.334c.574-.236 1.233-.001 1.528.545.371.789.743 1.598 1.1 2.417a.9.9 0 0 1-.031.8 1.135 1.135 0 0 1-.718.554l.01-.01zm7.763 3.166c-1.527.51-3.105 1.074-4.77 1.563.173.56.341 1.135.479 1.71a1.018 1.018 0 0 1-.88 1.206c-.081.018-.163.027-.245.026a1.13 1.13 0 0 1-1.13-.804 34.441 34.441 0 0 0-.626-2.159l-.117-.386a1.018 1.018 0 0 1 .773-1.242 75.81 75.81 0 0 0 4.653-1.456c-.214-.555-.428-1.1-.647-1.64a1.018 1.018 0 0 1 .703-1.297 1.191 1.191 0 0 1 1.47.616c.347.85.683 1.72 1.019 2.6a1.018 1.018 0 0 1-.693 1.273l.01-.01zm5.65-13.473c-.883.485-1.76.955-2.632 1.41-.56.29-1.135.57-1.705.845.29.509.575 1.018.84 1.572a.977.977 0 0 1-.596 1.344 1.313 1.313 0 0 1-.463.087 1.166 1.166 0 0 1-1.054-.611 51.618 51.618 0 0 0-1.16-2.138l-.127-.224a.962.962 0 0 1 .509-1.354 88.466 88.466 0 0 0 2.616-1.283c.55-.285 1.104-.58 1.66-.88a33.1 33.1 0 0 0-.953-1.471.957.957 0 0 1 .408-1.395 1.242 1.242 0 0 1 1.578.356c.509.784 1.018 1.594 1.527 2.403a.957.957 0 0 1-.459 1.349l.01-.01zm3.054-13.927l-.352.26c-1.19.875-2.33 1.71-3.527 2.545l1.09 1.38a.947.947 0 0 1-.286 1.42c-.2.12-.428.183-.661.183a1.206 1.206 0 0 1-.947-.438l-1.726-2.184a.942.942 0 0 1 .26-1.405c1.313-.855 2.545-1.746 3.828-2.687a85.458 85.458 0 0 0-1.1-1.227l-.086-.097a.937.937 0 0 1 .178-1.43 1.262 1.262 0 0 1 1.624.158l.086.097a58.9 58.9 0 0 1 1.812 2.061.937.937 0 0 1-.219 1.374l.026-.01zm-1.242-12.084l-1.375 1.217 1.298 1.237a.942.942 0 0 1-.056 1.44 1.237 1.237 0 0 1-.789.27 1.217 1.217 0 0 1-.845-.326l-2.036-1.95a.937.937 0 0 1 .026-1.414l2.133-1.889 1.272-1.206-1.4-1.181a.937.937 0 0 1 0-1.446 1.267 1.267 0 0 1 1.634 0l2.133 1.889a.937.937 0 0 1 .025 1.415l-2.02 1.944z"/>
            <path fill="#FFF" fill-rule="nonzero" d="M52.306 58.292c.215.235.515.376.835.392.824.05 1.796.122 2.748.239h.158a1.12 1.12 0 0 0 1.145-.88 1.054 1.054 0 0 0-.982-1.151 39.416 39.416 0 0 0-1.634-.163c.056-.3.102-.59.142-.87-.794 0-1.572 0-2.341.045a30.663 30.663 0 0 1-.29 1.568.931.931 0 0 0 .219.82zM66.446 59.722c.626.158 1.237.336 1.863.509-.438 1.44-.952 2.85-1.45 4.19a.987.987 0 0 0 .681 1.267c.917.315 1.84.646 2.77.992.143.05.295.076.447.077.444.01.855-.23 1.064-.621a.982.982 0 0 0-.616-1.334c-.61-.23-1.211-.448-1.812-.662.51-1.38 1.018-2.835 1.415-4.331a1.018 1.018 0 0 0-.748-1.202l-.407-.122c-.83-.25-1.69-.509-2.576-.733a1.18 1.18 0 0 0-1.425.703 1.018 1.018 0 0 0 .794 1.267zM59.157 63.484a33.78 33.78 0 0 1 1.583.35 54.026 54.026 0 0 1-1.558 3.706.906.906 0 0 0 .031.81 1.1 1.1 0 0 0 .687.534c.88.255 1.77.524 2.672.81.127.04.26.06.392.06a1.15 1.15 0 0 0 1.085-.676 1.018 1.018 0 0 0-.698-1.303l-1.578-.484c.545-1.242 1.085-2.545 1.527-3.863a.911.911 0 0 0-.091-.784 1.155 1.155 0 0 0-.708-.51l-.407-.096a46.028 46.028 0 0 0-2.459-.56 1.166 1.166 0 0 0-1.374.779 1.018 1.018 0 0 0 .896 1.227zM72.157 77.028a.957.957 0 0 0 .428 1.375c.85.442 1.695.906 2.514 1.38.192.109.41.167.631.167.378.006.736-.165.967-.463a.947.947 0 0 0-.346-1.44c-.54-.311-1.094-.622-1.649-.922l.916-1.527c.448-.758.86-1.527 1.283-2.3l.082-.148a.957.957 0 0 0-.474-1.329l-.224-.112c-.81-.402-1.639-.82-2.51-1.201a1.227 1.227 0 0 0-1.526.448.967.967 0 0 0 .509 1.37c.58.259 1.13.508 1.695.803-.28.51-.56 1.018-.86 1.527-.472.808-.95 1.599-1.436 2.372zM64.766 74.82c.51.198 1.018.406 1.527.625-.27.438-.54.866-.82 1.293-.495.733-.99 1.453-1.485 2.158a.942.942 0 0 0-.133.81c.095.283.306.512.58.63.835.388 1.665.795 2.464 1.217.182.095.385.144.59.143.395.004.766-.186.993-.51a.957.957 0 0 0-.402-1.394c-.51-.254-.982-.509-1.486-.753.291-.424.582-.852.87-1.283.484-.738.937-1.476 1.425-2.275a.9.9 0 0 0 .082-.789 1.018 1.018 0 0 0-.58-.606l-.265-.117a48.226 48.226 0 0 0-2.408-1.018 1.217 1.217 0 0 0-1.527.51.972.972 0 0 0 .575 1.358zM76.214 84.246a.942.942 0 0 0 .214 1.425l1.527 1.044a97.154 97.154 0 0 1-2.622 3.11l-.31.361a.942.942 0 0 0 .198 1.415c.733.51 1.42 1.044 2.148 1.599l.112.086c.219.164.485.252.759.25.325.004.639-.123.87-.352a.937.937 0 0 0-.112-1.435l-.117-.087c-.438-.336-.886-.682-1.344-1.018 1.018-1.155 2.036-2.346 2.948-3.563a.937.937 0 0 0-.255-1.374l-2.418-1.629a1.252 1.252 0 0 0-1.598.168zM69.403 85.3a1.247 1.247 0 0 0-1.603.26.952.952 0 0 0 .295 1.42c.469.28.942.57 1.41.865-.875 1.018-1.802 1.985-2.703 2.947l-.178.188a.942.942 0 0 0-.26.78c.048.287.217.541.464.696.723.464 1.4.942 2.112 1.451l.127.092c.212.148.465.226.723.224.341.006.669-.133.901-.382a.937.937 0 0 0-.178-1.43l-.127-.092-1.217-.855c.983-1.049 1.98-2.133 2.902-3.243a.937.937 0 0 0 .208-.763 1.018 1.018 0 0 0-.468-.667 145.257 145.257 0 0 0-2.408-1.491zM81.655 99.72l-2.133-1.888a1.267 1.267 0 0 0-1.633 0 .937.937 0 0 0 0 1.445l1.343 1.191-1.272 1.207-2.118 1.883a.937.937 0 0 0-.025 1.415l2.036 1.95c.23.213.532.33.845.325.286.004.565-.091.789-.27a.942.942 0 0 0 .056-1.44l-1.298-1.237 1.374-1.216 2.036-1.95a.937.937 0 0 0 0-1.415zM73.49 100.55a.972.972 0 0 0-.366-.728l-2.133-1.756a1.257 1.257 0 0 0-1.628.045.937.937 0 0 0 .05 1.441l1.263 1.018-1.191 1.054-2.128 1.76a.942.942 0 0 0-.03 1.467l2.036 1.822c.226.196.515.302.814.3.3.002.591-.105.82-.3a.942.942 0 0 0 0-1.44l-1.222-1.08 1.288-1.063 2.061-1.823a.957.957 0 0 0 .367-.717zM79.248 111.722l-.087-.096a1.262 1.262 0 0 0-1.624-.158.937.937 0 0 0-.178 1.43l.087.097c.366.402.738.814 1.1 1.227-1.284.941-2.515 1.832-3.829 2.687a.942.942 0 0 0-.26 1.405l1.726 2.184c.233.282.582.443.947.437.233.001.462-.062.662-.183a.947.947 0 0 0 .285-1.42l-1.09-1.38a91.379 91.379 0 0 0 3.528-2.544l.351-.26a.937.937 0 0 0 .194-1.384 85.134 85.134 0 0 0-1.812-2.042zM76.723 125.354a1.242 1.242 0 0 0-1.578-.357.957.957 0 0 0-.407 1.395c.326.509.646.977.952 1.471-.555.3-1.11.596-1.66.88-.865.449-1.75.871-2.616 1.283a.962.962 0 0 0-.509 1.354l.127.224c.397.703.804 1.43 1.16 2.138.21.386.616.622 1.054.61.159 0 .316-.03.464-.086a.977.977 0 0 0 .595-1.343 60.022 60.022 0 0 0-.84-1.573c.57-.275 1.146-.555 1.705-.845a153.66 153.66 0 0 0 2.632-1.41.957.957 0 0 0 .412-1.339 34.06 34.06 0 0 0-1.491-2.402zM69.566 127.186c.261-.12.46-.346.545-.62a.916.916 0 0 0-.112-.78c-.51-.743-1.018-1.496-1.563-2.24a1.252 1.252 0 0 0-1.598-.295.947.947 0 0 0-.336 1.41c.305.418.606.835.896 1.253-.51.244-.993.478-1.486.712-.82.377-1.665.733-2.545 1.11a1.064 1.064 0 0 0-.601.616.916.916 0 0 0 .092.804l.081.127c.433.677.88 1.38 1.272 2.067.218.353.604.567 1.019.565.175 0 .349-.039.509-.112a.962.962 0 0 0 .509-1.364c-.255-.448-.51-.896-.8-1.334a66.625 66.625 0 0 0 1.527-.677c.862-.4 1.726-.814 2.591-1.242zM71.842 138.705a1.191 1.191 0 0 0-1.472-.616 1.018 1.018 0 0 0-.702 1.298c.219.54.433 1.084.647 1.639a78.085 78.085 0 0 1-4.653 1.456 1.018 1.018 0 0 0-.774 1.242l.118.387c.224.712.453 1.445.626 2.158a1.13 1.13 0 0 0 1.13.804c.082.001.164-.007.244-.025a1.018 1.018 0 0 0 .88-1.207 27.366 27.366 0 0 0-.478-1.71 101.146 101.146 0 0 0 4.77-1.563c.531-.166.83-.728.671-1.262a86.404 86.404 0 0 0-1.007-2.601zM65.153 138.069a88.595 88.595 0 0 0-1.1-2.418 1.211 1.211 0 0 0-1.526-.545.982.982 0 0 0-.621 1.334c.213.448.427.906.636 1.364-1.39.397-2.835.789-4.286 1.094a1.155 1.155 0 0 0-.743.51.916.916 0 0 0-.076.819l.086.229c.27.702.555 1.425.779 2.128.235.554.843.851 1.425.697a1.018 1.018 0 0 0 .794-1.257 26.08 26.08 0 0 0-.509-1.41c1.527-.367 2.998-.79 4.403-1.202.29-.08.534-.273.682-.534a.9.9 0 0 0 .056-.81zM55.813 145.872a1.018 1.018 0 0 0-.896 1.206c.112.474.209.947.29 1.4-.565.04-1.09.071-1.603.092h-.158c-.89.03-1.726.066-2.576.04a1.16 1.16 0 0 0-.605.148c1.527.102 3.09.153 4.713.153.896 0 1.771 0 2.637-.051-.112-.672-.25-1.43-.433-2.204a1.16 1.16 0 0 0-1.37-.784zM70.325 110.577l-.087-.097a1.262 1.262 0 0 0-1.624-.157.937.937 0 0 0-.178 1.43l.087.097c.366.402.738.814 1.1 1.226-1.283.942-2.515 1.833-3.828 2.688a.942.942 0 0 0-.26 1.405l1.725 2.183c.234.28.582.44.947.433.233 0 .462-.063.662-.183a.947.947 0 0 0 .285-1.42l-1.09-1.38a91.377 91.377 0 0 0 3.528-2.545l.351-.26a.937.937 0 0 0 .194-1.384 96.064 96.064 0 0 0-1.812-2.036z"/>
            <ellipse cx="54.973" cy="163.219" fill="#F2F2F2" fill-rule="nonzero" rx="23.633" ry="3.074"/>
            <path fill="#E6E6E6" fill-rule="nonzero" d="M119.617 55.864h21.378a4.581 4.581 0 0 1 4.582 4.58v31.468a4.581 4.581 0 0 1-4.582 4.58h-21.378a4.581 4.581 0 0 1-4.581-4.58V60.445a4.581 4.581 0 0 1 4.581-4.581z"/>
            <path fill="#B3B3B3" fill-rule="nonzero" d="M152.087 165.754a3.054 3.054 0 0 0-2.158.916 2.952 2.952 0 0 0-.835 2.168l1.165 37.927a2.988 2.988 0 0 0 5.197 1.924l5.9-6.485 4.739 10.343a3.003 3.003 0 0 0 2.718 1.746c.43 0 .856-.093 1.247-.275l4.581-2.097a2.983 2.983 0 0 0 1.471-3.96l-4.744-10.348 8.77-.245a2.988 2.988 0 0 0 1.935-5.192l-27.996-25.633a2.957 2.957 0 0 0-2.01-.79h.02z"/>
            <path fill="#FFF" fill-rule="nonzero" d="M153.97 161.84c-.812 0-1.59.33-2.158.91a2.952 2.952 0 0 0-.835 2.169l1.166 37.926a2.983 2.983 0 0 0 5.192 1.945l5.91-6.485 4.728 10.323a3.003 3.003 0 0 0 2.718 1.745c.43.001.857-.093 1.247-.274L176.52 208a2.993 2.993 0 0 0 1.471-3.96l-4.744-10.343 8.77-.25a2.993 2.993 0 0 0 1.935-5.191l-27.996-25.634a2.988 2.988 0 0 0-2.01-.784h.025z"/>
            <path fill="#000" fill-rule="nonzero" d="M182.546 189.8l-27.996-25.634a.9.9 0 0 0-1.527.692l1.207 37.926a.9.9 0 0 0 1.562.575l7.127-7.818a.896.896 0 0 1 1.476.229l5.497 11.987a.896.896 0 0 0 1.186.443l4.581-2.097a.896.896 0 0 0 .443-1.191l-5.497-11.987a.896.896 0 0 1 .789-1.268l10.577-.3a.896.896 0 0 0 .575-1.558z"/>
            <path fill="#24B3F4" d="M50.9 179.171h61.082c8.434 0 15.27 6.837 15.27 15.27 0 8.434-6.836 15.27-15.27 15.27H50.901c-8.434 0-15.27-6.836-15.27-15.27 0-8.433 6.836-15.27 15.27-15.27z"/>
            <path fill="#FFF" fill-rule="nonzero" d="M79.914 203.66l-8.77-8.745a1.329 1.329 0 0 1 0-1.889l2.515-2.52a1.339 1.339 0 0 1 1.888 0l4.342 4.343a1.329 1.329 0 0 0 1.888 0l9.63-9.63a1.339 1.339 0 0 1 1.89 0l2.514 2.519a1.329 1.329 0 0 1 0 1.888L81.777 203.66a1.339 1.339 0 0 1-1.863 0z"/>
            <path fill="#E6E6E6" fill-rule="nonzero" d="M133.177 22.396h9.6a.764.764 0 1 1 0 1.527h-9.6a.764.764 0 1 1 0-1.527z"/>
            <path fill="#24B3F4" d="M116.868 152.703h3.97c1.013 0 1.833.82 1.833 1.832v3.97c0 1.012-.82 1.833-1.832 1.833h-3.97a1.832 1.832 0 0 1-1.833-1.833v-3.97c0-1.012.82-1.832 1.832-1.832z"/>
            <path fill="#E6E6E6" fill-rule="nonzero" d="M139.774 152.703h3.97c1.012 0 1.833.82 1.833 1.832v3.97c0 1.012-.82 1.833-1.833 1.833h-3.97a1.832 1.832 0 0 1-1.833-1.833v-3.97c0-1.012.82-1.832 1.833-1.832z"/>
            <path fill="#24B3F4" d="M128.321 152.703h3.97c1.012 0 1.833.82 1.833 1.832v3.97c0 1.012-.82 1.833-1.833 1.833h-3.97a1.832 1.832 0 0 1-1.832-1.833v-3.97c0-1.012.82-1.832 1.832-1.832zM139.774 160.338a1.832 1.832 0 0 1-1.833-1.833v-3.97a1.832 1.832 0 0 1 1.833-1.832v7.635z"/>
            <path fill="#FFF" fill-rule="nonzero" d="M120.38 84.241h16.946a.764.764 0 0 1 0 1.527H120.38a.764.764 0 1 1 0-1.527zM120.38 88.313h13.382a.764.764 0 1 1 0 1.527h-13.381a.764.764 0 1 1 0-1.527zM121.19 62.354h3.98c.87 0 1.573.704 1.573 1.572v12.125c0 .869-.704 1.573-1.573 1.573h-3.98a1.573 1.573 0 0 1-1.573-1.573V63.926c0-.868.704-1.572 1.573-1.572zM130.861 62.354h3.98c.87 0 1.573.704 1.573 1.572v12.125c0 .869-.704 1.573-1.572 1.573h-3.98a1.573 1.573 0 0 1-1.574-1.573V63.926c0-.868.704-1.572 1.573-1.572z"/>
            <path fill="#E6E6E6" fill-rule="nonzero" d="M119.617 101.766h21.378a4.581 4.581 0 0 1 4.582 4.581v31.467a4.581 4.581 0 0 1-4.582 4.581h-21.378a4.581 4.581 0 0 1-4.581-4.58v-31.468a4.581 4.581 0 0 1 4.581-4.58zM133.177 19.088h8.073a.764.764 0 1 1 0 1.527h-8.073a.764.764 0 0 1 0-1.527z"/>
            <path fill="#FFF" fill-rule="nonzero" d="M139.754 62.354h1.527a.764.764 0 0 1 0 1.527h-1.527a.764.764 0 1 1 0-1.527zM139.754 65.917h1.527a.764.764 0 0 1 0 1.527h-1.527a.764.764 0 1 1 0-1.527zM120.38 130.143h16.946a.764.764 0 0 1 0 1.527H120.38a.764.764 0 1 1 0-1.527zM120.38 134.215h13.382a.764.764 0 0 1 0 1.528h-13.381a.764.764 0 0 1 0-1.528zM121.19 108.256h3.98c.87 0 1.573.704 1.573 1.573v12.124c0 .87-.704 1.573-1.573 1.573h-3.98a1.573 1.573 0 0 1-1.573-1.573V109.83c0-.869.704-1.573 1.573-1.573zM130.861 108.256h3.98c.87 0 1.573.704 1.573 1.573v12.124c0 .87-.704 1.573-1.572 1.573h-3.98a1.573 1.573 0 0 1-1.574-1.573V109.83c0-.869.704-1.573 1.573-1.573zM139.754 108.256h1.527a.764.764 0 0 1 0 1.527h-1.527a.764.764 0 1 1 0-1.527zM139.754 111.82h1.527a.764.764 0 0 1 0 1.526h-1.527a.764.764 0 1 1 0-1.527z"/>
            <path fill="#E6E6E6" fill-rule="nonzero" d="M133.177 15.78h11.636a.764.764 0 1 1 0 1.526h-11.636a.764.764 0 1 1 0-1.527z"/>
        </g>
    </g>
</svg>
