<svg xmlns="http://www.w3.org/2000/svg" width="270" height="230" viewBox="0 0 270 230">
    <g fill="none" fill-rule="evenodd">
        <path d="M0 0h270v230H0z"/>
        <g transform="translate(0 48)">
            <path fill="#F2F2F2" fill-rule="nonzero" d="M242.803 133.1c0 1.544-5.28 1.858-23.278 1.858-17.998 0-32.603-1.25-32.603-2.794 0-1.542 14.598-2.793 32.603-2.793 18.006 0 23.278 2.187 23.278 3.73zM108.692 133.1c0 1.544-5.28 1.858-23.286 1.858s-32.596-1.25-32.596-2.794c0-1.542 14.598-2.793 32.573-2.793 17.976 0 23.309 2.187 23.309 3.73z"/>
            <path fill="#24B3F4" d="M194.959.082H62.914a5.587 5.587 0 0 0-5.587 5.588v104.79a5.587 5.587 0 0 0 5.587 5.587h197.94a5.587 5.587 0 0 0 5.587-5.588V69.655a12.126 12.126 0 0 0-3.55-8.583L206.808 4.988a16.766 16.766 0 0 0-11.85-4.906z"/>
            <path fill="#FFF" fill-rule="nonzero" d="M266.441 99.801a3.498 3.498 0 0 0-3.498 3.49 3.498 3.498 0 0 0 3.498 3.498"/>
            <path fill="#24B3F4" d="M266.441 99.801a3.49 3.49 0 0 1 3.49 3.49 3.498 3.498 0 0 1-3.49 3.498"/>
            <path fill="#FFF" fill-rule="nonzero" d="M186.6 23.773v33.651a5.587 5.587 0 0 0 5.588 5.587h60.375a2.794 2.794 0 0 0 1.977-4.77l-35.636-35.63a5.571 5.571 0 0 0-3.948-1.64h-25.562a2.794 2.794 0 0 0-2.794 2.802z"/>
            <rect width="14.59" height="3.258" x="191.813" y="70.232" fill="#231F20" rx="1.629"/>
            <path fill="#FFF" fill-rule="nonzero" d="M57.35 106.79a3.49 3.49 0 0 0 3.49-3.499 3.49 3.49 0 0 0-3.49-3.49"/>
            <path fill="#24B3F4" d="M57.35 106.79a3.49 3.49 0 0 1-3.491-3.499 3.49 3.49 0 0 1 3.49-3.49"/>
            <path fill="#FFF" fill-rule="nonzero" d="M172.722 80.545H57.379v-3.258h115.343a1.633 1.633 0 1 1 0 3.258z"/>
            <path fill="#231F20" d="M69.585 14.118h97.298a7 7 0 0 1 7 7v34.893a7 7 0 0 1-7 7H69.585a7 7 0 0 1-7-7V21.118a7 7 0 0 1 7-7z"/>
            <path fill="#FFF" fill-rule="nonzero" d="M266.441 80.545h-78.583a1.633 1.633 0 1 1 0-3.258h78.583v3.258zM210.582 8.763H57.35V5.505h149.975z"/>
            <path fill="#FFF" fill-rule="nonzero" d="M236.287 105.606h-51.5a3.917 3.917 0 0 1-3.917-3.917V19.196a3.925 3.925 0 0 1 3.918-3.917h32.31l-1.393-1.393h-30.917a5.318 5.318 0 0 0-5.318 5.31v82.508a5.318 5.318 0 0 0 5.318 5.317h51.5v-1.415z"/>
            <path fill="#231F20" d="M59.252 114.182a4.868 4.868 0 0 0 3.662 1.865h197.94a4.89 4.89 0 0 0 3.685-1.865H59.252z"/>
            <circle cx="102.984" cy="116.099" r="18.627" fill="#231F20"/>
            <path fill="#FFF" d="M92.662 35.616c.256 0 .322.102.22.343l-1.236 2.908-3.313 7.79c-.133.312-.227.374-.565.374h-1.611c-.252 0-.326-.111-.23-.345.466-1.13.932-2.26 1.403-3.388a.376.376 0 0 0 0-.332c-1.041-2.318-2.077-4.638-3.113-6.958-.023-.051-.049-.102-.062-.156-.032-.134.032-.232.168-.233.673-.004 1.346-.004 2.018.003.196.001.294.136.362.307.452 1.135.907 2.27 1.362 3.403.154.386.31.77.482 1.196l1.485-3.641.39-.954c.103-.253.197-.316.476-.317h1.764zm28.067 3.443c.114.883.027 1.71-.275 2.488-.547 1.41-1.578 2.236-3.062 2.432-1.478.195-2.673-.113-3.608-1.042a3.904 3.904 0 0 1-.212-.227 3.797 3.797 0 0 1-1.814 1.007c-1.368.473-2.904.225-3.922-.566-1.035-.804-1.504-1.936-1.553-3.454.052-1.454.513-2.568 1.504-3.38 1.245-1.021 3.343-1.16 4.85-.165l.098.065-1.052 1.697-.104-.067a2.33 2.33 0 0 0-.986-.376c-.929-.116-1.674.339-2.005 1.22a2.803 2.803 0 0 0-.067 1.821c.337 1.143 1.337 1.686 2.481 1.345.165-.05.33-.115.5-.195l.065-.032c.373-.17.659-.504.882-1.008.09-.202.107-.371.101-.773v-.024a4.02 4.02 0 0 1 .115-1.016c.193-1.036.666-1.872 1.478-2.493 2.52-1.924 6.178-.396 6.586 2.743zm29.403-3.586c1.241-.013 2.226.53 3.074 1.373.215.214.22.358.017.594-.261.305-.536.598-.815.888-.133.138-.285.14-.475.019-.17-.108-.322-.242-.493-.347-.42-.256-.867-.411-1.37-.387-.484.024-.88.216-1.195.576-.628.718-.705 2.096-.113 2.845.454.573 1.047.804 1.775.68a2.767 2.767 0 0 0 1.165-.514c.257-.186.386-.18.586.05.274.313.538.634.793.961.2.257.184.39-.07.62-.64.583-1.379.95-2.249 1.07a4.469 4.469 0 0 1-2.431-.347 3.352 3.352 0 0 1-1.767-1.737c-.747-1.654-.672-3.279.317-4.816.52-.809 1.329-1.226 2.256-1.413.326-.065.661-.11.995-.115zm-6.804.206c1.193.379 1.85 1.236 2.087 2.424.085.428.066.876.089 1.316.005.093-.005.188-.022.28-.065.36-.128.414-.509.415l-2.073.001h-2.56c.167.862.536 1.475 1.365 1.692.497.129.986.015 1.456-.158.224-.083.434-.207.65-.314.28-.139.398-.121.586.123.22.286.435.578.638.876.148.218.12.39-.096.557-.897.69-1.89 1.085-3.051 1.015-.555-.034-1.089-.108-1.601-.329-.996-.43-1.649-1.175-2.003-2.182-.465-1.323-.42-2.623.234-3.882.557-1.07 1.452-1.69 2.625-1.924.733-.146 1.467-.138 2.185.09zm13.403-1.665c.252.011.331.135.336.409.008.372.002.745.002 1.158l.783.015c.107.002.215-.006.321.003.314.028.45.139.466.445.02.387.021.777-.007 1.163-.024.342-.12.41-.46.415-.348.005-.696 0-1.07 0-.012.12-.03.223-.03.325-.003 1.07-.003 2.141 0 3.212 0 .119.012.24.035.357.066.33.233.45.565.4.158-.024.313-.075.47-.109.09-.02.183-.034.276-.043.168-.014.294.051.331.223.087.404.18.807.243 1.215.037.244-.052.373-.27.426-.715.174-1.432.316-2.178.271-.93-.056-1.448-.66-1.604-1.333a5.359 5.359 0 0 1-.147-1.106c-.019-1.11-.007-2.22-.007-3.331v-.507c-.192 0-.337.007-.482-.002-.237-.016-.328-.088-.334-.311-.011-.455-.01-.91.001-1.365.005-.202.11-.298.333-.335.144-.023.29-.022.474-.034.026-.147.058-.286.075-.426.032-.251.058-.503.082-.756.02-.217.132-.36.35-.367a18.88 18.88 0 0 1 1.446-.012zm-53.309 1.625c1.265.355 1.957 1.226 2.202 2.485.109.559.091 1.122.032 1.684-.016.155-.107.245-.265.259-.062.005-.125.004-.187.004h-4.672c.05 1.185 1.039 1.96 2.212 1.767.469-.077.903-.24 1.307-.49.26-.16.362-.138.54.104l.63.86c.178.246.153.38-.095.565-.648.48-1.348.856-2.16.952-1.337.16-2.575-.062-3.574-1.05-.597-.59-.924-1.328-1.075-2.143-.229-1.228-.056-2.394.62-3.458.6-.944 1.49-1.452 2.585-1.62.637-.097 1.275-.095 1.9.08zM81.854 34c.18.087.232.234.228.427-.01.388-.003.777-.003 1.189h.35c.294 0 .588-.003.882.001.19.003.303.107.305.29.005.457.005.914 0 1.37-.002.193-.122.295-.337.297-.327.004-.655.001-.984.001h-.206c-.004.068-.01.127-.01.186v3.554c0 .067.003.135.009.202.025.278.178.434.455.408.273-.025.545-.087.814-.148.244-.054.35.002.4.245.081.38.163.76.24 1.14.05.244-.024.377-.263.42-.566.105-1.131.216-1.703.279-.28.031-.58.002-.854-.069-.736-.188-1.096-.735-1.248-1.435a3.855 3.855 0 0 1-.075-.788c-.007-1.258-.003-2.516-.003-3.774v-.22c-.179 0-.341.002-.503 0-.25-.004-.346-.102-.347-.353v-1.253c0-.26.093-.351.36-.353h.487c.038-.383.077-.751.109-1.12.018-.207.039-.407.269-.496h1.628zm45.95 2.215c.326.255.548.591.717.955.209.45.323.931.366 1.43.134 1.562.042 3.129.065 4.694.007.428-.09.515-.52.518-.442.003-.885.004-1.328 0-.4-.004-.493-.095-.494-.503-.004-1.312.002-2.624-.008-3.936a3.482 3.482 0 0 0-.1-.832c-.225-.883-.74-1.105-1.604-.976-.167.025-.33.108-.485.185-.361.18-.55.435-.54.884.03 1.5.011 2.999.01 4.499 0 .106.008.214-.003.32-.024.233-.127.35-.355.354-.523.01-1.047.011-1.57 0-.23-.006-.324-.12-.347-.36-.007-.08-.002-.16-.002-.24v-6.989c0-.067-.003-.134 0-.2.016-.264.1-.386.35-.407.292-.024.59-.02.883.003.295.024.417.26.515.56.468-.34.928-.565 1.439-.63 1.079-.136 2.114-.033 3.012.67zm8.289.01c.345.273.586.633.737 1.035.14.372.247.764.312 1.156.066.394.08.799.084 1.199.01 1.205.004 2.41.004 3.615 0 .093.006.19-.011.28-.034.175-.137.296-.326.297-.55.006-1.1.01-1.65 0-.228-.004-.332-.121-.355-.354-.011-.106-.004-.214-.004-.32-.001-1.273.004-2.545-.007-3.817a3.276 3.276 0 0 0-.102-.79c-.229-.874-.756-1.097-1.617-.955-.18.03-.355.12-.52.207-.33.174-.497.418-.49.833.028 1.526.012 3.052.011 4.578 0 .107.007.216-.01.32-.03.177-.136.297-.324.298-.537.006-1.074.01-1.611-.001-.204-.005-.304-.125-.33-.335-.008-.08-.003-.16-.003-.24V36.2c0-.066-.003-.133.001-.2.017-.242.096-.365.326-.384.305-.026.616-.017.922.001.166.01.3.11.38.266l.135.27c.437-.3.89-.535 1.4-.604 1.096-.147 2.142-.04 3.048.675zm-37.737-.627c.16.021.242.154.193.314-.152.5-.31 1-.472 1.498-.053.162-.184.223-.347.21-.152-.012-.302-.04-.454-.052-.461-.035-.905.008-1.285.309-.199.157-.308.339-.305.617.013 1.623.006 3.247.006 4.871 0 .335-.082.416-.423.416h-1.425c-.264 0-.363-.094-.363-.351v-7.46c0-.263.094-.353.36-.354h.746c.327 0 .412.057.536.357.016.041.036.08.064.142.442-.277.9-.46 1.396-.542.593-.1 1.184-.05 1.773.025zm18.34 1.893c-.83-.016-1.46.394-1.78 1.16a3.01 3.01 0 0 0-.185.623 2.15 2.15 0 0 0-.04.659l.005.046c.007.083.01.103.011.132.03.252.092.497.185.738.313.81.92 1.22 1.792 1.22.841 0 1.43-.388 1.748-1.154.311-.751.315-1.507.01-2.254-.314-.766-.898-1.153-1.746-1.17zm-15.5.35a1.75 1.75 0 0 0-.605.914h2.916c-.007-.091-.01-.17-.017-.248-.056-.519-.311-.865-.755-.972-.555-.134-1.08-.049-1.539.307zm40.017-.08a1.452 1.452 0 0 0-.753.957h2.73c.062-.576-.17-.95-.661-1.11-.463-.15-.904-.07-1.316.153z"/>
            <circle cx="102.984" cy="116.099" r="12.418" fill="#FFF" fill-rule="nonzero"/>
            <path fill="#24B3F4" d="M102.984 107.89a8.209 8.209 0 1 0 0 16.418 8.209 8.209 0 0 0 0-16.418zm0 4a4.209 4.209 0 1 1 0 8.418 4.209 4.209 0 0 1 0-8.418z"/>
            <circle cx="102.984" cy="116.099" r="1.655" fill="#24B3F4"/>
            <circle cx="102.984" cy="126.038" r="1" fill="#24B3F4"/>
            <circle cx="102.782" cy="106.377" r="1" fill="#24B3F4"/>
            <circle cx="99.621" cy="125.446" r="1" fill="#24B3F4"/>
            <circle cx="106.153" cy="106.894" r="1" fill="#24B3F4"/>
            <circle cx="96.655" cy="123.731" r="1" fill="#24B3F4"/>
            <circle cx="109.133" cy="108.542" r="1" fill="#24B3F4"/>
            <circle cx="236.167" cy="116.099" r="18.627" fill="#231F20"/>
            <circle cx="236.167" cy="116.099" r="12.418" fill="#FFF" fill-rule="nonzero"/>
            <path fill="#24B3F4" d="M236.167 107.89a8.209 8.209 0 1 0 0 16.418 8.209 8.209 0 0 0 0-16.418zm0 4a4.209 4.209 0 1 1 0 8.418 4.209 4.209 0 0 1 0-8.418z"/>
            <circle cx="236.167" cy="116.099" r="1.655" fill="#24B3F4"/>
            <circle cx="226.236" cy="116.099" r="1" fill="#24B3F4"/>
            <circle cx="245.897" cy="115.897" r="1" fill="#24B3F4"/>
            <circle cx="226.828" cy="112.736" r="1" fill="#24B3F4"/>
            <circle cx="245.372" cy="119.267" r="1" fill="#24B3F4"/>
            <circle cx="228.535" cy="109.77" r="1" fill="#24B3F4"/>
            <circle cx="243.732" cy="122.248" r="1" fill="#24B3F4"/>
            <rect width="38.655" height="1.401" x=".187" y="25.293" fill="#231F20" rx=".7" transform="rotate(180 19.515 25.993)"/>
            <rect width="38.655" height="1.401" x="14.62" y="34.138" fill="#231F20" rx=".7" transform="rotate(-180 33.947 34.839)"/>
            <rect width="37.718" height="1.401" x="9.969" y="16.44" fill="#231F20" rx=".7" transform="rotate(180 28.828 17.14)"/>
        </g>
    </g>
</svg>
