<svg xmlns="http://www.w3.org/2000/svg" width="188" height="108" viewBox="0 0 188 108">
    <g fill="none" fill-rule="evenodd" opacity=".3">
        <path d="M0 0h188v108H0z"/>
        <path fill="#FFF" fill-rule="nonzero" d="M156.32 61.41c.989 0 1.078.397.865 1.25l-.034.13-.139.507h-2.032l-.092.322c-.208.76-.139.967.461.967.65 0 .833 0 1.005-.57l.035-.12h.438l-.046.137c-.185.69-.439.967-1.478.967-1.131 0-1.177-.368-.785-1.795.416-1.45.739-1.795 1.801-1.795zm3.117 0c1.016 0 1.154.23.946.967h-.415c.161-.53.023-.576-.647-.576-.6 0-.739.07-.877.599-.139.483-.093.529.623.575 1.016.069 1.155.138.947.897-.231.829-.462 1.105-1.593 1.105-.809 0-1.155-.092-.855-1.128h.439c-.185.599-.116.737.531.737.716 0 .854-.092 1.016-.69.139-.46.092-.507-.716-.53-.854-.046-1.062-.184-.854-.943.208-.737.416-1.013 1.455-1.013zm-8.175-1.404l-.138.46h-1.34l-1.247 4.465h-.485l1.247-4.464h-1.362l.139-.46h3.186zm.439 1.45l-.97 3.475h-.439l.97-3.475h.439zm2.147-.069c.555 0 .74.23.555.944l-.07.276h-.392c.185-.645.161-.806-.347-.806-.438 0-.739.23-.854.714l-.67 2.416h-.438l.923-3.475h.439l-.115.414h.023c.254-.322.508-.483.946-.483zm-6.535.138l-.923 3.36H20.956l.9-3.36h125.457zm8.868.276c-.712 0-.86.28-1.045.917l-.04.142h1.57c.207-.737.3-1.059-.485-1.059zm-4.064-1.795l-.162.576h-.439l.162-.576h.439zM68.66 43.14c4.445.013 7.484.26 6.145 4.763h-5.08v-.023c.439-1.52-1.2-1.496-2.678-1.496-3.58 0-3.926.874-4.619 3.29l-.67 2.44c-.715 2.646.347 2.923 2.956 2.923 2.54 0 3.349-.46 3.903-2.532h-3.464l.74-2.761h8.543l-.716 2.623c-1.362 5.04-3.21 5.96-9.883 5.96-5.889 0-8.66-.805-7.343-5.638l1.039-3.866c1.314-4.854 4.806-5.655 10.106-5.683h1.021zm29.099 3.98c5.703 0 6.558.967 5.357 5.592-1.178 4.488-2.633 5.57-8.267 5.57-5.565 0-6.466-1.197-5.334-5.57 1.178-4.464 2.586-5.592 8.244-5.592zm-14.756 0c5.704 0 6.558.967 5.357 5.592-1.177 4.488-2.54 5.57-8.267 5.57-5.565 0-6.465-1.197-5.334-5.57 1.178-4.464 2.563-5.592 8.244-5.592zm37.524-3.889l-4.041 14.981h-4.526l.508-1.979h-.092c-.947 1.657-2.471 2.025-4.41 2.025-3.202 0-4.774-1.052-4.139-3.8l.05-.204.648-2.485c.877-3.314 2.655-4.649 6.373-4.649 1.574 0 2.956.255 3.37 1.517l.047.163h.185l1.547-5.546v-.023h4.48zm28.426 8.078h-4.434c.185-.576.185-.944-.069-1.174-.254-.23-.762-.322-1.686-.322-1.57 0-2.147.368-2.794 2.853-.67 2.555-.37 2.83 1.317 2.83 2.009 0 2.24-.39 2.586-1.748h4.457v.023c-.532 2.025-1.27 3.153-2.471 3.75-1.201.622-2.864.737-5.265.737-5.265 0-6.166-1.265-5.057-5.569.97-3.705 2.401-5.592 7.943-5.592 3.903 0 6.489.322 5.473 4.212zm-91.235-8.055l-.878 3.245h-8.267l-.808 2.946h7.62l-.877 3.267H46.91l-1.478 5.523h-5.011l4.064-14.98h13.232zm-20.853 0c3.572.025 5.524.644 4.642 3.843-.49 1.844-1.26 3.045-3.62 3.416l-.26.036-.045.161c2.724.138 2.84 1.473 2.332 3.36-.97 3.576-3.154 4.14-6.96 4.164l-.268.001h-9.93l4.065-14.98h10.044zm88.534 3.935l-.484 1.795s1.154-1.795 4.04-1.795h1.34l-.762 2.785h-3.002c-1.016.046-1.847.414-2.217 1.703l-1.732 6.558h-4.572l2.979-11.046h4.41zm10.507-.046l-2.956 11.07h-4.595l2.979-11.07h4.572zm20.852-3.935l-1.709 6.052h.116c1.085-1.726 2.563-2.163 4.664-2.163 3.002 0 4.087 1.15 3.464 3.475l-2.032 7.617h-4.41l1.8-6.788c.255-1.059.024-1.588-1.431-1.588-1.986 0-2.586.966-2.933 2.278l-1.616 6.098h-4.388l4.064-14.98h4.411zm-59.669 6.628c-2.124 0-2.517.483-3.14 2.853-.6 2.37-.462 2.83 1.685 2.83 2.078 0 2.402-.46 3.025-2.83.624-2.37.531-2.83-1.57-2.853zm-14.733 0c-2.147 0-2.54.483-3.14 2.853-.623 2.37-.485 2.83 1.663 2.83 2.078 0 2.401-.46 3.025-2.83.623-2.37.53-2.83-1.548-2.853zm29.42 0c-2.24 0-2.472.69-3.026 2.853-.692 2.67-.323 2.83 1.547 2.83 1.825 0 2.494-.367 3.14-2.83.555-2.117.694-2.83-1.662-2.853zM33.31 52.02h-3.88l-.785 2.923h3.764c1.616 0 2.378-.3 2.702-1.52.323-1.219-.208-1.403-1.801-1.403zm1.8-5.5h-4.202l-.739 2.715h3.602c1.755 0 2.24-.23 2.564-1.426.23-.898.161-1.243-1.224-1.29zm101.858-3.29l-.762 2.738h-4.549l.716-2.739h4.595zM163.616 43c.74 0 1.34.598 1.34 1.335 0 .76-.6 1.357-1.34 1.357a1.363 1.363 0 0 1-1.362-1.357c0-.737.6-1.335 1.362-1.335zm0 .161c-.67 0-1.2.53-1.2 1.174a1.19 1.19 0 0 0 1.2 1.196c.67 0 1.178-.529 1.178-1.196a1.18 1.18 0 0 0-1.178-1.174zm.139.46c.392 0 .53.138.53.392 0 .265-.163.386-.378.41l-.083.004.416.667h-.208l-.416-.667h-.346v.667h-.162v-1.473h.647zm-.023.184h-.439v.46h.277c.208 0 .554.047.554-.23 0-.207-.208-.23-.392-.23z"/>
    </g>
</svg>
