<svg xmlns="http://www.w3.org/2000/svg" width="188" height="108" viewBox="0 0 188 108">
    <g fill="none" fill-rule="evenodd" opacity=".3">
        <path d="M0 0h188v108H0z"/>
        <path fill="#FFF" fill-rule="nonzero" d="M134.196 47.137c5.422 0 5.665 2.944 4.37 7.932-1.78 6.95-3.641 7.931-8.416 7.931-4.694 0-5.908-1.799-4.37-7.931 1.78-7.114 3.804-7.932 8.416-7.932zm-24.277-.082c4.197 0 5.372 1.958 4.586 4.495l-.055.166h-3.641c.485-1.226.404-2.29-1.295-2.29-1.133 0-1.78.573-2.023 1.554-.162.573-.162 1.145.324 1.636.97.899 3.722 1.144 5.098 2.698.728.818.971 2.044.647 3.27-.89 3.517-2.913 4.416-6.717 4.416-4.047 0-6.071-1.652-4.697-5.264l.085-.214v.081h3.803c-.647 2.208.081 2.944 1.295 2.944 1.295 0 1.942-.572 2.266-1.88.162-.655.162-1.309-.486-1.718-1.456-.981-4.127-1.226-5.098-2.943-.485-.818-.485-2.045-.324-2.78.648-2.699 2.59-4.17 6.232-4.17zm-23.954 0c4.682 0 5.162 2.203 4.568 4.756l-.036.15h-4.128c.405-1.39.405-2.453-1.214-2.453-1.699 0-2.346.9-3.56 5.479-1.133 4.415-1.376 5.233 1.295 5.233.495 0 .805-.063 1.092-.078l.121-.004 1.376-5.07h4.208l-1.942 7.278c-1.7.327-2.832.49-5.584.49-5.746 0-6.312-1.635-4.694-7.931 1.7-6.705 3.157-7.85 8.498-7.85zm-14.81.327c5.341 0 6.232 1.881 4.694 7.687-1.592 6.435-2.636 7.727-8.527 7.766l-.294.001h-4.855c-.216 0-.368-.193-.342-.409l.018-.081 3.803-14.964h5.503zm76.799 0c4.28 0 5.92 1.177 4.997 4.684l-.06.222-2.671 10.548h-3.642c-.216 0-.368-.193-.342-.409l.018-.081 2.59-10.058c.47-1.738.258-2.408-1.365-2.45l-.173-.003h-1.376l-3.317 13.001h-3.642c-.216 0-.368-.193-.342-.409l.018-.081 3.804-14.964c.89.082 2.347 0 5.503 0zm-19.989 0l-.405 1.063c-.304.924-.967 1.413-1.989 1.467l-.196.005h-2.023l-3.318 12.92h-3.965c-.216 0-.368-.194-.342-.41l.018-.081 2.59-10.385c.162-.735.566-1.471 1.214-1.962.064 0 .077-.052.039-.073l-.04-.009h-4.046l.648-2.535h11.815zm-65.388-.081c.216 0 .368.193.342.409l-.018.081-3.804 14.964v.081h-3.884c-.216 0-.368-.193-.342-.409l.018-.081L58.693 47.3h3.884zm-12.139.081c3.966 0 5.503 1.963 4.856 4.498-.465 1.877-1.521 2.93-3.17 3.52l-.229.077v.082c.139.21.277.48.416.863l.07.2 1.294 6.214h-3.237c-.755 0-1.158-.284-1.34-.92l-.035-.143-1.538-7.44h.567c1.375 0 2.59-.9 2.994-2.453.31-1.097-.197-1.97-1.451-2.04l-.168-.005H47.93l-3.318 13.001H40.97c-.216 0-.368-.193-.342-.409l.018-.081 3.885-14.964h5.907zm-9.063 2.045c-.648 2.698-2.509 3.434-4.37 3.76-.081 0 0 .083 0 .083 2.185.49 3.56 2.29 2.832 4.906-.867 3.107-3.117 4.506-7.2 4.576l-.326.003H22.114c-.08 0-.161-.164-.08-.246 2.59-3.352 6.797-7.767 10.277-10.793.07-.07.139-.02.157.099l.005.065-2.324 8.339h1.515c.758 0 1.446-.574 1.729-1.252l.051-.137 3.884-13.819c2.51-.163 4.775 1.472 4.047 4.416zm61.908-2.126l-.648 2.453h-4.37c-.755 0-1.228.498-1.42 1.097l-.036.13-.648 2.452h5.503l-.647 2.453h-5.503l-.89 3.68c-.075.377.057.546.523.57l.124.002v-.082h5.503l-.486 1.145c-.303.843-.962 1.4-1.91 1.465l-.194.007h-5.503c-1.881 0-2.623-.998-2.153-3.29l.05-.226 1.86-7.36c.95-3.915 1.744-4.472 4.272-4.496H103.283zm62.717 0l-.647 2.453h-4.37c-.756 0-1.229.498-1.42 1.097l-.037.13-.647 2.452h5.502l-.647 2.453h-5.503l-.89 3.68c-.075.377.057.546.524.57l.123.002v-.082h5.503l-.485 1.145c-.304.843-.963 1.4-1.91 1.465l-.194.007h-5.503c-1.882 0-2.624-.998-2.154-3.29l.05-.226 1.861-7.36c.949-3.915 1.743-4.472 4.272-4.496H166zm-32.451 2.207c-1.538 0-2.509 1.39-3.56 5.397-1.215 4.824-.972 5.478.808 5.478 1.376 0 2.51-1.063 3.561-5.478 1.133-4.415.971-5.397-.81-5.397zm-63.041.246h-1.295l-2.67 10.384h1.133c2.265 0 2.913-.654 4.046-5.151 1.133-4.416 1.133-5.233-1.214-5.233zm-34.232-4.661c.162 0 .162.163.081.245-3.803 2.617-8.335 6.542-11.734 9.976-.162.082-.324 0-.243-.164l2.428-8.422c.243-.9 1.214-1.635 2.185-1.635h7.283z"/>
    </g>
</svg>
