<svg xmlns="http://www.w3.org/2000/svg" width="188" height="108" viewBox="0 0 188 108">
    <g fill="none" fill-rule="evenodd" opacity=".3">
        <path d="M0 0h188v108H0z"/>
        <g fill="#FFF" fill-rule="nonzero">
            <path d="M94.331 21c28.873 0 52.31 14.779 52.31 33.02 0 18.202-23.437 32.98-52.31 32.98-28.913 0-52.309-14.778-52.309-32.98 0-18.242 23.396-33.02 52.31-33.02zm0 3.262c-27.14 0-49.128 13.288-49.128 29.758 0 16.43 21.987 29.758 49.128 29.758 27.1 0 49.088-13.328 49.088-29.758 0-16.47-21.987-29.758-49.088-29.758z"/>
            <path d="M116.036 74.437c2.457 0 4.188-1.33 4.188-3.222 0-3.181-4.107-2.416-4.107-3.784 0-.404.322-.645.806-.645 1.288 0 1.53 1.37 2.376 1.37.443 0 .724-.403.765-.887.08-.806-.483-2.173-1.329-2.134-.161 0-.443.12-.605.201h-.12c-.362 0-1.33-.443-2.215-.443-2.134 0-3.584 1.45-3.584 3.182 0 .725.564 1.45 1.248 1.973 1.29 1.047 3.221 1.208 3.221 2.135 0 .361-.482.683-1.087.603-.563-.04-1.328-.563-1.65-1.046-.242-.404-.685-1.169-1.25-1.169-.36 0-.804.564-.804 1.048 0 .725.322 1.852.683 2.214.203.323.646.443 1.25.161.604.2 1.812.483 2.214.443 0 0-.402.04 0 0zm-42.805-6.04c0-1.129-.162-1.37-.564-1.37-.523 0-1.047 2.215-2.013 2.215-.524 0-.846-.403-.846-.926 0-.847.805-3.384 1.691-3.384.443 0 .765.403 1.812.403h3.503c.363 0 1.007-.12 1.45-.24.121-.041.242-.041.363-.041.926 0 1.248 1.65 1.369 2.416.12.806-.282 1.45-.886 1.45-.483 0-.886-.684-1.208-1.249-.322-.564-.684-.684-.926-.684-.322 0-.443.282-.443.927v3.705c0 .805.121 1.047.564 1.248.483.201.645.362.645.684 0 .644-.846.927-2.658.927-2.175 0-2.86-.322-2.86-1.006 0-.404.444-.524.685-.685.363-.281.282-.927.282-1.409l.04-2.982zm13.087-1.893c-.403.201-.523.927-.523 2.94 0 .16 0 .362.04.523l.04 1.691c-.04.605.08.927.564 1.169.323.16.443.322.443.564 0 .966-2.174.966-2.9.966-1.53 0-2.254-.242-2.254-.806 0-.242.16-.282.402-.564.363-.362.483-.886.483-1.53l.04-1.61v-.404c0-1.932 0-2.738-.522-3.06-.363-.242-.363-.322-.363-.564 0-.845 2.175-.806 2.779-.806 1.49 0 2.335.322 2.335.886 0 .201-.12.363-.323.443l-.24.162zm3.543 2.818v-.765c0-1.409.04-2.053-.362-2.295-.282-.2-.362-.281-.362-.523 0-.523.443-.644 1.409-.644.524 0 1.047.08 1.57.08.887 0 1.732-.12 2.578-.12 1.892 0 3.745.805 3.705 2.657 0 1.651-1.288 1.852-1.288 2.135 0 .16.08.361.322.523.443.282.724.846 1.046 1.852.121.523.403.523.765.644.242.082.322.404.322.685 0 .644-1.006.886-2.254.886-.927 0-1.29-.403-1.692-.886-.886-1.087-.684-2.86-1.973-2.86-.363 0-.403.081-.403.846 0 1.208.08 1.29.443 1.49.282.161.282.323.282.564 0 .604-.644.805-2.456.805-1.651 0-2.336-.24-2.336-.886 0-.724.645-.24.645-2.174l.04-2.014zm15.826-4.309c1.45 0 1.852 0 2.457-.2.08-.04.16-.04.201-.04.564 0 1.208 1.409 1.208 2.375 0 .605-.283.927-.726.927-.925 0-.482-1.772-2.939-1.772-.886 0-.845.16-.845.805v1.128c0 .362.12.604.563.604.967-.04.282-1.087 1.168-1.087.523 0 .806.362.806 1.61 0 .967.08 1.973-.726 1.973-.765 0-.201-1.207-1.49-1.248-.282 0-.282.202-.282.926 0 1.692-.16 1.813 1.087 1.813 1.41 0 2.094-.726 2.779-1.611.362-.443.403-.645.725-.645.564-.04.483.725.483 1.25 0 .482-.765 2.455-1.45 2.455-.443 0-.966-.12-1.49-.12h-5.637c-.484 0-.726-.202-.726-.605 0-.563.404-.644.564-1.409.161-.684.12-1.289.12-2.456 0-1.692 0-2.617-.039-2.9-.04-.281.04-.684-.241-.886-.162-.12-.322-.12-.322-.361 0-.564.281-.524 1.328-.524h3.424v-.002zm-12.524 3.585c0 .281.04.442.363.442.765 0 .926-.282.967-1.006.08-.886-.282-1.288-.887-1.288-.362 0-.322.12-.362.523l-.08 1.329zm3.423-16.994c0 3.825-3.1 6.805-7.087 6.805-3.262 0-5.799-2.738-5.799-6.2 0-4.148 2.658-7.047 6.604-7.209 3.142 0 6.282 2.618 6.282 6.604zm36.444-4.832c.362 0 .725-1.53 2.376-1.53 1.368 0 2.014 1.006 2.014 2.697 0 1.692-.726 2.618-2.175 2.618-.725 0-1.047-.242-1.731-1.29-.121-.24-.242-.24-.403-.24-.403 0-.403.522-.403 2.294 0 2.98-.04 3.987.806 4.31.644.24.926.403.926.966 0 1.289-.926 1.771-4.269 1.771-2.576 0-3.745-.482-3.745-1.61 0-.483.161-.684.644-1.046.644-.525.726-.927.765-3.223v-2.134c.082-2.174-1.409-1.248-1.409-2.577 0-1.732 4.108-2.577 5.236-2.577.644 0 .804.161.845.926.04.363.12.645.523.645 0 0-.403 0 0 0zM65.297 40.49c1.088 0 2.256 1.289 2.256 3.584 0 1.61-.805 2.657-2.054 2.657-2.053 0-2.053-3.1-4.832-3.14-1.53 0-2.296 1.53-2.296 3.785 0 3.222 1.974 6.483 4.47 6.483 2.417 0 2.98-1.49 3.504-1.49.483 0 1.207.404 1.207 1.209 0 1.248-.765 3.18-1.892 3.422-2.014.443-2.537 1.49-4.913 1.49-4.43 0-8.215-4.147-8.215-9.06s3.624-9.584 7.893-9.584c2.335 0 3.302.805 3.946.805.121 0 .242 0 .322-.04.202-.04.403-.121.604-.121 0 0-.2 0 0 0zm16.39 11.114c0 3.825-3.1 6.805-7.087 6.805-3.262 0-5.799-2.738-5.799-6.2 0-4.148 2.658-7.047 6.604-7.209 3.14 0 6.282 2.618 6.282 6.604zm22.752 2.336c0 .886.12 1.61.926 1.61.805.04 1.289-1.328 1.289-3.423 0-1.932-.443-3.301-1.289-3.301-.563 0-.846.403-.846 1.208l-.08 3.906zm-15.826-4.59c0 1.006.443 3.462.926 4.831.202.685.564 1.048 1.088 1.007.604-.04.805-.443.805-1.57 0-1.249-.443-3.504-.966-4.913-.202-.524-.564-.886-1.047-.886-.605.04-.806.645-.806 1.53 0 0 0-.885 0 0zm10.51-.726c-.523-.12-1.167-.403-1.167-1.006-.08-.765.282-.927 1.288-1.41 2.014-.966 3.222-1.127 4.672-1.127.966 0 .402 1.772.966 1.812.886 0 .644-1.812 3.02-1.852 2.336 0 4.108 3.14 4.108 6.442 0 3.946-2.175 7.088-4.954 7.088-1.005 0-1.69-.563-2.134-.563-.202 0-.322.322-.322.765 0 .764-.04 1.328.443 1.57.483.202.886.443.886 1.006 0 1.048-1.048 1.57-2.9 1.57-2.698 0-5.194-.965-5.194-2.335 0-1.65 1.61.362 1.73-4.188l.041-2.778c-.04-2.255.04-4.913-.483-4.994 0 0 .524.08 0 0zm-25.409.725c0 1.007.443 3.463.926 4.832.201.685.564 1.048 1.088 1.007.604-.04.805-.443.805-1.57 0-1.249-.443-3.504-.966-4.913-.202-.524-.564-.886-1.047-.886-.605.04-.806.645-.806 1.53 0 0 0-.885 0 0zm46.147.725c.484 0 .685-.201.685-.765 0-.926-.16-1.57-.886-1.57-.683 0-1.127.764-1.127 1.65 0 .523.202.685.725.685h.603zm-.925 2.779c0 1.328 1.328 2.134 2.336 2.134.724 0 1.087-.161 1.65-.644.322-.242.483-.121.685-.121.483 0 1.127.604 1.127 1.087 0 .604-.362 1.207-1.006 1.772-1.168 1.047-2.538 1.53-4.107 1.53-3.182 0-6-2.98-6-6.523 0-3.826 2.94-7.047 6.16-7.047 1.53 0 2.7.684 3.706 1.65 1.007.927 1.69 2.577 1.69 3.826 0 1.167-.402 1.973-1.046 1.973-.74 0-5.195-.39-5.195.363zm-23.437-18.04c-.161.2.04.362.242.402l1.167.121c.203.04.322.161.322.363-.039 1.288-.845 3.946-1.006 4.268-.161.362 0 .564.322.644.323.08 1.088.484 2.417-.805 1.33-1.289 1.369-4.228 1.329-5.034l-4.108.04c-.16 0-.2-.161-.04-.242l3.384-.724c-.968-1.812-2.619-3.987-4.39-3.866-.282.04-.403-.04-.483-.241-.04-.202.08-.322.2-.443.122-.121.162-.403.122-.645-.202-.845-.927-1.167-1.813-1.167-3.06-.04-3.624 1.771-3.704 2.134-.04.322-.242 1.127-.725 1.61-.484.524-1.047 1.651-1.128 2.94-.08 1.329.523 2.416.966 3.262 1.007 1.53.484 2.818.403 3.221-.04.403.241 1.45 1.087 1.45.806 0 1.168-1.53 1.168-2.537 0-1.006-.564-2.255-.806-2.94-.24-.684-.886-1.65-.805-2.898.12-1.45 1.127-2.296 1.369-2.416.242-.162.362.12.161.322-1.127 1.288-.805 3.543-.604 4.027.161.443 1.088 2.738 1.127 3.342.04.483 0 1.328-.12 1.852-.121.564.2.523.322.282.185-.655.28-1.332.282-2.013-.04-.886-.967-2.9-1.087-3.222-.121-.322-.685-2.094.242-3.624.926-1.57 2.859-1.248 3.503-.926.605.322 1.57 1.691 1.812 2.134.242.483-.241.523-.403.523-.161 0-.403-.04-.563.08-.12.122-.12.323-.12.484.039.08.039.201-.042.241 0 0 .08-.04 0 0zm-2.174.764c.443.483 1.208 1.571 1.168 2.779 0 1.208-.524 2.537-.846 3.06-.121.201-.523.201-.282-.362.2-.564.523-1.933.523-2.698 0-.765-.322-1.974-.806-2.537-.16-.242.042-.403.243-.242 0 0-.201-.16 0 0zm-.846 6.524c.443 0 2.014.08 2.82.282.24.04.401-.081.362-.484l-.203-1.047 1.41.363 1.41 2.819c-.645-.322-4.148-1.692-5.679-1.53-.362.08-.442-.363-.12-.403 0 0-.322.04 0 0zm-.121-7.772c.202-.201.645-.443 1.007-.242.362.161.523.685.282.846-.242.161-.443.161-.443-.081-.04-.242-.282-.362-.483-.161-.202.242-.524 0-.363-.362 0 0-.161.362 0 0zm-3.785-.926c-.04.442-.12 1.731 1.007 3.584l-.08.644c-.323-.362-1.773-2.658-.927-4.228zm1.893 5.234c.161.242.362.806-.322 2.134-.202-.321-.121-1.288.322-2.134 0 0-.443.846 0 0zm7.449-2.536h.404c0 .323-.121 1.248-.283 1.732-.04.2-.403.402-.322-.081.08-.524.2-1.329.2-1.651 0 0 0 .322 0 0zm-6.12-7.49c.2-.08.845-.162 1.248.04.16.04.16.363-.202.323-.362-.081-.604-.081-.805 0-.201.12-.443.08-.242-.363 0 0-.2.442 0 0zm1.49.845l.483.04.08.162c.04.08.161.2.201-.121l.201.04.04.443-.24.242h-.725l-.04-.806zm5.395 6.604h.404c0 .363-.12 1.25-.283 1.732-.04.242-.402.443-.322-.08.08-.524.201-1.289.201-1.652 0 0 0 .363 0 0zm.765 0h.404c0 .323-.12 1.25-.283 1.692-.04.241-.402.442-.322-.08.08-.484.201-1.29.201-1.612 0 0 0 .322 0 0z"/>
        </g>
    </g>
</svg>
