<svg xmlns="http://www.w3.org/2000/svg" width="188" height="108" viewBox="0 0 188 108">
    <g fill="none" fill-rule="evenodd" opacity=".3">
        <path d="M0 0h188v108H0z"/>
        <path fill="#FFF" fill-rule="nonzero" d="M22.533 38l26.842 16.186L22.703 70l8.005-7.46c-5.51 0-8.623-4.363-8.708-8.362 0-4 3.199-8.457 8.623-8.544-.626-.545-8.09-7.634-8.09-7.634zm111.734 23.362c1.159 0 .71.909.626 1.09l-.804 1.455c-.24.323-.548.359-.863.363h-.118c-.093 0-.178 0-.093.095l.27.095c.178.095.178.182.178.458 0 .459.27.459.534.459.355 0 .448-.459.448-.727h1.159c0 .363-.093.727-.178 1.003h.27l1.422-3.185h-.888l.448-1.003h6.753l-.982 2.18h-.888l-.178-1.272h-1.6l-.532 1.186h1.514l-.448 1.004h-1.515l-.448 1.003h1.692l1.16-1.272h.888l-.981 2.276h-6.846a5.227 5.227 0 0 1-1.066.095c-.626 0-1.515-.182-1.87-.459-.27-.276-.356-.908-.448-1.272 0-.363-.178-.545-.448-.545h-.449l-.533 1.185h.889l-.448 1.004h-4.62l.447-1.004h.982l1.421-3.185h-1.066l.448-1.003 6.761-.024zm14.38.19c.355.094.532.276.625.276.093-.095.178-.277.178-.277h1.955l-.711 1.731h-2.226c.093-.181.27-.64-.177-.727-.626-.095-1.6-.276-1.777.277-.093.545.803.545 1.599.64.379-.11.734-.024 1.53.158.71.182.626.727.533 1.004-.178.64-.27 1.367-1.159 1.73-.981.364-2.758.364-3.825.095-.27 0-.533-.363-.803-.181l-.27.276h-2.226l.889-1.818h2.488c-.178.182-.27.459-.093.64.448.364 1.6.277 1.87.095.177-.094.177-.181.27-.363.093-.182-.093-.364-.27-.364-1.067-.276-2.31-.181-3.2-.64-.27-.182-.27-.363-.27-.64.178-.727.626-1.549 1.337-1.818 1.16-.363 2.58-.363 3.732-.095zm-27.098-.19l-.888 2.276h-1.067l.093-1.186h-.889l-1.244 3.09h.982l-.448 1.004h-4.629l.448-1.003h.897l1.421-3.09h-.803l-.981 1.185h-1.067l1.067-2.276h7.108zm5.161 0l-.448.909h-.888l-1.422 3.272h.974l-.356.908h-4.535l.448-.908h.803l1.422-3.272h-.889l.449-.91h4.442zm5.239.9h-1.159l.008.096-.448.908h1.066c.27 0 .448-.094.626-.458.177-.277.092-.545-.093-.545zM31.859 46.276c-4.18 0-7.641 3.453-7.641 7.816 0 4.362 3.376 7.816 7.641 7.816 4.18 0 7.642-3.454 7.642-7.816 0-4.363-3.377-7.816-7.642-7.816zm61.689 1.896l-.889 2.182h-1.862v.008s-1.777 4.82-3.02 6.907c-1.067 1.818-3.115 2.276-4.977 2.363-2.047.095-4.18.182-6.135-.095-.888-.182-1.692-1.004-1.87-1.912-.177-.64.093-1.273.356-1.818.804-1.73 2.225-5.366 2.225-5.366h-1.955l.889-2.182H86l-.804 2.182h-1.87L81.1 55.806c-.177.458-.177.909.178 1.185.711.64 1.87.546 2.759.364a3.506 3.506 0 0 0 1.777-1.636l2.225-5.366h-1.777l.888-2.182h6.398zm66.317.095c2.31 0 3.021.277 3.292 1.186.092 1.003-.27 1.636-.626 2.545-.448 1.185-1.692 3.09-4.088 3.09h-6.397l-.981 2.363h1.777l-.889 2.181h-9.689l.889-2.181h2.047l3.021-7.002h-2.047l.71-2.182h12.981zm-23.025-.19c1.87 0 3.647.095 5.509.277.889.182 1.955.545 2.31 1.636.27 1.367-.626 2.727-.803 3.272-1.067 2.363-1.16 2.545-2.048 4-.803 1.271-2.58 2.093-3.91 2.18-1.514.182-3.376.182-4.89.182l-.34.008c-1.337 0-2.226-.095-3.47-.095-1.159 0-2.31-.458-2.758-1.549-.533-1.636.178-2.726.889-4.18 1.244-2.64 1.87-4.363 3.824-5.09 1.692-.727 3.732-.546 5.687-.64zm-24.261.182l-.889 2.182-1.87.008-3.91 9.088h-4.62l-3.47-6.907-2.047 4.82h1.777l-.888 2.095h-6.753l.888-2.094h2.133l2.936-7.002h-1.955l.804-2.182h6.93l3.377 6.726 1.87-4.64H105.2l.803-2.094h6.576zm11.203 0l-.981 2.095-1.87.095-2.843 7.002h3.02l2.937-3.367 1.955.095-2.403 5.366h-14.58l.888-2.094h2.048l2.936-7.002-1.87-.095.804-2.095h9.959zm-51.745.008c.711.182 1.515.546 1.87 1.273.981 1.817-.355 3.635-.888 5.366-.982 1.912-2.403 4.362-4.714 4.544l-.981.095h-14.04l.89-2.094h1.954l3.021-7.002h-1.777l.889-2.182h13.776zm64.718 1.818c-2.403 0-2.936 1.185-3.199 1.73-.448.91-1.514 3.004-1.692 3.731-.515 1.757.796 1.904 1.526 1.912h.121c.371.007 2.683.051 3.514-1.738.626-1.272 1.16-2.363 1.6-3.636.177-.545.626-1.999-1.87-1.999zm-69.593.364h-2.225l-3.114 7.002h2.665c.534 0 .804-.182 1.16-.546.888-1.09 2.402-4.544 2.402-5.73.093-.363-.27-.726-.888-.726zm-30.945.276c2.132 0 2.666 2 1.862 4-1.05 2.391-2.462 2.538-4.305 2.544h-8.32l.803-1.818h1.067l1.244-2.908H27.5l.804-1.818h7.912zm-2.395 1.723h-1.955l-1.244 2.908h1.885c.69-.003 1.518-.063 2.024-1.272.356-.727.085-1.541-.71-1.636zm122.412-2H154.1l-.981 2.458h2.217c.889 0 1.067-.458 1.16-.64.177-.458.27-.64.447-.909.093-.276.178-.908-.71-.908zm8.522-2.18c.626 0 1.244.458 1.244 1.185 0 .727-.626 1.185-1.244 1.185-.626 0-1.244-.458-1.244-1.185 0-.727.626-1.186 1.244-1.186zm0 .173c-.533 0-.889.364-.889 1.004 0 .553.449 1.004.889 1.004.533 0 .889-.364.889-1.004 0-.546-.449-1.004-.889-1.004zm.093.372c.355 0 .533.094.533.363 0 .277-.178.364-.356.364l.356.64h-.27l-.356-.546h-.178v.546h-.27l.008-1.367h.533zm.038.182h-.309v.363h.27c.178 0 .271 0 .271-.182 0-.159-.136-.179-.232-.181z"/>
    </g>
</svg>
