<svg xmlns="http://www.w3.org/2000/svg" width="188" height="108" viewBox="0 0 188 108">
    <g fill="none" fill-rule="evenodd" opacity=".3">
        <path d="M0 0h188v108H0z"/>
        <path fill="#FFF" fill-rule="nonzero" d="M39.862 44c.436 1.06 0 4.662-3.419 5.633-2.823.796-5.218.439-5.218.439-.432.88-.68 2.286 0 3.426 1.369-.96 3.512-1.84 5.476-.08l-1.842 3.684c-1.027-.434-2.438-.607-3.118-.082.168 1.672.421 3.783-.6 5.19-1.027 1.407-2.575 3.344-6.082 2.64.863-2.023 1.261-2.129.258-7.035-1.163-5.71 1.453-8.093 1.453-8.093-1.577-.773-5.584.789-5.805.876l-.01.004.001-.047c.015-.602.32-6.715 6.499-6.463 6.508.262 6.677 2.376 12.407-.092zm50.763 3.874l6.63 3.78-1.584 1.584s-2.613-1.446-3.208-1.894c-.943-.696-1.753-.039-1.074.578.685.617 3.873 2.544 5.139 3.427 1.112.78 1.88 2.024.173 3.252-1.716 1.234-6.503 3.614-6.503 3.614l-6.677-4.14 1.623-1.667s3.676 2.11 4.102 2.458c.437.351 1.801-.266.52-1.05-1.284-.8-4.885-2.904-5.565-3.521-.68-.617-1.453-1.846.858-3.168 2.312-1.318 5.566-3.253 5.566-3.253zm44.926.263a9.153 9.153 0 0 1 1.547 2.113s2.364-1.166 4.534-1.672c3.423-.795 4.197 2.284 4.365 3.077.174.79 0 3.785 0 5.452 0 1.673.938 2.198 1.538 2.55l-5.303 2.115s-.516-.438-1.2-1.151c-.69-.699-.69-1.484-.69-1.84v-4.49c0-.875-.337-1.313-1.101-1.93l-1.89.617v4.395c0 .703.169 1.32 1.369 2.467l-5.303 1.754c-1.458-.704-1.758-1.754-1.758-2.289v-7.209l-1.491-1.891zm-15.83-.262s4.276 1.062 6.334 3.074c1.88 1.85 1.627 2.202 1.627 3.96 0 1.76-.159 3.139-2.395 4.575-2.74 1.758-4.882 2.197-4.882 2.197-2.738-.617-5.224-1.234-6.677-2.9-1.454-1.672-2.823-4.22-1.285-6.771 1.618-2.68 7.277-4.135 7.277-4.135zm40.87.219l4.365 5.452-7.02 3.518c1.458 1.494 3.765.877 6.678-.086l-2.312 3.778c-1.796.973-3.17.795-5.392.795-3.85 0-6.673-3.258-6.936-5.802-.253-2.552.69-4.403 3.259-5.983 2.307-1.424 6.405-1.643 7.212-1.667l-.08.002.013-.001-.006.001h-.006l-.024.003.03-.003.012-.001h.008l.053-.001c.094-.005.146-.005.146-.005zm-84.094-.131l4.366 5.453-7.015 3.513c1.448 1.504 3.765.887 6.673-.082l-2.307 3.778c-1.801.968-3.175.79-5.393.79-3.86 0-6.682-3.253-6.935-5.802-.253-2.547.69-4.397 3.25-5.983 2.31-1.419 6.405-1.638 7.216-1.662l.064-.003.081-.002zm30.427-2.643v3.255h3.128v3.347h-3.128v5.007c0 .443-.169.93 1.711 2.423l-5.603 2.063c-1.543-.79-2.143-2.192-2.143-3.691v-5.802h-2.776l8.811-6.602zM55.36 47.786c.853-.046 1.426.858 1.744 2.007l4.46-1.831 3.08 5.06-4.661 2.544c-.317-.48-1.411-2.243-1.6-2.546l-.027-.045-.97.372c-.117 3.26.084 5.462 1.608 5.964l-5.256 1.932c-1.116-.612-2.316-.964-2.228-3.691.085-2.73-.088-5.014-.088-5.715 0-.706-1.196-2.03-1.196-2.03zm-10.358-.003c1.542-.087 2.147 2.903 2.058 4.93-.168 3.605-.051 6.072 1.585 6.597l-5.523 1.927c-1.116-.616-2.312-.963-2.227-3.686.084-2.725-.085-5.015-.085-5.72 0-.701-1.2-2.024-1.2-2.024L45 47.783zm73.824 3.523s-2.27 4.477 2.18 6.419c2.228-4.041-2.18-6.42-2.18-6.42zm37.91.39c-1.28.533-1.41 1.94-.81 3.258l2.353-1.318zm-84.088-.13c-1.285.533-1.41 1.934-.81 3.257l2.353-1.322z"/>
    </g>
</svg>
