<svg xmlns="http://www.w3.org/2000/svg" width="188" height="108" viewBox="0 0 188 108">
    <g fill="none" fill-rule="evenodd" opacity=".3">
        <path d="M0 0h188v108H0z"/>
        <path fill="#FFF" fill-rule="nonzero" d="M103.358 54.898l.157.184c.129.157.24.328.24.545-3.583 2.013-6.806 5.236-9.812 8.228C92.387 65.27 90.65 66.26 88.805 67c-.197-.23-.268-.5-.375-.764 5.35-1.813 8.474-7.949 13.555-10.615.47-.23.85-.654 1.373-.723zm-9.78-1.246c.897 1.707 1.994 3.673 2.801 5.396l-.092.25c-2.409 2.337-4.8 5.4-8.036 6.245-.306.035-.397-.198-.469-.43.043-1.616 1.832-2.407 2.522-3.773.653-1.17.801-2.555 1.401-3.76.546-1.26.984-2.555 1.692-3.742l.18-.186zm-40.561-5.003c1.927 1.622 2.444 4.18 1.841 6.521-.767 2.767-3.178 5.726-6.177 6.338-2.782.701-6.104.392-7.92-1.904-1.674-1.995-1.302-5.312-.105-7.459.745-1.577 2.23-2.939 3.767-3.77 2.652-1.408 6.347-1.14 8.594.274zm16.595-.555c2.056.982 2.79 3.15 2.891 5.265-.064 3.158-1.968 6.118-4.788 7.512l-1.827.723c-2.618.33-5.491.198-7.361-1.727-1.747-1.707-1.882-4.584-1.118-6.766.474-1.721 1.851-3.227 3.353-4.253 2.614-1.685 6.227-1.93 8.85-.754zm63.888-.488c.108-.018.27.116.27.116l-.53 2.382-5.02-.014-.217.374-.532 2.64.128.09 3.031-.053-.62 2.704-3.323.027s-.53 1.97-.713 2.983l.126.088 4.695.015.125.088c-.054.817-.383 1.443-.565 2.206l-.308.129-11.14.046 3.325-13.703.145-.089 11.123-.029zM35.845 48.73c-.47.951-.999 1.95-.999 1.95s-.791-.482-1.262-.607c-.955-.41-2.364-.523-3.25.167l-.381.603-2.064 7.712c-.036.247-.056.586.124.801.487.48 1.3.18 1.95.27l.217-.211 1.405-5.143 6.03.049.072.125c-.584 2.29-1.097 4.597-1.753 6.85l-.128.123-9.48-.039c-1.443.067-2.812-.512-3.515-1.648-.053-.357-.45-.554-.43-.944h-.09c-.41-1.565-.386-3.552.069-5.08.984-2.749 3.717-5.398 6.735-5.85 2.519-.347 4.941-.45 6.75.872zm126.87-1.098c1.245.039 2.145.947 2.773 1.926.756 1.246.624 2.968-.065 4.208-.545.992-1.541 1.913-2.518 2.513.315 1.578.7 3.151 1.07 4.764.053.212-.055.355-.255.337l-6.12.034-.216-.125-1.107-3.874c-.092-.16-.29-.073-.435-.09l-.181.247-1.004 3.676-.181.142-6.228.017c-.108-.284-.016-.46.092-.727 1.078-4.295 2.228-8.609 3.233-12.92l.181-.125 10.961-.003zm-17.551-.025l.217.232 1.439 13.541c0 .07-6.248 0-6.248 0l-.246-2.133-4.765.025-1.396 2.107-2.818.012s6.986-11.727 8.31-13.782l5.507-.002zm-59.372.036c1.478.2 2.847 1.606 3.403 2.993.983 3.02-.236 6.088-2.192 8.375-1.486 1.468-3.256 2.38-5.387 2.38h-.69c-3.325-.001-7.977-.012-7.977-.012s2.634-11.226 3.255-13.64l.36-.088 9.228-.008zm26.402-.023l1.54 4.558s.055.071.09.124c1.432-1.345 3.914-4.682 3.914-4.682h3.286v.213l-6.217 7.67s-1.04 3.813-1.624 5.748l-.47.123h-6.12l-.072-.123 1.443-5.823-2.414-7.597s.306-.087.433-.211h6.211zm-64.653 2.539c-.546 1.171-.695 2.484-1.04 3.71-.329 1.509-.767 2.963-1.15 4.435-.128.408-.148.976.176 1.314.29.178.667.286 1.029.182.344-.142.742-.355.923-.726.748-2.397 1.152-4.934 1.845-7.365.002-.656.7-1.532-.128-1.925-.596-.144-1.256-.068-1.655.375zm17.39-.375c-.928 2.572-1.334 5.36-2.064 8.02-.039.497-.347 1.046-.059 1.526.306.197.703.341 1.083.217.402-.159.74-.445.959-.814l1.223-5.021c.074-.267.056-.62.184-.8.148-1.045.7-1.924.614-2.989-.143-.141-.296-.471-.513-.507-.541-.126-1.065-.004-1.427.368zm17.026.015a3.97 3.97 0 0 0-.128.425l-2.247 8.979c.432.284.956.038 1.426.055.433-.104.614-.478.832-.812 0 0 2.272-7.833 1.877-8.385-.414-.41-1.015-.262-1.76-.262zm16.303 1.407c.367.99.956 1.884 1.725 2.617.833-.283.98-1.257 1.704-1.612l1.293 1.993-.054.142c-1.97 1.218-3.998 2.492-5.808 4.188h-.181c-.97-1.707-1.922-3.43-2.748-5.209 1.322-.759 2.66-1.536 4.07-2.119zm41.291 1.472l-2.467 4.112 2.89-.002-.423-4.11zm18.137-2.895l-1.242 4.987c.234.211.804.206 1.127.171.327-.108.588-.45.752-.77l.876-3.355c.181-.336.058-.762-.178-1.03-.359-.196-.973-.198-1.335-.003zM118.063 41c.087 1.032-.729 1.934-1.615 2.464-2.387 1.254-5.4.818-8.11.669v.159l1.118.43c-.019.356-.418.55-.688.69-.434.177-.958.158-1.393.335.127.159.488.037.433.338-.797.87-2.15.865-3.16.452l-.128.142c.034.853-.005 1.794-.494 2.503-.344.052-.542-.251-.813-.375-.217.53-.13 1.277-.545 1.737-.361-.017-.648-.481-.973-.605-.4.85-.639 1.772-1.273 2.517-.648-.037-.971-.819-1.24-1.319-.233-1.029-.318-2.273-.08-3.337-.63-.961-1.114-2.205-.64-3.412.165-.69.637-1.365 1.215-1.825 2.082-1.75 5.022-1.156 7.766-1.201 3.43.381 7.242.268 10.62-.362zm-20.704 9.564v.144c-1.14.617-2.295 1.306-3.47 1.694.018-.712.165-1.421.04-2.131 1.302-.035 2.347.21 3.43.293zm.912-2.838l-.131 1.989c-.887.092-2.005.021-3.124-.08l-.09-.09 3.13-1.82h.215zm-.512-3.801c-.201.923-.35 2.042-.046 3.019l-.091.176-3.997 2.245-.253-.002a22.806 22.806 0 0 1-1.384-2.134l.092-.16a68.704 68.704 0 0 1 5.68-3.144zm2.09 2.227l.07.16c.633.055.513.88 1.035 1.024l-.24-1.093-.866-.09zm3.763-3.098c-.344.3-.886.281-1.3.334-.135.456-.602.745-1.04.831l-.12.018.107.051c.302.127.708.182 1.013.042.308-.462.95-.415 1.473-.43.433-.089.39-.915.95-.682.2-.054.542-.195.525-.372-.58.318-1.245-.502-1.608.208z"/>
    </g>
</svg>
