<svg xmlns="http://www.w3.org/2000/svg" width="188" height="108" viewBox="0 0 188 108">
    <g fill="none" fill-rule="evenodd" opacity=".3">
        <path d="M0 0h188v108H0z"/>
        <path fill="#FFF" fill-rule="nonzero" d="M44.357 45a16.636 16.636 0 0 1-5.838 11.94c-.108.09.008.26.131.193A15.635 15.635 0 0 0 46.688 45h4.293c-.053 6.694-5.051 15.808-13.642 17.875-1.343.323-2.621.029-3.975-.993-5.51-4.16-8.534-6.23-12.335-8.422 0 0-.101-.06-.066-.152.033-.088.141-.07.141-.07 2.286.184 7-.181 9.916-3.453 1.188-1.335 2.11-2.936 2.415-4.782h4.32a13.293 13.293 0 0 1-4.348 9.114c-.1.09.01.259.131.194A12.28 12.28 0 0 0 40.047 45zm80.874 1.761c2.57 0 4.33.616 5.23 1.832.785 1.061.93 2.604.428 4.585l-.08.3-.615 2.189c-1.255 4.495-4.421 6.774-9.41 6.774-2.57 0-4.33-.616-5.23-1.832-.787-1.059-.932-2.601-.428-4.585l.08-.3.615-2.189c1.256-4.495 4.421-6.774 9.41-6.774zm16.883 0c2.57 0 4.33.616 5.23 1.832.787 1.061.93 2.604.428 4.585l-.08.3-.615 2.189c-1.255 4.495-4.419 6.774-9.407 6.774-2.574 0-4.333-.616-5.233-1.832-.787-1.059-.93-2.601-.428-4.585l.08-.3.615-2.189c1.256-4.495 4.421-6.774 9.41-6.774zm-43.1 1.123c.585.778.66 1.96.224 3.52l-2.936 10.69h-4.807l2.662-9.689c.221-.833.375-1.5.053-1.816-.288-.282-.706-.318-1.22-.318l-2.496.078-3.287 11.742h-4.804l4.182-14.983c.57-.028 4.842-.238 9.086-.339 1.629-.041 2.75.334 3.343 1.115zm9.074-.779l-1.845 6.5.015-.008c.23-.13 3.03-1.79 5.256-6.492h5.084c-2.438 5.37-5.916 7.804-5.916 7.804l2.969 7.185h-5.003l-2.69-7.483-2.062 7.483h-4.81l4.198-14.989h4.804zm48.358 0l-1.845 6.5s2.949-1.593 5.27-6.5h5.085c-2.438 5.37-5.916 7.804-5.916 7.804l2.969 7.185h-5.003l-2.69-7.483-2.062 7.483h-4.81l4.198-14.989h4.804zm-78.948-.32c1.19.041 2.185.186 2.967.432 1.02.325 1.696.825 2.064 1.526.416.793.437 1.863.065 3.272l-.08.287-2.775 9.792h-8.59c-1.853 0-2.932-.52-3.731-1.59-.746-1-.91-2.411-.555-3.761.91-3.432 3.803-4.147 8.686-4.177h2.158l.159-.59c.237-.812.22-1.27-.003-1.578-.254-.354-.804-.51-1.953-.548-1.015-.033-3.306.044-5.77.316l-.338.038.82-2.974c2.568-.515 6.833-.445 6.876-.445zm-18.963.323l-1.573 5.664h4.306l1.57-5.664h4.84l-4.18 14.986h-4.847l1.666-5.908h-4.305l-1.668 5.908h-4.83l4.182-14.986h4.84zm18.333 8.424h-1.866c-1.406 0-3.107.225-3.42 1.746-.11.533.088 1.063.378 1.381.363.399.802.447 1.278.452h.29l2.344-.07.996-3.509zm47.324-5.271c-1.791 0-2.856.947-3.53 3.153l-.074.25-.507 1.811c-.386 1.384-.375 2.284.033 2.832.315.425.872.631 1.709.631 1.791 0 2.856-.947 3.53-3.155l.074-.25.507-1.809c.388-1.381.376-2.281-.03-2.835-.318-.424-.875-.628-1.712-.628zm16.886 0c-1.79 0-2.856.947-3.531 3.153l-.074.25-.506 1.811c-.386 1.384-.376 2.284.032 2.832.313.425.87.631 1.707.631 1.791 0 2.858-.947 3.531-3.155l.073-.25.507-1.809c.386-1.381.376-2.281-.028-2.835-.317-.424-.874-.628-1.711-.628z"/>
    </g>
</svg>
