<svg xmlns="http://www.w3.org/2000/svg" width="188" height="108" viewBox="0 0 188 108">
    <g fill="none" fill-rule="evenodd" opacity=".3">
        <path d="M0 0h188v108H0z"/>
        <path fill="#FFF" fill-rule="nonzero" d="M41.66 55.835v8.533c0 .906-.045 2.06.43 2.897.522.951 1.61 1.268 2.607 1.268.952 0 2.017-.317 2.538-1.177.457-.747.476-1.722.476-2.594v-8.904h2.878v9.28c-.022.815-.068 1.63-.317 2.399-.77 2.49-3.15 3.463-5.598 3.463-2.357 0-4.691-.928-5.53-3.305-.317-.882-.362-1.855-.362-2.783v-9.077h2.878zm48.43-.316c1.746 0 3.468.633 4.692 1.9 1.496 1.54 2.04 3.758 2.04 5.84 0 2.784-.884 5.364-3.377 6.858-1.02.611-2.221.883-3.377.883-.975 0-2.085-.249-2.969-.702-2.742-1.403-3.74-4.119-3.74-7.039 0-2.852.907-5.454 3.514-6.926a6.665 6.665 0 0 1 3.218-.814zm-52.464.316l-5.575 6.881 5.96 7.99h-3.648l-5.485-7.877 5.462-6.994h3.286zm-8.77 0v14.87H26v-14.87h2.856zm28.079 0l3.218 11.815 3.263-11.815h3.944v14.87h-2.561v-11.61l-3.196 11.61h-2.946l-3.15-11.61v11.61h-2.56v-14.87h3.988zm15.75 0v5.93h5.893v-5.93h2.878v14.87h-2.878v-6.563h-5.892v6.564h-2.879v-14.87h2.879zm39.207 0v2.445h-3.943v12.426h-2.878V58.28h-3.92v-2.445h10.741zm5.032 0v14.87h-2.879v-14.87h2.879zm10.017.385c1.88.68 2.878 2.24 2.878 4.187 0 1.902-.907 3.328-2.63 4.12l3.423 6.179h-3.332l-3.036-5.681h-2.063v5.68h-2.878v-14.87h4.034c1.201 0 2.47-.045 3.604.385zm14.3-.385v2.445h-6.527v3.485h5.938v2.445h-5.938v4.051h6.753v2.445h-9.609v-14.87h9.383zm-51.173 2.15c-2.878 0-3.74 2.898-3.74 5.297 0 2.376.84 5.274 3.74 5.274 2.878 0 3.762-2.898 3.762-5.274 0-2.4-.884-5.296-3.762-5.296zm33.713.294h-1.6v4.301h1.881c1.519 0 2.856-.43 2.856-2.218-.023-.815-.385-1.471-1.156-1.81-.564-.262-1.325-.273-1.98-.273zM158.918 38c.816 0 1.586.294 2.175.883a3.06 3.06 0 0 1 .907 2.195c0 .385-.159.95-.227 1.177-.136.408-6.232 17.18-6.323 17.383-.52 1.403-1.563 2.105-2.742 2.105-.34 0-.68-.068-.997-.181-1.473-.543-2.312-2.15-1.609-3.916.181-.453 5.076-12.833 5.076-12.833s-12.419 5.002-12.872 5.183c-1.858.77-3.331-.113-3.92-1.562a2.504 2.504 0 0 1-.182-.996c0-1.177.725-2.263 2.108-2.761 1.36-.498 17.11-6.36 17.405-6.45.476-.16.816-.227 1.2-.227z"/>
    </g>
</svg>
