<svg xmlns="http://www.w3.org/2000/svg" width="188" height="108" viewBox="0 0 188 108">
    <g fill="none" fill-rule="evenodd" opacity=".3">
        <path d="M0 0h188v108H0z"/>
        <g fill="#FFF">
            <path fill-rule="nonzero" d="M143.892 65.454H28.119L27.187 68h115.766zM96.24 50.287c-2.996.612-7.056 2.806-7.014 6.81.026 2.309 2.825 3.591 6.034 3.502 1.253-.048 2.5-.187 3.732-.415l1.192-3.083c-1.577.248-3.09.624-4.279.151-2.14-.853-.823-3.072.691-3.76a6.067 6.067 0 0 1 2.666-.57c.452 0 1.558.027 1.987 1l1.497-3.576c-2.577-.64-5.163-.338-6.505-.059zm16.241-.093l-1.363 3.666h-2.49l1.355-3.666h-4.715l-3.75 10.18h4.704l1.283-3.447H110l-1.284 3.447h4.71l3.757-10.187-4.702.007zm-28.072 0l-3.763 10.178h4.949l3.757-10.178H84.41zm-9.84 0l-3.615 5.467s.23-2.86.288-3.549c.042-.524-.022-1.918-1.303-1.918h-5.73l-3.76 10.178h4.484l2.724-7.363-.574 7.363h3.981l4.887-7.233-2.667 7.233H77.8l3.76-10.178h-6.99zm87.294 0l-2.58 6.98c.036-.704.184-3.482.263-5.084.035-.66-.108-1.161-.423-1.496a1.368 1.368 0 0 0-.9-.407h-5.749l-3.763 10.18h4.18l2.664-7.21-.315 7.21h6.999L166 50.187l-4.137.007zm-17.284 0l-3.75 10.17h4.95l3.757-10.177-4.957.007zm-20.92 2.65h5.644l.993-2.666h-10.318l-3.76 10.18h10.433l1.013-2.74h-5.76l.423-1.133h5.374l.916-2.506h-5.368l.41-1.134zm14.188-2.666h-4.814l-3.765 10.18h9.666l1.25-3.383h-4.854l2.517-6.797z"/>
            <path d="M39.276 61.31c.836.368 1.694.683 2.57.944 2.08.6 4.204 1.04 6.352 1.315 1.205.16 2.419.246 3.634.255.712.007 1.424-.041 2.129-.142.14-.021.278-.055.412-.1.486.51.581 1.247.55 1.872h-20.07a3.209 3.209 0 0 1-.289-1.622l.028-.236.243.02c.082.005.164.007.245.007 1.617 0 3.194-.849 4.196-2.314zM57.5 64.203c.145.399.217.82.213 1.244h-.968a4.7 4.7 0 0 0 .755-1.244zm-2.918-5.357a3.847 3.847 0 0 1 1.842 1.461l-.007.007a3.846 3.846 0 0 1-.693 5.073c.018-.707-.106-1.53-.629-2.192a1.78 1.78 0 0 0 .53-.672c.396-.884.068-2.088-.975-3.58v-.01l-.068-.087zm-6.91-14.78c.709-.017 1.321.377 1.393.74 0 0 .025.074-.061.077-.136 0-.246.062-.059.156.044.022.233.078.499.2l.038.02c.536.249 2.2 1.257 2.08 4.11 0 .086-.012.172-.017.256-.006.084-.017.157-.026.236-.156-.018-.226.047-.114.16.149.158.282.328.398.51.392.66.554 1.43.462 2.192a2.696 2.696 0 0 1-1.399 2.01 6.716 6.716 0 0 1-1.756.666c-.166.038-.088.254.686.243.066 0 .207.015.247.091.09.167-.064.492-.401.689-.29.17-.059.206.345.086.161.014.32.055.467.122a9.193 9.193 0 0 1 3.543 2.802c.858 1.228 1.17 2.192.9 2.8-.27.609-1.035.698-1.041.698h-.013c-2.995.464-8.192-.354-11.775-1.406a21.42 21.42 0 0 1-2.405-.879 4.993 4.993 0 0 0-.814-5.324l-.053-.057a17.037 17.037 0 0 1 2.953-.241l.007-.024c.195.013.386.05.572.108.367.137 1.078.822 1.467.882.067 0 .245-.035.053-.172-.053-.038-.502-.436-.336-.643a.202.202 0 0 1 .22-.084c.563.14 1.032.22 1.194.243.099.015.17.017.21-.018.04-.035.011-.058-.099-.09-.868-.231-1.833-.604-2.496-1.106a3.1 3.1 0 0 1-1.24-2.854 2.992 2.992 0 0 1 1.168-1.996c.247-.155.512-.278.79-.365.316-.114-.201-.196-.238-.203-.132-.022-.14-.157-.031-.57a4.63 4.63 0 0 1 3.035-3.145c.227-.072.458-.13.691-.174.305-.046.184-.183-.157-.223 0 0-.118 0-.06-.082.05-.058.109-.11.173-.152.302-.181.647-.28 1-.288zM35.303 54.48a4.039 4.039 0 0 1 2.96 1.34h.002c1.197 1.344 1.399 3.39.479 4.865-1.03 1.655-2.878 2.474-4.598 2.037a3.647 3.647 0 0 1-.702-.256c.163-.024.325-.057.484-.1 1.692-.457 2.955-2.01 3.144-3.87a4.471 4.471 0 0 0-.917-3.225 3.877 3.877 0 0 0-.852-.79zm-1.428.189c.65.188 1.225.57 1.65 1.096l.016.003c.584.756.851 1.708.746 2.656-.155 1.536-1.187 2.819-2.566 3.191a3.776 3.776 0 0 1-3.039-.462 4.194 4.194 0 0 0 3.831-2.871 3.95 3.95 0 0 0-.051-2.576 3.781 3.781 0 0 0-.587-1.037zm-.883.188c.85.825 1.155 2.06.788 3.185-.513 1.591-2.214 2.601-3.79 2.25a3.459 3.459 0 0 1-1.913-1.17 4.045 4.045 0 0 0 2.48-.243 4.141 4.141 0 0 0 2.363-3.07h-.009c.06-.314.087-.633.08-.952zm-1.26-1.668a3.51 3.51 0 0 1 .398 2.471 3.265 3.265 0 0 1-2.06 2.567 3.283 3.283 0 0 1-3.256-.523 3.437 3.437 0 0 1-1.404-2.4c.08.072.165.137.251.2.643.452 1.413.69 2.2.679a3.98 3.98 0 0 0 1.043-.132c1.44-.405 2.146-1.267 2.486-1.92.153-.295.267-.61.337-.936l.005-.006zm-7.64-12.406c.208.019.381.165.435.365 0 .022.02.046.03.071l1.407 3.347a.13.13 0 0 0 .044.06c.055.05.14.055.2.01a.157.157 0 0 0 .05-.193l-1.37-3.244a.3.3 0 0 1 .156-.16.498.498 0 0 1 .223-.066.38.38 0 0 1 .31.171s1.817 3.559 2.154 4.172a3.466 3.466 0 0 0-.266.516c-.024.09.037.173.08.087.114-.163.236-.32.367-.47a.051.051 0 0 0 .013-.02c.086-.15.352-.858.458-1.08.079-.367.212-.72.395-1.047a.657.657 0 0 1 .56-.33c.206 0 .367.103.367.21 0 .047-.445 2.792-.445 2.792a27.11 27.11 0 0 0-.275 1.872 2.307 2.307 0 0 1-.039.345v.037s0 .026-.016.068a3.568 3.568 0 0 1-.257.73l.143.654c.057.276.12.572.143.661.104.366-.03.589.038.663.096.105.327-.39.387-.646a2.683 2.683 0 0 0-.097-.913c.287.133.549.316.774.538.335.31.578.708.7 1.148.133.427.223.867.27 1.313.008.352-.113 2.225-2.334 2.847a3.16 3.16 0 0 1-.825.103 2.94 2.94 0 0 1-1.741-.54c-1.074-.76-1.494-2.425-1.283-3.305.085-.344.228-.67.423-.966.099.06.205.11.315.146l.064.303c0 .036.184.882.51 1.14.18.112.39.168.603.162.097 0 .33-.01.367-.111a.091.091 0 0 0-.026-.102.457.457 0 0 0-.103-.064c-.157-.086-.452-.243-.515-.532-.035-.163-.17-.73-.249-1.069.33-.26.367-.547-.066-.458a.845.845 0 0 1-.687-.214c-.87-.754-1.771-3.076-1.953-3.487-.733-1.863-.89-2.862-.661-3.141v.009l.03-.022a.259.259 0 0 1 .096-.055h.14c.025.004.05.01.073.018.227.082.394.366.447.77.089.69.333 1.352.715 1.935a.172.172 0 0 0 .295-.029.17.17 0 0 0-.016-.17 4.318 4.318 0 0 1-.653-1.782c-.071-.536-.315-.914-.669-1.045a.688.688 0 0 0-.258-.042 1.97 1.97 0 0 1-.105-.283c-.035-.147-.1-.437.225-.548l.063-.019h.033c.236-.029.55.079.856 1.18.228.72.551 1.406.962 2.04a.17.17 0 0 0 .227.04.17.17 0 0 0 .06-.222 8.238 8.238 0 0 1-.917-1.945c-.134-.475-.323-.992-.644-1.257-.046-.117-.097-.247-.11-.289-.055-.162-.112-.524.2-.626a.552.552 0 0 1 .172-.031zm21.04 10.696l-.052.006-.048.022a.17.17 0 0 0-.076.131.183.183 0 0 0 .123.183c.212.105.431.194.656.268.184.105.347.243.48.408.174.186.373.347.592.478.435.238.936.326 1.426.25.247-.038.483-.125.695-.257.151-.1.296-.208.434-.325.084-.067.172-.128.264-.183.055-.03.44-.182.644-.301 0 .071 0 .133.044.142.044.01.1-.09.119-.171a.364.364 0 0 0-.02-.214.279.279 0 0 0-.193-.139l-.004-.016-.043.003c-.047.014-.056.064-.03.086a.22.22 0 0 1 .033.035l-.082.047-.195.08a2.864 2.864 0 0 1-.403.118 5.15 5.15 0 0 1-1.538.082 8.166 8.166 0 0 1-2.465-.583l-.207-.091-.052-.026-.051-.023-.052-.01zm1.362.831c.822.216 1.676.29 2.524.218a1.85 1.85 0 0 1-.589.329 1.799 1.799 0 0 1-.683.062 1.937 1.937 0 0 1-.658-.166 2.124 2.124 0 0 1-.594-.443zm-1.331-1.14a.761.761 0 0 0-.25.052.563.563 0 0 0-.351.462.08.08 0 0 0 .023.057c.02.02.046.03.074.029a.066.066 0 0 0 .064-.066.277.277 0 0 1 .079-.159.701.701 0 0 1 .398-.183c.045-.01.11-.045.091-.113l.006-.01-.025-.04c-.033-.028-.087-.028-.11-.028zm4.63-3.452l-.13.004a.875.875 0 0 0-.167.035c-.531.168-.744.637-.902 1.278-.172.71.07 1.546.523 1.688.098.027.198.049.298.064.114.023.23.03.345.02a.735.735 0 0 0 .367-.139c.215-.176.38-.406.478-.666.1-.246.157-.508.169-.773a2.461 2.461 0 0 0-.026-.587l-.038-.186-.037-.12a.97.97 0 0 0-.385-.477 1.053 1.053 0 0 0-.625-.137zm-.04.395l.13.013c.768.124.687 1.125.632 1.432l-.028.124a1.96 1.96 0 0 1-.082.241 1.35 1.35 0 0 1-.403.572.516.516 0 0 1-.224.091c.298-.218.479-.56.492-.928.053-.588-.22-1.096-.61-1.127a.611.611 0 0 0-.508.245c.16.023.275.166.263.327a.314.314 0 0 1-.245.365l-.062-.01a.275.275 0 0 1-.179-.156l-.019-.06-.034.15-.021.153c-.047.34.05.685.267.952l-.002-.002-.082-.073a.8.8 0 0 1-.177-.279l-.032-.107c-.03-.099-.05-.2-.06-.303a1.843 1.843 0 0 1 .106-.899l.016-.05.035-.085c.15-.337.417-.66.957-.573zm-2.854-.784a1.103 1.103 0 0 0-.658-.029.987.987 0 0 0-.58.471 2.439 2.439 0 0 0-.273.744 2.28 2.28 0 0 0-.035.798c.03.28.134.547.301.77a.76.76 0 0 0 .33.233c.113.04.23.064.35.071.105.01.21.015.315.015.492-.02.955-.773.97-1.51.015-.67-.075-1.185-.56-1.486a.88.88 0 0 0-.16-.077zm-.458.335l.135.003c.609.06.772.508.818.899v.053l.01.184c.003.246-.045.49-.14.718-.039.098-.086.191-.142.28a.716.716 0 0 1-.485.383h-.046l.113-.085c.25-.214.4-.523.41-.855.052-.589-.228-1.096-.63-1.13a.626.626 0 0 0-.516.244.356.356 0 0 1 .02.685.282.282 0 0 1-.264-.229c-.03.1-.05.2-.059.304-.039.316.042.635.227.895a.527.527 0 0 1-.066-.066 1.343 1.343 0 0 1-.253-.663 1.776 1.776 0 0 1-.01-.382l.006-.063c.047-.368.255-1.247 1.007-1.172z"/>
        </g>
    </g>
</svg>
