<svg xmlns="http://www.w3.org/2000/svg" width="188" height="108" viewBox="0 0 188 108">
    <g fill="none" fill-rule="evenodd" opacity=".3">
        <path d="M0 0h188v108H0z"/>
        <path fill="#FFF" fill-rule="nonzero" d="M133.676 67.713l.73.727v.526h-1.662v-.2l-.126-.126h-2.744l-.1.1v.527l.05.05h3.852l.704.702v1.179l-.805.802h-4.758l-.755-.727v-.527h1.661v.201l.126.125h2.794l.101-.1v-.552l-.05-.05h-3.852l-.705-.702v-1.153l.806-.802h4.733zm-9.24 0v3.209h3.147V72h-4.808v-4.287h1.661zm-53.798-.025l.805.802v.978l-.83.827.981 1.705h-1.762l-.78-1.379h-2.266V72h-1.662v-4.312h5.514zm51.507 0v.927h-3.65v.727h3.298v.928h-3.298v.777h3.676v.928h-5.312v-4.287h5.286zm-5.916 0v.927h-3.65v.727h3.298v.928h-3.298v.777h3.676v.928h-5.312v-4.287h5.286zm-10.472 0v1.63h2.895v-1.63h1.661v4.287h-1.661v-1.53h-2.895v1.53h-1.662v-4.287h1.662zm-9.39 0l.78 3.184.982-3.184h2.215l.982 3.184.78-3.184h1.435l-1.158 4.287h-2.24l-.957-3.234-.957 3.234h-2.29l-1.184-4.287h1.611zm-4.381 0l.73.727v.501h-1.661v-.225l-.101-.1H88.31l-.15.15v.451l.15.15h5.01v.903h-.654v1.028l-.705.702h-4.783l-.68-.677v-.878l.63-.626-.605-.602v-.802l.705-.702h4.758zm-8.333 0l.73.727v.526h-1.661v-.2l-.126-.126h-2.744l-.101.1v.527l.05.05h3.877l.705.702v1.179l-.805.802H78.82l-.73-.702v-.527h1.661v.201l.126.125h2.794l.101-.1v-.552l-.1-.075H78.82l-.705-.702V68.49l.805-.802h4.733zm-6.143 0v.927h-3.65v.727h3.298v.928H73.86v.777h3.676v.928h-5.312v-4.287h5.286zm-12.99.025v.952h-1.309v2.357h1.31v.953h-4.255v-.953h1.309v-2.357h-1.31v-.952h4.255zm-4.884-.025v1.053h-2.165v3.234H55.81V68.74h-2.14v-1.053h5.966zm31.419 2.557H88.31l-.15.15v.527l.15.15h2.593l.152-.15v-.677zm-21.5-1.605h-2.769v1.003h2.77l.226-.225v-.552l-.227-.226zm38.72-23.366l-6.748 18.377h-5.261l6.545-18.377h5.463zm23.94 1.805v4.187h-7.955V61.92h-7.653V51.266h-7.955v-4.187h23.563zm-56.039-.025l3.474 10.254 3.827-10.254h12.336V61.92h-7.578V51.165l-3.801 10.756H74.112l-3.525-10.906v10.906H63.69V47.054h12.486zm-14.35 10.655v4.212H41.889l-4.204-4.212h24.143zm88.49 0l-4.23 4.187h-19.913V57.71h24.143zm7.83-5.34l-4.205 4.212h-27.768v-4.212h31.972zm-96.32.025v4.187H34.06l-4.23-4.187h31.998zM166 47.054l-4.23 4.212h-27.943v-4.212H166zm-104.199.025v4.187H26.204L22 47.079h39.801zM150.064 37l1.26 1.254v3.309l-1.26 1.254h-6.822l-1.259-1.254v-3.284l1.259-1.254V37h6.822zm-56.391.025v2.03h3.398v-2.03h2.744v5.767h-2.744v-1.88h-3.398v1.88h-2.744v-5.767h2.744zM70.21 37v1.554h-4.783v.527h4.254v1.554h-4.254v.602h4.808v1.555h-7.552V37h7.527zm38.341 0l1.259 1.254v3.284l-1.259 1.254h-6.822l-1.26-1.254v-3.284L101.73 37h6.822zm-76.733 0l1.209 3.911L34.336 37h4.405v5.792h-2.719V38.78l-1.309 4.012h-3.675l-1.183-4.037v4.037h-2.493V37h4.456zm10.397 0v5.792h-2.82V37h2.82zm48.06 0v1.755H87.48v4.037h-2.77v-4.037h-2.794V37h8.358zm40.153 0l1.259 1.254v1.88l-1.259 1.254h-5.211v1.404h-2.744V37h7.955zm-79.452 0l1.31 1.304v1.128h-2.72v-.777H45.64v2.482h3.902v-.853h2.744v1.204l-1.309 1.304H44.13l-1.234-1.254v-3.284L44.13 37h6.847zm89.32 0l1.007 1.003v.727h-2.744v-.25h-3.474v.55h5.287l.957.954v1.73l-1.083 1.078h-6.948l-.982-1.003v-.752h2.744v.25h3.525v-.576h-5.287l-.957-.953v-1.68L133.424 37h6.873zm15.911 0l2.014 4.011V37h2.442v5.792h-4.255l-1.988-4.012v4.012h-2.468V37h4.255zM55.684 37v2.532L58.856 37h3.449l-3.097 2.332 3.298 3.46h-3.524l-1.813-1.906-1.485 1.103v.803H52.94V37h2.744zm59.211 0l1.208 3.911L117.438 37h4.38v5.792H119.1V38.78l-1.284 4.012h-3.675l-1.209-4.037v4.037h-2.467V37h4.431zm-41.287 0l1.46 2.156L76.656 37h2.82l-3.173 4.062v1.704h-2.77v-1.73L70.387 37h3.222zm33.433 1.655h-3.827v2.482h3.827v-2.482zm41.513.025h-3.827v2.457h3.827V38.68zm-19.637-.025h-3.7v1.053h3.7v-1.053z"/>
    </g>
</svg>
