<svg xmlns="http://www.w3.org/2000/svg" width="188" height="108" viewBox="0 0 188 108">
    <g fill="none" fill-rule="evenodd" opacity=".3">
        <path d="M0 0h188v108H0z"/>
        <path fill="#FFF" fill-rule="nonzero" d="M148.577 60.661c4.154 0 4.048 2.731 4.042 2.85v.004h-2.938s-.11-.868-1.19-.875c-.596 0-.96.227-.96.57 0 1.02 4.594 1.08 4.594 3.787 0 .846-.368 3.003-4.342 3.003-4.586 0-4.373-2.956-4.362-3.077v-.004h3.082s-.038 1.04 1.414 1.04c.784 0 1.104-.411 1.104-.686 0-1.157-4.534-1.157-4.534-3.923 0-1.128.806-2.689 4.09-2.689zm-31.812.246l1.079 3.104 1.852-3.104h3.613l-4.205 5.604-.668 3.262h-3.367l.67-3.262-2.318-5.115-.365 1.785h-2.595l-1.331 6.592h-3.229l1.347-6.592h-2.784l.464-2.267 8.275-.001-.003-.006h3.565zm13.341-.01c1.834 0 3.242.859 2.9 2.537-.19.92-.861 2.018-2 2.355 0 0 1.28.266 1.017 1.885-.17 1.05-.374 1.782.093 1.795v.304h-3.363a5.262 5.262 0 0 1 .073-1.367c.083-.845.64-1.726-.902-1.726h-1.331l-.64 3.093h-3.22l1.808-8.875h5.565zm13.002.01l-.464 2.268h-4.455l-.224 1.108h3.904l-.432 2.112h-3.916l-.212 1.11h4.75l-.465 2.268h-7.977l1.81-8.866h7.68zm-14.695 2.116h-1.078l-.355 1.762h1.26c.602 0 1.28-.088 1.453-.881.116-.56-.035-.881-1.28-.881zM45.078 39c7.252 0 9.383 4.464 9.383 8.043 0 10.269-10.06 14.363-15.584 14.363-8.141 0-8.877-6.67-8.877-8.043C30 46.062 36.006 39 45.078 39zm91.137 6.803c1.203 0 3.14.249 1.978 2.837-1.162 2.588-3.255 7.11-3.722 8.043-.45.9-1.014 2.173-3.062 2.263l-.234.005h-10.506c-1.085 0-2.867-.434-1.782-2.945 1.06-2.453 3.343-7.381 3.446-7.604.493-.996 1.15-2.499 3.802-2.595l.272-.004h9.808zm-55.28 0H91.29c.4 0 .817.143.725.674l-.027.12-3.053 11.567c-.21.692-.756.766-1.19.773h-4.478c-.723 0-.576-.608-.515-.942.061-.333.487-2.293.525-2.53.074-.457-.103-.506-.345-.511h-2.91a.92.92 0 0 0-.793.353c-.506.67-1.677 2.853-1.677 2.853-.308.49-.84.782-1.406.782l-.155-.007h-4.388c-.582 0-.421-.413-.214-.716l.042-.059 8.08-11.71a1.694 1.694 0 0 1 1.424-.647zm39.02-.013c.395 0 .658.158.47.684l-.047.119-5.066 11.567c-.304.693-.86.767-1.294.774H109.1c-.582 0-.514-.412-.377-.715l.028-.059 5.408-11.723c.098-.272.329-.593.913-.641l.153-.006h4.73zm35.607.013c1.843 0 3.005.91 2.154 3.142l-3.555 9.215c-.32.742-.938.775-1.386.775h-5.12c-1.075 0-.938-.907-.78-1.212 0 0 2.729-6.342 2.982-7.03.252-.686-.058-1.275-.832-1.275-.775 0-1.338.353-1.744 1.195-.407.842-3.488 7.544-3.488 7.544-.299.693-.857.767-1.294.774h-5.964c-.62 0-.506-.47-.349-.774l5.456-11.707c.096-.304.368-.647 1.066-.647h12.854zm-44.506 0c.893 0 .66.573.554.887-.106.314-.192.57-.426 1.237-.202.579-.563.612-.92.61h-4.622a.907.907 0 0 0-.916.51l-.044.108-3.933 9.005c-.304.693-.86.767-1.294.774H94.746c-.582 0-.514-.412-.377-.715l.028-.059 4.275-9.15c.135-.289-.074-.446-.44-.448l-.104.004H94.56c-.716 0-.928-.528-.832-.94.096-.411.212-.904.35-1.334.126-.398.613-.478 1.1-.488l.122-.001h15.756zm-39.984 0h4.515c.388 0 .874.077.503.667-.371.59-8.138 10.64-8.544 11.169-.407.528-.663 1.296-2.26 1.296h-9.83c-.62 0-.601-.47-.509-.775l2.893-11.32a1.37 1.37 0 0 1 1.456-1.037h4.083c.426 0 .688.171.586.803-.163 1.043-1.85 8.422-1.968 8.93-.118.51.62 1.06 1.28.107.986-1.412 5.712-8.422 6.003-8.836a1.826 1.826 0 0 1 1.792-1.004zm-24.87-2.174c-4.02 0-7.172 6.012-7.172 9.575 0 2.239 1.514 3.023 2.56 3.023 2.906 0 8.141-3.113 8.132-8.947 0-2.906-1.968-3.651-3.52-3.651zm81.565 5.993s-2.093 4.972-2.326 5.532c-.219.523-.03.84.374.88l.09.005h2.41c.988 0 1.046-.38 1.222-.794.176-.415 2.05-4.804 2.297-5.387.328-.768.042-1.158-.5-1.204l-.105-.004h-1.948a1.545 1.545 0 0 0-1.514.972zm-44.363-.627l-.082.121-1.66 2.592c-.14.213-.482.616-.004.663l.1.004h1.682c1.239 0 1.363-2.475 1.363-3.103 0-.584-.366-.71-.544-.724l-.038-.002c-.146 0-.462-.033-.817.45z"/>
    </g>
</svg>
