<svg xmlns="http://www.w3.org/2000/svg" width="188" height="108" viewBox="0 0 188 108">
    <g fill="none" fill-rule="evenodd" opacity=".3">
        <path fill="#FFF" fill-rule="nonzero" d="M59.713 53.452V66h-6.884V53.452h6.884zm87.899 0V66h-6.885V53.452h6.885zm-68.79 0l.254.004c2.846.113 4.509 2.117 4.509 4.312 0 1.657-.89 3.086-2.296 3.728L83.588 66h-7.722l-2.075-4.05h-2.25V66h-6.884V53.451h14.165zm24.264 0v3.026h-8.297v1.847h8.297v3.025h-8.297v1.847h8.297V66H87.905V53.452h15.18zm11.576 0v9.745h6.972V66h-13.856V53.452h6.884zm16.224 0v9.745h6.973V66h-13.856V53.452h6.883zM144.54 42c2.439 0 4.416 1.993 4.416 4.453 0 2.459-1.977 4.452-4.416 4.452l-95.67-.002v15.04H36.957V42zm-73 14.255v2.657h3.929c.723 0 1.31-.593 1.31-1.323s-.587-1.321-1.31-1.321l-3.928-.013zM48.87 45.03v2.84h82.454a1.41 1.41 0 0 0 1.404-1.416 1.41 1.41 0 0 0-1.404-1.416l-82.453-.008z"/>
        <path d="M0 0h188v108H0z"/>
    </g>
</svg>
