<svg xmlns="http://www.w3.org/2000/svg" width="188" height="108" viewBox="0 0 188 108">
    <g fill="none" fill-rule="evenodd" opacity=".3">
        <path d="M0 0h188v108H0z"/>
        <path fill="#FFF" fill-rule="nonzero" d="M46.882 47.003c3.648 0 7.816.139 7.816 4.583 0 2.031-.866 5.362-2.439 7.761C50.69 61.82 46.902 62 44.024 62c-4.47 0-7.811-.139-7.811-4.58 0-2.028.845-5.063 2.276-7.329 1.73-2.728 4.73-3.088 8.393-3.088zm34.249 0c3.645 0 7.816.139 7.816 4.583 0 2.031-.866 5.362-2.439 7.761C84.938 61.82 81.15 62 78.274 62c-4.471 0-7.813-.139-7.813-4.58 0-2.028.847-5.063 2.275-7.329 1.734-2.728 4.733-3.088 8.395-3.088zM157.813 47c2.011 0 5.25.101 8.187.539l-1.269 4.388c-1.95-.235-3.881-.43-5.853-.43-2.393 0-2.955.334-2.955 1.003 0 .57.4.728 3.559.728h.175c2.218.007 4.13.176 4.13 3.087 0 1.096-.52 2.634-.947 3.31-1.246 1.996-3.257 2.374-7.22 2.374-3.218 0-5.958-.179-8.63-.657l.908-3.581c2.29.274 4.566.448 6.876.448.666 0 2.073 0 2.073-.914 0-.684-.362-.819-3.964-.819-1.847 0-3.879-.62-3.879-2.852 0-3.045 1.607-5.53 4.018-6.207 1.351-.375 3.3-.417 4.791-.417zm-120.173.398L36.353 52.1h-4.041l-2.492 9.51h-6.251l2.49-9.51H22l1.285-4.702H37.64zm24.03-.002l.785 6.259h.06l3.685-6.259h7.12L62.88 61.61h-7.36l2.428-3.25-2.996-10.963h6.718zm46.745.002l-1.29 4.703h-4.036l-2.495 9.508h-6.25l2.493-9.508h-4.061l1.285-4.703h14.354zm7.117-.002l-3.904 14.213h-6.056l3.804-14.213h6.156zm12.914 0c2.734 0 3.318 1.152 3.318 3.164 0 3.582-2.01 5.216-4.603 5.216h-1.087l4.15 5.833h-7.18l-2.978-4.95-1.27 4.95h-6.135l3.92-14.212zm20.873 0l-1.186 4.494h-8.564l-.405 1.577h8.566l-.804 3.072h-8.567l-.343 1.277h8.567l-.986 3.792h-14.8l3.703-14.211h14.82zM46.157 51.706c-.985 0-1.81.059-2.535 1.399-.544 1.005-1.006 2.602-1.006 3.312 0 1.459 1.006 1.793 1.83 1.793 1.47 0 2.075-.255 2.677-1.34.223-.393.986-1.911.986-3.507 0-1.026-.561-1.657-1.952-1.657zm34.249 0c-.984 0-1.81.059-2.534 1.399-.543 1.005-1.01 2.602-1.01 3.312 0 1.459 1.01 1.793 1.834 1.793 1.47 0 2.074-.255 2.677-1.34.222-.393.986-1.911.986-3.507 0-1.026-.565-1.657-1.953-1.657zm43.843-.332h-2.678l-.764 2.946h2.75c1.413 0 2.017-1.035 2.017-1.95 0-.676-.484-.996-1.325-.996z"/>
    </g>
</svg>
