<svg xmlns="http://www.w3.org/2000/svg" width="188" height="108" viewBox="0 0 188 108">
    <g fill="none" fill-rule="evenodd" opacity=".3">
        <path d="M0 0h188v108H0z"/>
        <path fill="#FFF" fill-rule="nonzero" d="M10.444 42l2.09.008 11.938 11.578-11.86 11.518h-2.089l11.82-11.457.047-.06-.047-.039L10.444 42zm9.441 0l11.946 11.586-11.86 11.518h-2.097l11.82-11.457.032-.06-.031-.039-11.907-11.54L19.885 42zm3.676 0l11.938 11.586-11.852 11.518h-2.089l11.805-11.457.047-.06-.047-.039L21.472 42h2.089zm23.884 0l-10.061 9.764-.055.046.055.046.699.67.047.046.04-.045L49.023 42h2.097l-11.9 11.548s-11.867 11.52-11.906 11.556h-2.09l11.813-11.457.04-.06-.04-.039L25.14 42l2.097.008 3.503 3.384.047.053.04-.053 3.51-3.384h2.082l-4.548 4.405-.047.046.047.054.7.67.046.046.055-.038L38.012 42l2.097.008-6.4 6.197-.048.045.047.039.7.678.046.053.055-.053 7.171-6.96h2.09l-8.271 8.02.047.053.7.67.046.046L45.348 42h2.097zm-31.236.008l11.946 11.578-11.86 11.518h-2.08L26.01 53.647l.055-.06-.055-.039-11.89-11.54h2.088zm84.384 2.728c5.072 0 9.198 4.004 9.198 8.919.004 4.932-4.12 8.933-9.198 8.933-5.076 0-9.201-4-9.197-8.933 0-4.915 4.121-8.919 9.197-8.919zm-28.879 0c5.08 0 9.19 4.005 9.19 8.934 0 4.919-4.119 8.918-9.19 8.918-5.069 0-9.19-4-9.19-8.918 0-4.929 4.121-8.934 9.19-8.934zm42.082.153v7.44h6.488v-7.44h3.212v17.547h-3.212v-7.097h-6.488v7.097h-3.22V44.889h3.22zm-59.816 0l3.809 7.569 3.801-7.57h3.377l-5.694 10.993v6.555h-2.976V55.88l-5.695-10.992h3.378zm80.111 0l6.676 17.547h-3.385l-1.65-4.482h-6.495l-1.673 4.482h-3.369l6.676-17.547h3.22zm11.318 0l5.34 13.454 5.318-13.454h3.974v17.547h-3.228l-.055-11.472-4.516 11.472h-3l-4.524-11.472-.055 11.472h-3.22V44.889h3.966zm25.478 0l6.669 17.547h-3.378l-1.665-4.482h-6.495l-1.657 4.482h-3.385l6.676-17.547h3.235zm-76.545-.153l-6.99 8.95 6.723 8.597h-3.959l-5.286-7.226v7.226h-3.15V44.744h3.15v7.47l5.561-7.478h3.95zm-22.628 2.92c-3.412 0-6.189 2.694-6.189 6.014 0 3.309 2.777 6.007 6.19 6.007 3.42 0 6.188-2.698 6.188-6.007 0-3.32-2.768-6.014-6.189-6.014zm28.887-.008c-3.419 0-6.204 2.696-6.204 6.007 0 3.322 2.782 6.014 6.196 6.014 3.42 0 6.194-2.692 6.19-6.014 0-3.311-2.76-6.007-6.182-6.007zm68.669 1.868l-2.278 5.976h4.547l-2.27-5.976zm-36.797.007l-2.262 5.969h4.54l-2.278-5.969z"/>
    </g>
</svg>
